<svg width="804" height="1244" viewBox="0 0 804 1244" fill="none" xmlns="http://www.w3.org/2000/svg">
<mask id="path-1-inside-1_14_309" fill="white">
<path d="M39.7036 226.112C39.7036 226.112 39.7036 308 402 308C764.296 308 764.296 226.112 764.296 226.112L679.926 1136.59C679.926 1136.59 679.926 1243.52 402 1243.52C124.074 1243.52 124.074 1136.59 124.074 1136.59L39.7036 226.112Z"/>
</mask>
<path d="M39.7036 226.112C39.7036 226.112 39.7036 308 402 308C764.296 308 764.296 226.112 764.296 226.112L679.926 1136.59C679.926 1136.59 679.926 1243.52 402 1243.52C124.074 1243.52 124.074 1136.59 124.074 1136.59L39.7036 226.112Z" fill="#F4F4F4"/>
<path d="M39.7036 226.112L48.6652 225.281L30.7036 226.112H39.7036ZM764.296 226.112H773.296L755.335 225.281L764.296 226.112ZM679.926 1136.59L670.964 1135.76L670.926 1136.17V1136.59H679.926ZM124.074 1136.59L133.074 1136.59L133.074 1136.17L133.036 1135.76L124.074 1136.59ZM755.335 225.281L670.964 1135.76L688.887 1137.42L773.258 226.942L755.335 225.281ZM133.036 1135.76L48.6652 225.281L30.742 226.942L115.112 1137.42L133.036 1135.76ZM679.926 1136.59C670.926 1136.59 670.926 1136.58 670.926 1136.57C670.926 1136.57 670.926 1136.55 670.926 1136.55C670.926 1136.54 670.926 1136.53 670.926 1136.52C670.926 1136.5 670.927 1136.49 670.927 1136.48C670.927 1136.47 670.927 1136.48 670.925 1136.52C670.922 1136.59 670.914 1136.76 670.892 1137.01C670.847 1137.52 670.749 1138.38 670.534 1139.54C670.104 1141.86 669.205 1145.38 667.325 1149.72C663.591 1158.34 655.861 1170.48 639.697 1182.92C607.213 1207.92 540.061 1234.52 402 1234.52V1252.52C541.865 1252.52 613.675 1225.66 650.674 1197.19C669.25 1182.89 678.89 1168.3 683.842 1156.87C686.304 1151.19 687.576 1146.36 688.232 1142.83C688.559 1141.06 688.733 1139.62 688.824 1138.57C688.87 1138.04 688.896 1137.61 688.909 1137.27C688.916 1137.11 688.921 1136.97 688.923 1136.85C688.924 1136.8 688.925 1136.75 688.925 1136.7C688.925 1136.68 688.926 1136.66 688.926 1136.64C688.926 1136.63 688.926 1136.62 688.926 1136.61C688.926 1136.6 688.926 1136.59 679.926 1136.59ZM402 1234.52C263.939 1234.52 196.786 1207.92 164.303 1182.92C148.139 1170.48 140.409 1158.34 136.675 1149.72C134.795 1145.38 133.896 1141.86 133.466 1139.54C133.25 1138.38 133.152 1137.52 133.108 1137.01C133.086 1136.76 133.078 1136.59 133.075 1136.52C133.073 1136.48 133.073 1136.47 133.073 1136.48C133.073 1136.49 133.073 1136.5 133.074 1136.52C133.074 1136.53 133.074 1136.54 133.074 1136.55C133.074 1136.55 133.074 1136.57 133.074 1136.57C133.074 1136.58 133.074 1136.59 124.074 1136.59C115.074 1136.59 115.074 1136.6 115.074 1136.61C115.074 1136.62 115.074 1136.63 115.074 1136.64C115.074 1136.66 115.074 1136.68 115.075 1136.7C115.075 1136.75 115.076 1136.8 115.077 1136.85C115.079 1136.97 115.083 1137.11 115.09 1137.27C115.104 1137.61 115.13 1138.04 115.175 1138.57C115.267 1139.62 115.44 1141.06 115.768 1142.83C116.423 1146.36 117.695 1151.19 120.158 1156.87C125.11 1168.3 134.75 1182.89 153.326 1197.19C190.324 1225.66 262.135 1252.52 402 1252.52V1234.52ZM39.7036 226.112C30.7036 226.112 30.7036 226.131 30.7037 226.151C30.7037 226.159 30.7039 226.179 30.704 226.193C30.7042 226.222 30.7046 226.252 30.7052 226.283C30.7062 226.346 30.708 226.414 30.7105 226.487C30.7157 226.633 30.7241 226.8 30.7375 226.987C30.7642 227.361 30.8104 227.816 30.8884 228.344C31.0445 229.403 31.3267 230.751 31.8295 232.342C32.8402 235.54 34.712 239.625 38.1208 244.248C44.9321 253.485 57.6487 264.573 81.2834 275.257C128.334 296.527 220.455 317 402 317V299C221.249 299 132.221 278.53 88.6979 258.855C67.0455 249.067 57.1186 239.682 52.6082 233.565C50.3561 230.511 49.3975 228.199 48.9929 226.918C48.7881 226.27 48.7166 225.859 48.6958 225.718C48.6853 225.647 48.6872 225.641 48.6918 225.706C48.6941 225.738 48.6971 225.788 48.6995 225.855C48.7006 225.889 48.7017 225.927 48.7024 225.97C48.7028 225.991 48.7031 226.014 48.7033 226.037C48.7034 226.049 48.7035 226.068 48.7035 226.074C48.7036 226.092 48.7036 226.112 39.7036 226.112ZM402 317C583.545 317 675.665 296.527 722.716 275.257C746.351 264.573 759.068 253.485 765.879 244.248C769.288 239.625 771.16 235.54 772.17 232.342C772.673 230.751 772.955 229.403 773.111 228.344C773.189 227.816 773.236 227.361 773.262 226.987C773.276 226.8 773.284 226.633 773.289 226.487C773.292 226.414 773.294 226.346 773.295 226.283C773.295 226.252 773.296 226.222 773.296 226.193C773.296 226.179 773.296 226.159 773.296 226.151C773.296 226.131 773.296 226.112 764.296 226.112C755.296 226.112 755.296 226.092 755.296 226.074C755.296 226.068 755.296 226.049 755.297 226.037C755.297 226.014 755.297 225.991 755.297 225.97C755.298 225.927 755.299 225.889 755.3 225.855C755.303 225.788 755.306 225.738 755.308 225.706C755.313 225.641 755.315 225.647 755.304 225.718C755.283 225.859 755.212 226.27 755.007 226.918C754.602 228.199 753.644 230.511 751.392 233.565C746.881 239.682 736.954 249.067 715.302 258.855C671.779 278.53 582.751 299 402 299V317Z" fill="#5A5A5A" mask="url(#path-1-inside-1_14_309)"/>
<path d="M714.337 419.368C734.662 412.592 746.61 405.697 753.663 399.857L720.202 831.912C719.878 832.333 719.407 832.915 718.765 833.639C717.176 835.429 714.532 838.092 710.462 841.344C702.323 847.845 688.454 856.718 665.862 865.66C620.65 883.555 540.609 901.685 402 901.685C263.39 901.685 183.35 883.555 138.137 865.66C115.546 856.718 101.677 847.845 93.5376 841.344C89.4674 838.092 86.8241 835.429 85.2347 833.639C84.5926 832.915 84.1216 832.333 83.7975 831.912L50.3363 399.857C57.3893 405.697 69.3381 412.592 89.6625 419.368C135.609 434.686 225.523 449.771 402 449.771C578.476 449.771 668.39 434.686 714.337 419.368Z" fill="#E2D7D9" stroke="#5A5A5A" stroke-width="9"/>
<path d="M4.5 117.655V194.26C11.7522 183.022 24.7484 169.269 47.9772 155.675C99.2517 125.67 200.708 96.2482 402 96.2482C603.292 96.2482 704.748 125.67 756.023 155.675C779.252 169.269 792.248 183.022 799.5 194.26V117.654C799.5 117.636 799.498 117.595 799.495 117.532C799.487 117.395 799.47 117.152 799.431 116.811C799.353 116.128 799.189 115.051 798.843 113.635C798.153 110.808 796.733 106.606 793.809 101.471C787.973 91.2259 776.022 77.0583 751.477 62.695C702.252 33.8889 602.708 4.49998 402 4.49998C201.292 4.49998 101.748 33.8889 52.5228 62.695C27.9778 77.0583 16.0273 91.2259 10.1914 101.471C7.26659 106.606 5.84709 110.808 5.15678 113.635C4.8111 115.051 4.64698 116.128 4.56922 116.811C4.53034 117.152 4.51303 117.395 4.50545 117.532C4.50196 117.596 4.50053 117.637 4.5 117.655ZM799.5 117.659L799.5 117.661C799.5 117.667 799.5 117.667 799.5 117.659Z" fill="#F4F4F4" stroke="#5A5A5A" stroke-width="9"/>
<path d="M44.2073 162.966C44.2052 163.002 44.2041 163.027 44.2036 163.041V228.818L759.796 223.386V163.041C759.796 163.027 759.795 163.002 759.793 162.966C759.787 162.861 759.772 162.666 759.739 162.386C759.673 161.826 759.53 160.925 759.227 159.73C758.622 157.346 757.368 153.768 754.764 149.375C749.57 140.609 738.876 128.393 716.803 115.978C672.521 91.0709 582.874 65.6116 402 65.6116C221.126 65.6116 131.479 91.0709 87.1967 115.978C65.1235 128.393 54.4302 140.609 49.2357 149.375C46.6323 153.768 45.3783 157.346 44.7727 159.73C44.4694 160.925 44.3272 161.826 44.2608 162.386C44.2276 162.666 44.2133 162.861 44.2073 162.966Z" fill="#D9D9D9" stroke="#5A5A5A" stroke-width="9"/>
<path d="M4.5 207.716V131.111C11.7522 142.349 24.7484 156.102 47.9772 169.695C99.2517 199.701 200.708 229.123 402 229.123C603.292 229.123 704.748 199.701 756.023 169.695C779.252 156.102 792.248 142.349 799.5 131.111V207.716C799.499 207.734 799.498 207.775 799.495 207.838C799.487 207.976 799.47 208.219 799.431 208.56C799.353 209.243 799.189 210.319 798.843 211.735C798.153 214.563 796.733 218.765 793.809 223.9C787.973 234.145 776.022 248.312 751.477 262.676C702.252 291.482 602.708 320.871 402 320.871C201.292 320.871 101.748 291.482 52.5228 262.676C27.9778 248.312 16.0273 234.145 10.1914 223.9C7.26659 218.765 5.84709 214.563 5.15678 211.735C4.8111 210.319 4.64698 209.243 4.56922 208.56C4.53034 208.219 4.51303 207.976 4.50545 207.838C4.50196 207.775 4.50053 207.734 4.5 207.716ZM4.49978 207.709L4.49988 207.712C4.49967 207.704 4.4997 207.703 4.49978 207.709Z" fill="#F4F4F4" stroke="#5A5A5A" stroke-width="9"/>
</svg>
