<svg width="804" height="1536" viewBox="0 0 804 1536" fill="none" xmlns="http://www.w3.org/2000/svg">
<mask id="path-1-inside-1_18_321" fill="white">
<path d="M39.7036 518.112C39.7036 518.112 39.7036 600 402 600C764.296 600 764.296 518.112 764.296 518.112L679.926 1428.59C679.926 1428.59 679.926 1535.52 402 1535.52C124.074 1535.52 124.074 1428.59 124.074 1428.59L39.7036 518.112Z"/>
</mask>
<path d="M39.7036 518.112C39.7036 518.112 39.7036 600 402 600C764.296 600 764.296 518.112 764.296 518.112L679.926 1428.59C679.926 1428.59 679.926 1535.52 402 1535.52C124.074 1535.52 124.074 1428.59 124.074 1428.59L39.7036 518.112Z" fill="#F4F4F4"/>
<path d="M39.7036 518.112L48.6652 517.281L30.7036 518.112H39.7036ZM764.296 518.112H773.296L755.335 517.281L764.296 518.112ZM679.926 1428.59L670.964 1427.76L670.926 1428.17V1428.59H679.926ZM124.074 1428.59L133.074 1428.59L133.074 1428.17L133.036 1427.76L124.074 1428.59ZM755.335 517.281L670.964 1427.76L688.887 1429.42L773.258 518.942L755.335 517.281ZM133.036 1427.76L48.6652 517.281L30.742 518.942L115.112 1429.42L133.036 1427.76ZM679.926 1428.59C670.926 1428.59 670.926 1428.58 670.926 1428.57C670.926 1428.57 670.926 1428.55 670.926 1428.55C670.926 1428.54 670.926 1428.53 670.926 1428.52C670.926 1428.5 670.927 1428.49 670.927 1428.48C670.927 1428.47 670.927 1428.48 670.925 1428.52C670.922 1428.59 670.914 1428.76 670.892 1429.01C670.847 1429.52 670.749 1430.38 670.534 1431.54C670.104 1433.86 669.205 1437.38 667.325 1441.72C663.591 1450.34 655.861 1462.48 639.697 1474.92C607.213 1499.92 540.061 1526.52 402 1526.52V1544.52C541.865 1544.52 613.675 1517.66 650.674 1489.19C669.25 1474.89 678.89 1460.3 683.842 1448.87C686.304 1443.19 687.576 1438.36 688.232 1434.83C688.559 1433.06 688.733 1431.62 688.824 1430.57C688.87 1430.04 688.896 1429.61 688.909 1429.27C688.916 1429.11 688.921 1428.97 688.923 1428.85C688.924 1428.8 688.925 1428.75 688.925 1428.7C688.925 1428.68 688.926 1428.66 688.926 1428.64C688.926 1428.63 688.926 1428.62 688.926 1428.61C688.926 1428.6 688.926 1428.59 679.926 1428.59ZM402 1526.52C263.939 1526.52 196.786 1499.92 164.303 1474.92C148.139 1462.48 140.409 1450.34 136.675 1441.72C134.795 1437.38 133.896 1433.86 133.466 1431.54C133.25 1430.38 133.152 1429.52 133.108 1429.01C133.086 1428.76 133.078 1428.59 133.075 1428.52C133.073 1428.48 133.073 1428.47 133.073 1428.48C133.073 1428.49 133.073 1428.5 133.074 1428.52C133.074 1428.53 133.074 1428.54 133.074 1428.55C133.074 1428.55 133.074 1428.57 133.074 1428.57C133.074 1428.58 133.074 1428.59 124.074 1428.59C115.074 1428.59 115.074 1428.6 115.074 1428.61C115.074 1428.62 115.074 1428.63 115.074 1428.64C115.074 1428.66 115.074 1428.68 115.075 1428.7C115.075 1428.75 115.076 1428.8 115.077 1428.85C115.079 1428.97 115.083 1429.11 115.09 1429.27C115.104 1429.61 115.13 1430.04 115.175 1430.57C115.267 1431.62 115.44 1433.06 115.768 1434.83C116.423 1438.36 117.695 1443.19 120.158 1448.87C125.11 1460.3 134.75 1474.89 153.326 1489.19C190.324 1517.66 262.135 1544.52 402 1544.52V1526.52ZM39.7036 518.112C30.7036 518.112 30.7036 518.131 30.7037 518.151C30.7037 518.159 30.7039 518.179 30.704 518.193C30.7042 518.222 30.7046 518.252 30.7052 518.283C30.7062 518.346 30.708 518.414 30.7105 518.487C30.7157 518.633 30.7241 518.8 30.7375 518.987C30.7642 519.361 30.8104 519.816 30.8884 520.344C31.0445 521.403 31.3267 522.751 31.8295 524.342C32.8402 527.54 34.712 531.625 38.1208 536.248C44.9321 545.485 57.6487 556.573 81.2834 567.257C128.334 588.527 220.455 609 402 609V591C221.249 591 132.221 570.53 88.6979 550.855C67.0455 541.067 57.1186 531.682 52.6082 525.565C50.3561 522.511 49.3975 520.199 48.9929 518.918C48.7881 518.27 48.7166 517.859 48.6958 517.718C48.6853 517.647 48.6872 517.641 48.6918 517.706C48.6941 517.738 48.6971 517.788 48.6995 517.855C48.7006 517.889 48.7017 517.927 48.7024 517.97C48.7028 517.991 48.7031 518.014 48.7033 518.037C48.7034 518.049 48.7035 518.068 48.7035 518.074C48.7036 518.092 48.7036 518.112 39.7036 518.112ZM402 609C583.545 609 675.665 588.527 722.716 567.257C746.351 556.573 759.068 545.485 765.879 536.248C769.288 531.625 771.16 527.54 772.17 524.342C772.673 522.751 772.955 521.403 773.111 520.344C773.189 519.816 773.236 519.361 773.262 518.987C773.276 518.8 773.284 518.633 773.289 518.487C773.292 518.414 773.294 518.346 773.295 518.283C773.295 518.252 773.296 518.222 773.296 518.193C773.296 518.179 773.296 518.159 773.296 518.151C773.296 518.131 773.296 518.112 764.296 518.112C755.296 518.112 755.296 518.092 755.296 518.074C755.296 518.068 755.296 518.049 755.297 518.037C755.297 518.014 755.297 517.991 755.297 517.97C755.298 517.927 755.299 517.889 755.3 517.855C755.303 517.788 755.306 517.738 755.308 517.706C755.313 517.641 755.315 517.647 755.304 517.718C755.283 517.859 755.212 518.27 755.007 518.918C754.602 520.199 753.644 522.511 751.392 525.565C746.881 531.682 736.954 541.067 715.302 550.855C671.779 570.53 582.751 591 402 591V609Z" fill="#5A5A5A" mask="url(#path-1-inside-1_18_321)"/>
<path d="M714.337 711.367C734.662 704.591 746.61 697.697 753.663 691.856L720.202 1123.91C719.878 1124.33 719.407 1124.92 718.765 1125.64C717.176 1127.43 714.532 1130.09 710.462 1133.34C702.323 1139.85 688.454 1148.72 665.862 1157.66C620.65 1175.56 540.609 1193.69 402 1193.69C263.39 1193.69 183.35 1175.56 138.137 1157.66C115.546 1148.72 101.677 1139.85 93.5376 1133.34C89.4674 1130.09 86.8241 1127.43 85.2347 1125.64C84.5926 1124.92 84.1216 1124.33 83.7975 1123.91L50.3363 691.856C57.3893 697.697 69.3381 704.591 89.6625 711.367C135.609 726.686 225.523 741.771 402 741.771C578.476 741.771 668.39 726.686 714.337 711.367Z" fill="#E2D7D9" stroke="#5A5A5A" stroke-width="9"/>
<path d="M4.5 409.655V486.26C11.7522 475.022 24.7484 461.269 47.9772 447.675C99.2517 417.67 200.708 388.248 402 388.248C603.292 388.248 704.748 417.67 756.023 447.675C779.252 461.269 792.248 475.022 799.5 486.26V409.654C799.5 409.636 799.498 409.595 799.495 409.532C799.487 409.395 799.47 409.152 799.431 408.811C799.353 408.128 799.189 407.051 798.843 405.635C798.153 402.808 796.733 398.606 793.809 393.471C787.973 383.226 776.022 369.058 751.477 354.695C702.252 325.889 602.708 296.5 402 296.5C201.292 296.5 101.748 325.889 52.5228 354.695C27.9778 369.058 16.0273 383.226 10.1914 393.471C7.26659 398.606 5.84709 402.808 5.15678 405.635C4.8111 407.051 4.64698 408.128 4.56922 408.811C4.53034 409.152 4.51303 409.395 4.50545 409.532C4.50196 409.596 4.50053 409.637 4.5 409.655ZM799.5 409.659L799.5 409.661C799.5 409.667 799.5 409.667 799.5 409.659Z" fill="#F4F4F4" stroke="#5A5A5A" stroke-width="9"/>
<path d="M44.2073 454.966C44.2052 455.002 44.2041 455.027 44.2036 455.041V520.818L759.796 515.386V455.041C759.796 455.027 759.795 455.002 759.793 454.966C759.787 454.861 759.772 454.666 759.739 454.386C759.673 453.826 759.53 452.925 759.227 451.73C758.622 449.346 757.368 445.768 754.764 441.374C749.57 432.609 738.876 420.393 716.803 407.978C672.521 383.071 582.874 357.612 402 357.612C221.126 357.612 131.479 383.071 87.1967 407.978C65.1235 420.393 54.4302 432.609 49.2357 441.374C46.6323 445.768 45.3783 449.346 44.7727 451.73C44.4694 452.925 44.3272 453.826 44.2608 454.386C44.2276 454.666 44.2133 454.861 44.2073 454.966Z" fill="#D9D9D9" stroke="#5A5A5A" stroke-width="9"/>
<path d="M640 510H603L688 0H726L640 510Z" fill="#242424"/>
<path d="M4.5 499.716V423.111C11.7522 434.349 24.7484 448.102 47.9772 461.695C99.2517 491.701 200.708 521.123 402 521.123C603.292 521.123 704.748 491.701 756.023 461.695C779.252 448.102 792.248 434.349 799.5 423.111V499.716C799.499 499.734 799.498 499.775 799.495 499.838C799.487 499.976 799.47 500.219 799.431 500.56C799.353 501.243 799.189 502.32 798.843 503.735C798.153 506.563 796.733 510.765 793.809 515.9C787.973 526.145 776.022 540.313 751.477 554.676C702.252 583.482 602.708 612.871 402 612.871C201.292 612.871 101.748 583.482 52.5228 554.676C27.9778 540.313 16.0273 526.145 10.1914 515.9C7.26659 510.765 5.84709 506.563 5.15678 503.735C4.8111 502.32 4.64698 501.243 4.56922 500.56C4.53034 500.219 4.51303 499.976 4.50545 499.838C4.50196 499.775 4.50053 499.734 4.5 499.716ZM4.49978 499.71L4.49988 499.712C4.49967 499.704 4.4997 499.703 4.49978 499.71Z" fill="#F4F4F4" stroke="#5A5A5A" stroke-width="9"/>
</svg>
