<svg width="804" height="1311" viewBox="0 0 804 1311" fill="none" xmlns="http://www.w3.org/2000/svg">
<mask id="path-1-inside-1_4_138" fill="white">
<path d="M39.7036 293.037C39.7036 293.037 39.7036 374.926 402 374.926C764.296 374.926 764.296 293.037 764.296 293.037L679.926 1203.52C679.926 1203.52 679.926 1310.44 402 1310.44C124.074 1310.44 124.074 1203.52 124.074 1203.52L39.7036 293.037Z"/>
</mask>
<path d="M39.7036 293.037C39.7036 293.037 39.7036 374.926 402 374.926C764.296 374.926 764.296 293.037 764.296 293.037L679.926 1203.52C679.926 1203.52 679.926 1310.44 402 1310.44C124.074 1310.44 124.074 1203.52 124.074 1203.52L39.7036 293.037Z" fill="#F4F4F4"/>
<path d="M39.7036 293.037L48.6652 292.207L30.7036 293.037H39.7036ZM764.296 293.037H773.296L755.335 292.207L764.296 293.037ZM679.926 1203.52L670.964 1202.68L670.926 1203.1V1203.52H679.926ZM124.074 1203.52H133.074V1203.1L133.036 1202.68L124.074 1203.52ZM755.335 292.207L670.964 1202.68L688.887 1204.35L773.258 293.868L755.335 292.207ZM133.036 1202.68L48.6652 292.207L30.742 293.868L115.112 1204.35L133.036 1202.68ZM679.926 1203.52C670.926 1203.52 670.926 1203.5 670.926 1203.49C670.926 1203.49 670.926 1203.48 670.926 1203.47C670.926 1203.46 670.926 1203.45 670.926 1203.44C670.926 1203.42 670.927 1203.41 670.927 1203.41C670.927 1203.4 670.927 1203.41 670.925 1203.45C670.922 1203.52 670.914 1203.68 670.892 1203.94C670.847 1204.45 670.75 1205.31 670.534 1206.47C670.104 1208.78 669.205 1212.31 667.325 1216.65C663.591 1225.26 655.861 1237.41 639.697 1249.85C607.213 1274.84 540.061 1301.44 402 1301.44V1319.44C541.865 1319.44 613.675 1292.58 650.674 1264.11C669.25 1249.82 678.89 1235.23 683.842 1223.8C686.304 1218.12 687.576 1213.28 688.232 1209.75C688.559 1207.99 688.733 1206.55 688.824 1205.49C688.87 1204.96 688.896 1204.53 688.909 1204.2C688.916 1204.03 688.921 1203.89 688.923 1203.78C688.924 1203.72 688.925 1203.67 688.925 1203.63C688.925 1203.6 688.926 1203.58 688.926 1203.57C688.926 1203.56 688.926 1203.54 688.926 1203.54C688.926 1203.53 688.926 1203.52 679.926 1203.52ZM402 1301.44C263.939 1301.44 196.786 1274.84 164.303 1249.85C148.139 1237.41 140.409 1225.26 136.675 1216.65C134.795 1212.31 133.896 1208.78 133.466 1206.47C133.25 1205.31 133.152 1204.45 133.108 1203.94C133.086 1203.68 133.078 1203.52 133.075 1203.45C133.073 1203.41 133.073 1203.4 133.073 1203.41C133.073 1203.41 133.073 1203.42 133.074 1203.44C133.074 1203.45 133.074 1203.46 133.074 1203.47C133.074 1203.48 133.074 1203.49 133.074 1203.49C133.074 1203.5 133.074 1203.52 124.074 1203.52C115.074 1203.52 115.074 1203.53 115.074 1203.54C115.074 1203.54 115.074 1203.56 115.074 1203.57C115.074 1203.58 115.074 1203.6 115.075 1203.63C115.075 1203.67 115.076 1203.72 115.077 1203.78C115.079 1203.89 115.083 1204.03 115.09 1204.2C115.104 1204.53 115.13 1204.96 115.175 1205.49C115.267 1206.55 115.44 1207.99 115.768 1209.75C116.423 1213.28 117.695 1218.12 120.158 1223.8C125.11 1235.23 134.75 1249.82 153.326 1264.11C190.324 1292.58 262.135 1319.44 402 1319.44V1301.44ZM39.7036 293.037C30.7036 293.037 30.7036 293.057 30.7037 293.077C30.7037 293.084 30.7039 293.105 30.704 293.119C30.7042 293.148 30.7046 293.177 30.7052 293.209C30.7062 293.271 30.708 293.339 30.7105 293.412C30.7157 293.558 30.7241 293.725 30.7375 293.913C30.7642 294.287 30.8104 294.741 30.8884 295.27C31.0445 296.328 31.3267 297.677 31.8295 299.268C32.8402 302.466 34.712 306.551 38.1208 311.174C44.9321 320.411 57.6487 331.498 81.2834 342.183C128.334 363.452 220.455 383.926 402 383.926V365.926C221.249 365.926 132.221 345.455 88.6979 325.781C67.0455 315.993 57.1186 306.608 52.6082 300.491C50.3561 297.437 49.3975 295.124 48.9929 293.844C48.7881 293.196 48.7166 292.785 48.6958 292.644C48.6853 292.572 48.6872 292.567 48.6918 292.631C48.6941 292.664 48.6971 292.713 48.6995 292.781C48.7006 292.814 48.7017 292.853 48.7024 292.895C48.7028 292.917 48.7031 292.939 48.7033 292.963C48.7034 292.975 48.7035 292.993 48.7035 292.999C48.7036 293.018 48.7036 293.037 39.7036 293.037ZM402 383.926C583.545 383.926 675.665 363.452 722.716 342.183C746.351 331.498 759.068 320.411 765.879 311.174C769.288 306.551 771.16 302.466 772.17 299.268C772.673 297.677 772.955 296.328 773.111 295.27C773.189 294.741 773.236 294.287 773.262 293.913C773.276 293.725 773.284 293.558 773.289 293.412C773.292 293.339 773.294 293.271 773.295 293.209C773.295 293.177 773.296 293.148 773.296 293.119C773.296 293.105 773.296 293.084 773.296 293.077C773.296 293.057 773.296 293.037 764.296 293.037C755.296 293.037 755.296 293.018 755.296 292.999C755.296 292.993 755.296 292.975 755.297 292.963C755.297 292.939 755.297 292.917 755.297 292.895C755.298 292.853 755.299 292.814 755.3 292.781C755.303 292.713 755.306 292.664 755.308 292.631C755.313 292.567 755.315 292.572 755.304 292.644C755.283 292.785 755.212 293.196 755.007 293.844C754.602 295.124 753.644 297.437 751.392 300.491C746.881 306.608 736.954 315.993 715.302 325.781C671.779 345.455 582.751 365.926 402 365.926V383.926Z" fill="#5A5A5A" mask="url(#path-1-inside-1_4_138)"/>
<path d="M714.337 486.293C734.662 479.517 746.61 472.623 753.663 466.782L720.202 898.837C719.878 899.259 719.407 899.841 718.765 900.565C717.176 902.355 714.532 905.018 710.462 908.27C702.323 914.771 688.454 923.644 665.862 932.586C620.65 950.481 540.609 968.611 402 968.611C263.39 968.611 183.35 950.481 138.137 932.586C115.546 923.644 101.677 914.771 93.5376 908.27C89.4674 905.018 86.8241 902.355 85.2347 900.565C84.5926 899.841 84.1216 899.259 83.7975 898.837L50.3363 466.782C57.3893 472.623 69.3381 479.517 89.6625 486.293C135.609 501.612 225.523 516.697 402 516.697C578.476 516.697 668.39 501.612 714.337 486.293Z" fill="#E2D7D9" stroke="#5A5A5A" stroke-width="9"/>
<path d="M799.5 183.852C799.5 199.624 789.539 215.43 769.688 230.494C749.909 245.505 721.004 259.216 684.882 270.81C612.688 293.983 512.674 308.389 402 308.389C291.326 308.389 191.312 293.983 119.118 270.81C82.9963 259.216 54.0909 245.505 34.3115 230.494C14.4608 215.43 4.5 199.624 4.5 183.852C4.5 168.08 14.4608 152.274 34.3115 137.21C54.0909 122.199 82.9963 108.488 119.118 96.8937C191.312 73.7206 291.326 59.3149 402 59.3149C512.674 59.3149 612.688 73.7206 684.882 96.8937C721.004 108.488 749.909 122.199 769.688 137.21C789.539 152.274 799.5 168.08 799.5 183.852Z" fill="#F4F4F4" stroke="#5A5A5A" stroke-width="9"/>
<path d="M4.5 274.641V198.036C11.7522 209.274 24.7484 223.028 47.9772 236.621C99.2517 266.626 200.708 296.048 402 296.048C603.292 296.048 704.748 266.626 756.023 236.621C779.252 223.028 792.248 209.275 799.5 198.037V274.642C799.5 274.66 799.498 274.701 799.495 274.764C799.487 274.901 799.47 275.144 799.431 275.486C799.353 276.168 799.189 277.245 798.843 278.661C798.153 281.489 796.733 285.69 793.809 290.825C787.973 301.07 776.022 315.238 751.477 329.601C702.252 358.407 602.708 387.796 402 387.796C201.292 387.796 101.748 358.407 52.5228 329.601C27.9778 315.238 16.0273 301.07 10.1914 290.825C7.26659 285.69 5.84709 281.489 5.15678 278.661C4.8111 277.245 4.64698 276.168 4.56922 275.486C4.53034 275.144 4.51303 274.901 4.50545 274.764C4.50196 274.7 4.50053 274.66 4.5 274.641ZM799.5 274.637L799.5 274.635C799.5 274.629 799.5 274.63 799.5 274.637Z" fill="#F4F4F4" stroke="#5A5A5A" stroke-width="9"/>
<path d="M710.166 99.4815C710.166 102.811 708.668 106.457 705.004 110.436C701.317 114.44 695.663 118.518 688.003 122.543C672.69 130.588 650.237 137.97 622.112 144.219C565.937 156.703 488.113 164.463 402 164.463C315.887 164.463 238.063 156.703 181.887 144.219C153.763 137.97 131.31 130.588 115.997 122.543C108.336 118.518 102.682 114.44 98.9956 110.436C95.3311 106.457 93.833 102.811 93.833 99.4815C93.833 96.1518 95.3311 92.5063 98.9956 88.5268C102.682 84.5231 108.336 80.4448 115.997 76.4198C131.31 68.3747 153.763 60.9933 181.887 54.7435C238.063 42.26 315.887 34.5 402 34.5C488.113 34.5 565.937 42.26 622.112 54.7435C650.237 60.9933 672.69 68.3747 688.003 76.4198C695.663 80.4448 701.317 84.5231 705.004 88.5268C708.668 92.5063 710.166 96.1518 710.166 99.4815Z" fill="#F4F4F4" stroke="#5A5A5A" stroke-width="9"/>
<path d="M581.5 77C581.5 82.5431 577.971 87.8992 569.279 92.9529C560.607 97.9943 547.707 102.143 531.237 105.39C498.378 111.869 452.729 114.5 402 114.5C351.271 114.5 305.622 111.869 272.763 105.39C256.293 102.143 243.393 97.9943 234.721 92.9529C226.029 87.8992 222.5 82.5431 222.5 77C222.5 71.0163 226.525 63.3869 235.531 54.977C244.388 46.7061 257.413 38.3076 273.773 30.7832C306.466 15.7462 351.823 4.5 402 4.5C452.177 4.5 497.534 15.7462 530.227 30.7832C546.587 38.3076 559.612 46.7061 568.469 54.977C577.475 63.3869 581.5 71.0163 581.5 77Z" fill="#C29B8A" stroke="#5A5A5A" stroke-width="9"/>
<path d="M301.518 65.0638C302.269 70.4047 293.741 72.5581 283.059 74.0593C272.377 75.5606 263.587 75.8411 262.836 70.5002C262.085 65.1593 269.659 56.2195 280.341 54.7183C291.023 53.2171 300.767 59.7229 301.518 65.0638Z" fill="#5B473F"/>
<path d="M322.733 42.6669C322.396 46.5182 316.093 46.6472 308.39 45.9733C300.688 45.2994 294.502 44.0778 294.839 40.2266C295.176 36.3753 301.908 31.3527 309.61 32.0266C317.313 32.7005 323.07 38.8156 322.733 42.6669Z" fill="#5B473F"/>
<path d="M347.136 75.4736C347.406 79.3302 341.201 80.4436 333.487 80.983C325.774 81.5223 319.474 81.2833 319.205 77.4268C318.935 73.5702 324.798 67.5564 332.511 67.0171C340.224 66.4777 346.867 71.617 347.136 75.4736Z" fill="#5B473F"/>
<path d="M375.206 25.4836C375.744 29.312 369.631 30.8556 361.974 31.9317C354.318 33.0078 348.016 33.2088 347.478 29.3805C346.94 25.5521 352.369 19.144 360.026 18.0679C367.683 16.9918 374.668 21.6553 375.206 25.4836Z" fill="#5B473F"/>
<path d="M382.942 58.0918C382.51 63.0353 374.377 63.1972 364.439 62.3277C354.5 61.4582 346.519 59.8865 346.952 54.943C347.384 49.9995 356.066 43.5562 366.005 44.4257C375.943 45.2952 383.375 53.1483 382.942 58.0918Z" fill="#5B473F"/>
<path d="M421.206 81.4836C421.744 85.312 415.631 86.8556 407.974 87.9317C400.318 89.0078 394.016 89.2088 393.478 85.3805C392.94 81.5521 398.369 75.144 406.026 74.0679C413.683 72.9918 420.668 77.6553 421.206 81.4836Z" fill="#5B473F"/>
<path d="M420.044 31.0199C420.207 35.6885 413.972 36.7258 406.244 36.9956C398.517 37.2655 392.224 36.6657 392.061 31.9971C391.898 27.3285 397.927 20.3591 405.654 20.0893C413.381 19.8194 419.881 26.3513 420.044 31.0199Z" fill="#5B473F"/>
<path d="M426.795 54.4268C426.525 58.2834 420.225 58.5224 412.512 57.983C404.799 57.4437 398.593 56.3302 398.863 52.4736C399.133 48.6171 405.775 43.4778 413.488 44.0171C421.202 44.5565 427.064 50.5702 426.795 54.4268Z" fill="#5B473F"/>
<path d="M464.795 29.4268C464.525 33.2834 458.225 33.5224 450.512 32.983C442.799 32.4437 436.593 31.3302 436.863 27.4736C437.133 23.6171 443.775 18.4778 451.488 19.0171C459.202 19.5565 465.064 25.5702 464.795 29.4268Z" fill="#5B473F"/>
<path d="M486.046 54.0813C486.207 58.6977 478.479 59.778 468.91 60.1121C459.341 60.4463 451.556 59.9077 451.394 55.2914C451.233 50.6751 458.757 43.7291 468.326 43.395C477.895 43.0608 485.885 49.465 486.046 54.0813Z" fill="#5B473F"/>
<path d="M472.206 76.4836C472.744 80.312 466.631 81.8556 458.974 82.9317C451.318 84.0078 445.016 84.2088 444.478 80.3805C443.94 76.5521 449.369 70.144 457.026 69.0679C464.683 67.9918 471.668 72.6553 472.206 76.4836Z" fill="#5B473F"/>
<path d="M525.206 44.4836C525.744 48.312 519.631 49.8556 511.974 50.9317C504.318 52.0078 498.016 52.2088 497.478 48.3805C496.94 44.5521 502.369 38.144 510.026 37.0679C517.683 35.9918 524.668 40.6553 525.206 44.4836Z" fill="#5B473F"/>
<path d="M526.451 78.5507C526.067 84.038 519.314 84.5326 511.066 83.9559C502.819 83.3791 496.2 81.9495 496.584 76.4622C496.968 70.975 504.208 63.5081 512.456 64.0848C520.704 64.6615 526.835 73.0635 526.451 78.5507Z" fill="#5B473F"/>
<path d="M559.077 63.9661C559.212 67.8298 552.972 68.726 545.244 68.9958C537.517 69.2656 531.229 68.8069 531.094 64.9433C530.959 61.0797 537.028 55.2742 544.756 55.0043C552.483 54.7345 558.942 60.1025 559.077 63.9661Z" fill="#5B473F"/>
<path d="M93.833 166.39V106.767C99.8859 113.449 109.922 121.18 126.547 128.772C166.518 147.025 245.465 164.873 402 164.873C558.534 164.873 637.481 147.025 677.452 128.772C694.078 121.18 704.114 113.449 710.166 106.767V166.39C710.163 166.431 710.155 166.512 710.137 166.633C710.094 166.929 709.993 167.464 709.761 168.206C709.299 169.682 708.303 172.029 706.146 174.983C701.831 180.894 692.756 189.388 673.714 198.083C635.518 215.526 558.132 233.372 402 233.372C245.868 233.372 168.481 215.526 130.286 198.083C111.244 189.388 102.168 180.894 97.8531 174.983C95.6968 172.029 94.7003 169.682 94.2384 168.206C94.0063 167.464 93.9053 166.929 93.8621 166.633C93.8445 166.513 93.8364 166.431 93.833 166.39Z" fill="#F4F4F4" stroke="#5A5A5A" stroke-width="9"/>
</svg>
