<svg width="804" height="1281" viewBox="0 0 804 1281" fill="none" xmlns="http://www.w3.org/2000/svg">
<mask id="path-1-inside-1_14_262" fill="white">
<path d="M39.7036 263.037C39.7036 263.037 39.7036 344.926 402 344.926C764.296 344.926 764.296 263.037 764.296 263.037L679.926 1173.52C679.926 1173.52 679.926 1280.44 402 1280.44C124.074 1280.44 124.074 1173.52 124.074 1173.52L39.7036 263.037Z"/>
</mask>
<path d="M39.7036 263.037C39.7036 263.037 39.7036 344.926 402 344.926C764.296 344.926 764.296 263.037 764.296 263.037L679.926 1173.52C679.926 1173.52 679.926 1280.44 402 1280.44C124.074 1280.44 124.074 1173.52 124.074 1173.52L39.7036 263.037Z" fill="#F4F4F4"/>
<path d="M39.7036 263.037L48.6652 262.207L30.7036 263.037H39.7036ZM764.296 263.037H773.296L755.335 262.207L764.296 263.037ZM679.926 1173.52L670.964 1172.68L670.926 1173.1V1173.52H679.926ZM124.074 1173.52H133.074V1173.1L133.036 1172.68L124.074 1173.52ZM755.335 262.207L670.964 1172.68L688.887 1174.35L773.258 263.868L755.335 262.207ZM133.036 1172.68L48.6652 262.207L30.742 263.868L115.112 1174.35L133.036 1172.68ZM679.926 1173.52C670.926 1173.52 670.926 1173.5 670.926 1173.49C670.926 1173.49 670.926 1173.48 670.926 1173.47C670.926 1173.46 670.926 1173.45 670.926 1173.44C670.926 1173.42 670.927 1173.41 670.927 1173.41C670.927 1173.4 670.927 1173.41 670.925 1173.45C670.922 1173.52 670.914 1173.68 670.892 1173.94C670.847 1174.45 670.75 1175.31 670.534 1176.47C670.104 1178.78 669.205 1182.31 667.325 1186.65C663.591 1195.26 655.861 1207.41 639.697 1219.85C607.213 1244.84 540.061 1271.44 402 1271.44V1289.44C541.865 1289.44 613.675 1262.58 650.674 1234.11C669.25 1219.82 678.89 1205.23 683.842 1193.8C686.304 1188.12 687.576 1183.28 688.232 1179.75C688.559 1177.99 688.733 1176.55 688.824 1175.49C688.87 1174.96 688.896 1174.53 688.909 1174.2C688.916 1174.03 688.921 1173.89 688.923 1173.78C688.924 1173.72 688.925 1173.67 688.925 1173.63C688.925 1173.6 688.926 1173.58 688.926 1173.57C688.926 1173.56 688.926 1173.54 688.926 1173.54C688.926 1173.53 688.926 1173.52 679.926 1173.52ZM402 1271.44C263.939 1271.44 196.786 1244.84 164.303 1219.85C148.139 1207.41 140.409 1195.26 136.675 1186.65C134.795 1182.31 133.896 1178.78 133.466 1176.47C133.25 1175.31 133.152 1174.45 133.108 1173.94C133.086 1173.68 133.078 1173.52 133.075 1173.45C133.073 1173.41 133.073 1173.4 133.073 1173.41C133.073 1173.41 133.073 1173.42 133.074 1173.44C133.074 1173.45 133.074 1173.46 133.074 1173.47C133.074 1173.48 133.074 1173.49 133.074 1173.49C133.074 1173.5 133.074 1173.52 124.074 1173.52C115.074 1173.52 115.074 1173.53 115.074 1173.54C115.074 1173.54 115.074 1173.56 115.074 1173.57C115.074 1173.58 115.074 1173.6 115.075 1173.63C115.075 1173.67 115.076 1173.72 115.077 1173.78C115.079 1173.89 115.083 1174.03 115.09 1174.2C115.104 1174.53 115.13 1174.96 115.175 1175.49C115.267 1176.55 115.44 1177.99 115.768 1179.75C116.423 1183.28 117.695 1188.12 120.158 1193.8C125.11 1205.23 134.75 1219.82 153.326 1234.11C190.324 1262.58 262.135 1289.44 402 1289.44V1271.44ZM39.7036 263.037C30.7036 263.037 30.7036 263.057 30.7037 263.077C30.7037 263.084 30.7039 263.105 30.704 263.119C30.7042 263.148 30.7046 263.177 30.7052 263.209C30.7062 263.271 30.708 263.339 30.7105 263.412C30.7157 263.558 30.7241 263.725 30.7375 263.913C30.7642 264.287 30.8104 264.741 30.8884 265.27C31.0445 266.328 31.3267 267.677 31.8295 269.268C32.8402 272.466 34.712 276.551 38.1208 281.174C44.9321 290.411 57.6487 301.498 81.2834 312.183C128.334 333.452 220.455 353.926 402 353.926V335.926C221.249 335.926 132.221 315.455 88.6979 295.781C67.0455 285.993 57.1186 276.608 52.6082 270.491C50.3561 267.437 49.3975 265.124 48.9929 263.844C48.7881 263.196 48.7166 262.785 48.6958 262.644C48.6853 262.572 48.6872 262.567 48.6918 262.631C48.6941 262.664 48.6971 262.713 48.6995 262.781C48.7006 262.814 48.7017 262.853 48.7024 262.895C48.7028 262.917 48.7031 262.939 48.7033 262.963C48.7034 262.975 48.7035 262.993 48.7035 262.999C48.7036 263.018 48.7036 263.037 39.7036 263.037ZM402 353.926C583.545 353.926 675.665 333.452 722.716 312.183C746.351 301.498 759.068 290.411 765.879 281.174C769.288 276.551 771.16 272.466 772.17 269.268C772.673 267.677 772.955 266.328 773.111 265.27C773.189 264.741 773.236 264.287 773.262 263.913C773.276 263.725 773.284 263.558 773.289 263.412C773.292 263.339 773.294 263.271 773.295 263.209C773.295 263.177 773.296 263.148 773.296 263.119C773.296 263.105 773.296 263.084 773.296 263.077C773.296 263.057 773.296 263.037 764.296 263.037C755.296 263.037 755.296 263.018 755.296 262.999C755.296 262.993 755.296 262.975 755.297 262.963C755.297 262.939 755.297 262.917 755.297 262.895C755.298 262.853 755.299 262.814 755.3 262.781C755.303 262.713 755.306 262.664 755.308 262.631C755.313 262.567 755.315 262.572 755.304 262.644C755.283 262.785 755.212 263.196 755.007 263.844C754.602 265.124 753.644 267.437 751.392 270.491C746.881 276.608 736.954 285.993 715.302 295.781C671.779 315.455 582.751 335.926 402 335.926V353.926Z" fill="#5A5A5A" mask="url(#path-1-inside-1_14_262)"/>
<path d="M714.338 456.293C734.662 449.517 746.611 442.622 753.664 436.782L720.203 868.837C719.879 869.259 719.408 869.841 718.766 870.564C717.176 872.355 714.533 875.018 710.463 878.269C702.324 884.771 688.455 893.644 665.863 902.586C620.65 920.481 540.61 938.611 402 938.611C263.391 938.611 183.35 920.481 138.138 902.586C115.546 893.644 101.677 884.771 93.5381 878.269C89.4679 875.018 86.8246 872.355 85.2352 870.564C84.5931 869.841 84.1221 869.259 83.798 868.837L50.3368 436.782C57.3898 442.622 69.3386 449.517 89.663 456.293C135.61 471.612 225.524 486.697 402 486.697C578.477 486.697 668.391 471.612 714.338 456.293Z" fill="#E2D7D9" stroke="#5A5A5A" stroke-width="9"/>
<path d="M4.5 148.654V225.259C11.7522 214.021 24.7484 200.268 47.9772 186.675C99.2517 156.67 200.708 127.248 402 127.248C603.292 127.248 704.748 156.67 756.023 186.675C779.252 200.268 792.248 214.021 799.5 225.259V148.654C799.5 148.636 799.498 148.595 799.495 148.532C799.487 148.395 799.47 148.152 799.431 147.81C799.353 147.128 799.189 146.051 798.843 144.635C798.153 141.807 796.733 137.605 793.809 132.471C787.973 122.226 776.022 108.058 751.477 93.6947C702.252 64.8887 602.708 35.4997 402 35.4997C201.292 35.4997 101.748 64.8887 52.5228 93.6947C27.9778 108.058 16.0273 122.226 10.1914 132.471C7.26659 137.605 5.84709 141.807 5.15678 144.635C4.8111 146.051 4.64698 147.128 4.56922 147.81C4.53034 148.152 4.51303 148.395 4.50545 148.532C4.50196 148.595 4.50053 148.636 4.5 148.654ZM799.5 148.659L799.5 148.661C799.5 148.667 799.5 148.666 799.5 148.659Z" fill="#F4F4F4" stroke="#5A5A5A" stroke-width="9"/>
<path d="M44.2073 193.966C44.2052 194.002 44.2041 194.027 44.2036 194.041V259.817L759.796 254.386V194.041C759.796 194.027 759.795 194.001 759.793 193.966C759.787 193.861 759.772 193.666 759.739 193.386C759.673 192.825 759.53 191.924 759.227 190.73C758.622 188.346 757.368 184.767 754.764 180.374C749.57 171.609 738.876 159.393 716.803 146.978C672.521 122.071 582.874 96.6113 402 96.6113C221.126 96.6113 131.479 122.071 87.1967 146.978C65.1235 159.393 54.4302 171.609 49.2357 180.374C46.6323 184.767 45.3783 188.346 44.7727 190.73C44.4694 191.924 44.3272 192.825 44.2608 193.386C44.2276 193.666 44.2133 193.861 44.2073 193.966Z" fill="#D9D9D9" stroke="#5A5A5A" stroke-width="9"/>
<path d="M4.5 244.641V168.036C11.7522 179.274 24.7484 193.028 47.9772 206.621C99.2517 236.626 200.708 266.048 402 266.048C603.292 266.048 704.748 236.626 756.023 206.621C779.252 193.028 792.248 179.275 799.5 168.037V244.642C799.5 244.66 799.498 244.701 799.495 244.764C799.487 244.901 799.47 245.144 799.431 245.486C799.353 246.168 799.189 247.245 798.843 248.661C798.153 251.489 796.733 255.69 793.809 260.825C787.973 271.07 776.022 285.238 751.477 299.601C702.252 328.407 602.708 357.796 402 357.796C201.292 357.796 101.748 328.407 52.5228 299.601C27.9778 285.238 16.0273 271.07 10.1914 260.825C7.26659 255.69 5.84709 251.489 5.15678 248.661C4.8111 247.245 4.64698 246.168 4.56922 245.486C4.53034 245.144 4.51303 244.901 4.50545 244.764C4.50196 244.7 4.50053 244.66 4.5 244.641ZM799.5 244.637L799.5 244.635C799.5 244.629 799.5 244.63 799.5 244.637Z" fill="#F4F4F4" stroke="#5A5A5A" stroke-width="9"/>
<g opacity="0.5">
<path d="M804 153.852C804 225.117 624.018 282.889 402 282.889C179.982 282.889 0 225.117 0 153.852C0 82.5868 179.982 24.8149 402 24.8149C624.018 24.8149 804 82.5868 804 153.852Z" fill="#F4F4F4"/>
<path d="M804 153.852C804 225.117 624.018 282.889 402 282.889C179.982 282.889 0 225.117 0 153.852C0 82.5868 179.982 24.8149 402 24.8149C624.018 24.8149 804 82.5868 804 153.852Z" stroke="#5A5A5A"/>
</g>
<path opacity="0.5" d="M710.166 69.4815C710.166 72.8111 708.668 76.4567 705.004 80.4362C701.317 84.4398 695.663 88.5182 688.003 92.5432C672.69 100.588 650.237 107.97 622.112 114.219C565.937 126.703 488.113 134.463 402 134.463C315.887 134.463 238.063 126.703 181.887 114.219C153.763 107.97 131.31 100.588 115.997 92.5432C108.336 88.5182 102.682 84.4398 98.9956 80.4362C95.3311 76.4567 93.833 72.8111 93.833 69.4815C93.833 66.1518 95.3311 62.5063 98.9956 58.5268C102.682 54.5231 108.336 50.4448 115.997 46.4198C131.31 38.3747 153.763 30.9933 181.887 24.7435C238.063 12.26 315.887 4.5 402 4.5C488.113 4.5 565.937 12.26 622.112 24.7435C650.237 30.9933 672.69 38.3747 688.003 46.4198C695.663 50.4448 701.317 54.5231 705.004 58.5268C708.668 62.5063 710.166 66.1518 710.166 69.4815Z" fill="#F4F4F4" stroke="#5A5A5A" stroke-width="9"/>
<path opacity="0.5" d="M93.833 136.39V76.7665C99.8859 83.4483 109.922 91.1795 126.547 98.7715C166.518 117.025 245.465 134.873 402 134.873C558.534 134.873 637.481 117.025 677.452 98.7715C694.078 91.1795 704.114 83.4483 710.166 76.7664V136.39C710.163 136.431 710.155 136.512 710.137 136.633C710.094 136.929 709.993 137.463 709.761 138.205C709.299 139.682 708.303 142.029 706.146 144.983C701.831 150.894 692.756 159.388 673.714 168.083C635.518 185.525 558.132 203.372 402 203.372C245.868 203.372 168.481 185.525 130.286 168.083C111.244 159.388 102.168 150.894 97.8531 144.983C95.6968 142.029 94.7003 139.682 94.2384 138.205C94.0063 137.463 93.9053 136.929 93.8621 136.633C93.8445 136.512 93.8364 136.431 93.833 136.39Z" fill="#F4F4F4" stroke="#5A5A5A" stroke-width="9"/>
</svg>
