<svg width="804" height="1244" viewBox="0 0 804 1244" fill="none" xmlns="http://www.w3.org/2000/svg">
<mask id="path-1-inside-1_22_778" fill="white">
<path d="M39.7041 226.112C39.7041 226.112 39.7041 308 402 308C764.297 308 764.297 226.112 764.297 226.112L679.926 1136.59C679.926 1136.59 679.926 1243.52 402 1243.52C124.074 1243.52 124.074 1136.59 124.074 1136.59L39.7041 226.112Z"/>
</mask>
<path d="M39.7041 226.112C39.7041 226.112 39.7041 308 402 308C764.297 308 764.297 226.112 764.297 226.112L679.926 1136.59C679.926 1136.59 679.926 1243.52 402 1243.52C124.074 1243.52 124.074 1136.59 124.074 1136.59L39.7041 226.112Z" fill="#F4F4F4"/>
<path d="M39.7041 226.112L48.6657 225.281L30.7041 226.112H39.7041ZM764.297 226.112H773.297L755.335 225.281L764.297 226.112ZM679.926 1136.59L670.965 1135.76L670.926 1136.17V1136.59H679.926ZM124.074 1136.59L133.074 1136.59L133.074 1136.17L133.036 1135.76L124.074 1136.59ZM755.335 225.281L670.965 1135.76L688.888 1137.42L773.258 226.942L755.335 225.281ZM133.036 1135.76L48.6657 225.281L30.7425 226.942L115.113 1137.42L133.036 1135.76ZM679.926 1136.59C670.926 1136.59 670.926 1136.58 670.926 1136.57C670.926 1136.57 670.926 1136.55 670.926 1136.55C670.926 1136.54 670.927 1136.53 670.927 1136.52C670.927 1136.5 670.927 1136.49 670.927 1136.48C670.927 1136.47 670.927 1136.48 670.926 1136.52C670.923 1136.59 670.914 1136.76 670.892 1137.01C670.848 1137.52 670.75 1138.38 670.535 1139.54C670.105 1141.86 669.205 1145.38 667.325 1149.72C663.592 1158.34 655.862 1170.48 639.697 1182.92C607.214 1207.92 540.061 1234.52 402 1234.52V1252.52C541.866 1252.52 613.676 1225.66 650.674 1197.19C669.25 1182.89 678.891 1168.3 683.842 1156.87C686.305 1151.19 687.577 1146.36 688.232 1142.83C688.56 1141.06 688.733 1139.62 688.825 1138.57C688.871 1138.04 688.896 1137.61 688.91 1137.27C688.917 1137.11 688.921 1136.97 688.923 1136.85C688.925 1136.8 688.925 1136.75 688.926 1136.7C688.926 1136.68 688.926 1136.66 688.926 1136.64C688.926 1136.63 688.926 1136.62 688.926 1136.61C688.926 1136.6 688.926 1136.59 679.926 1136.59ZM402 1234.52C263.94 1234.52 196.787 1207.92 164.304 1182.92C148.139 1170.48 140.409 1158.34 136.675 1149.72C134.796 1145.38 133.896 1141.86 133.466 1139.54C133.251 1138.38 133.153 1137.52 133.109 1137.01C133.087 1136.76 133.078 1136.59 133.075 1136.52C133.074 1136.48 133.073 1136.47 133.074 1136.48C133.074 1136.49 133.074 1136.5 133.074 1136.52C133.074 1136.53 133.074 1136.54 133.074 1136.55C133.074 1136.55 133.074 1136.57 133.074 1136.57C133.074 1136.58 133.074 1136.59 124.074 1136.59C115.074 1136.59 115.074 1136.6 115.075 1136.61C115.075 1136.62 115.075 1136.63 115.075 1136.64C115.075 1136.66 115.075 1136.68 115.075 1136.7C115.076 1136.75 115.076 1136.8 115.077 1136.85C115.08 1136.97 115.084 1137.11 115.091 1137.27C115.105 1137.61 115.13 1138.04 115.176 1138.57C115.268 1139.62 115.441 1141.06 115.769 1142.83C116.424 1146.36 117.696 1151.19 120.159 1156.87C125.11 1168.3 134.75 1182.89 153.327 1197.19C190.325 1225.66 262.135 1252.52 402 1252.52V1234.52ZM39.7041 226.112C30.7041 226.112 30.7041 226.131 30.7042 226.151C30.7042 226.159 30.7043 226.179 30.7045 226.193C30.7047 226.222 30.7051 226.252 30.7056 226.283C30.7067 226.346 30.7085 226.414 30.711 226.487C30.7162 226.633 30.7246 226.8 30.738 226.987C30.7647 227.361 30.8109 227.816 30.8889 228.344C31.045 229.403 31.3272 230.751 31.83 232.342C32.8406 235.54 34.7125 239.625 38.1213 244.248C44.9326 253.485 57.6492 264.573 81.2838 275.257C128.335 296.527 220.455 317 402 317V299C221.249 299 132.221 278.53 88.6984 258.855C67.046 249.067 57.1191 239.682 52.6086 233.565C50.3566 230.511 49.398 228.199 48.9934 226.918C48.7886 226.27 48.7171 225.859 48.6963 225.718C48.6857 225.647 48.6877 225.641 48.6923 225.706C48.6946 225.738 48.6976 225.788 48.6999 225.855C48.7011 225.889 48.7022 225.927 48.7029 225.97C48.7033 225.991 48.7036 226.014 48.7038 226.037C48.7039 226.049 48.704 226.068 48.704 226.074C48.7041 226.092 48.7041 226.112 39.7041 226.112ZM402 317C583.546 317 675.666 296.527 722.717 275.257C746.352 264.573 759.068 253.485 765.879 244.248C769.288 239.625 771.16 235.54 772.171 232.342C772.674 230.751 772.956 229.403 773.112 228.344C773.19 227.816 773.236 227.361 773.263 226.987C773.276 226.8 773.285 226.633 773.29 226.487C773.292 226.414 773.294 226.346 773.295 226.283C773.296 226.252 773.296 226.222 773.296 226.193C773.296 226.179 773.297 226.159 773.297 226.151C773.297 226.131 773.297 226.112 764.297 226.112C755.297 226.112 755.297 226.092 755.297 226.074C755.297 226.068 755.297 226.049 755.297 226.037C755.297 226.014 755.298 225.991 755.298 225.97C755.299 225.927 755.3 225.889 755.301 225.855C755.303 225.788 755.306 225.738 755.308 225.706C755.313 225.641 755.315 225.647 755.305 225.718C755.284 225.859 755.212 226.27 755.007 226.918C754.603 228.199 753.644 230.511 751.392 233.565C746.882 239.682 736.955 249.067 715.302 258.855C671.779 278.53 582.751 299 402 299V317Z" fill="#5A5A5A" mask="url(#path-1-inside-1_22_778)"/>
<path d="M714.338 419.367C734.662 412.591 746.611 405.697 753.664 399.856L720.203 831.911C719.879 832.333 719.408 832.915 718.766 833.639C717.176 835.429 714.533 838.092 710.463 841.344C702.324 847.845 688.455 856.718 665.863 865.66C620.65 883.555 540.61 901.685 402 901.685C263.391 901.685 183.35 883.555 138.138 865.66C115.546 856.718 101.677 847.845 93.5381 841.344C89.4679 838.092 86.8246 835.429 85.2352 833.639C84.5931 832.915 84.1221 832.333 83.798 831.911L50.3368 399.856C57.3898 405.697 69.3386 412.591 89.663 419.367C135.61 434.686 225.524 449.771 402 449.771C578.477 449.771 668.391 434.686 714.338 419.367Z" fill="#E2D7D9" stroke="#5A5A5A" stroke-width="9"/>
<path d="M4.5 117.655V194.26C11.7522 183.022 24.7484 169.269 47.9772 155.675C99.2517 125.67 200.708 96.2482 402 96.2482C603.292 96.2482 704.748 125.67 756.023 155.675C779.252 169.269 792.248 183.022 799.5 194.26V117.654C799.5 117.636 799.498 117.595 799.495 117.532C799.487 117.395 799.47 117.152 799.431 116.811C799.353 116.128 799.189 115.051 798.843 113.635C798.153 110.808 796.733 106.606 793.809 101.471C787.973 91.2259 776.022 77.0583 751.477 62.695C702.252 33.8889 602.708 4.49998 402 4.49998C201.292 4.49998 101.748 33.8889 52.5228 62.695C27.9778 77.0583 16.0273 91.2259 10.1914 101.471C7.26659 106.606 5.84709 110.808 5.15678 113.635C4.8111 115.051 4.64698 116.128 4.56922 116.811C4.53034 117.152 4.51303 117.395 4.50545 117.532C4.50196 117.596 4.50053 117.637 4.5 117.655ZM799.5 117.659L799.5 117.661C799.5 117.667 799.5 117.667 799.5 117.659Z" fill="#F4F4F4" stroke="#5A5A5A" stroke-width="9"/>
<path d="M44.2068 162.966C44.2047 163.002 44.2036 163.027 44.2031 163.041V228.818L759.796 223.386V163.041C759.795 163.027 759.794 163.002 759.792 162.966C759.786 162.861 759.772 162.666 759.739 162.386C759.672 161.826 759.53 160.925 759.227 159.73C758.621 157.346 757.367 153.768 754.764 149.374C749.569 140.609 738.876 128.393 716.803 115.978C672.52 91.0708 582.873 65.6115 401.999 65.6115C221.126 65.6115 131.479 91.0708 87.1962 115.978C65.123 128.393 54.4297 140.609 49.2352 149.374C46.6318 153.768 45.3778 157.346 44.7723 159.73C44.4689 160.925 44.3267 161.826 44.2603 162.386C44.2271 162.666 44.2128 162.861 44.2068 162.966Z" fill="url(#paint0_radial_22_778)" stroke="#5A5A5A" stroke-width="9"/>
<path opacity="0.4" d="M245 101.5C263.8 102.7 307 153.5 301.5 165.5C296 177.5 190.5 165.5 185 154.5C179.5 143.5 221.5 100 245 101.5Z" fill="#D9D9D9" fill-opacity="0.3" stroke="white" stroke-width="7"/>
<path opacity="0.4" d="M277.727 153.105C276 145.5 253.5 121.5 245.502 116.022" stroke="white" stroke-width="7" stroke-linecap="round"/>
<path opacity="0.4" d="M439.26 75.0269C425.976 75.8786 395.453 111.936 399.339 120.454C403.225 128.971 477.767 120.454 481.653 112.646C485.539 104.838 455.864 73.9622 439.26 75.0269Z" fill="#D9D9D9" fill-opacity="0.3" stroke="white" stroke-width="7"/>
<path opacity="0.4" d="M549.969 136.095C530.969 137.781 508.293 174.385 512.512 187.184C516.731 199.982 598.408 192.906 602.627 181.173C606.846 169.441 574.398 133.927 549.969 136.095Z" fill="#D9D9D9" fill-opacity="0.3" stroke="white" stroke-width="7"/>
<path opacity="0.4" d="M558 150C571.811 155.375 583.465 167.484 588 175" stroke="white" stroke-width="7" stroke-linecap="round"/>
<path opacity="0.4" d="M444 87C450.663 90.6333 460.657 99.9495 463 104" stroke="white" stroke-width="7" stroke-linecap="round"/>
<path opacity="0.4" d="M386.323 239.47C377.755 230.808 389.147 207.191 399 201C408.853 194.809 451.298 216.914 447.47 226.972C443.643 237.029 397.034 250.299 386.323 239.47Z" fill="#D9D9D9" fill-opacity="0.3" stroke="white" stroke-width="7"/>
<path opacity="0.4" d="M408 212.527C415.766 214.741 432.413 224.721 436.04 228.48" stroke="white" stroke-width="7" stroke-linecap="round"/>
<path d="M4.5 207.716V131.111C11.7522 142.349 24.7484 156.102 47.9772 169.695C99.2517 199.701 200.708 229.123 402 229.123C603.292 229.123 704.748 199.701 756.023 169.695C779.252 156.102 792.248 142.349 799.5 131.111V207.716C799.499 207.734 799.498 207.775 799.495 207.838C799.487 207.976 799.47 208.219 799.431 208.56C799.353 209.243 799.189 210.32 798.843 211.735C798.153 214.563 796.733 218.765 793.809 223.9C787.973 234.145 776.022 248.313 751.477 262.676C702.252 291.482 602.708 320.871 402 320.871C201.292 320.871 101.748 291.482 52.5228 262.676C27.9778 248.313 16.0273 234.145 10.1914 223.9C7.26659 218.765 5.84709 214.563 5.15678 211.735C4.8111 210.32 4.64698 209.243 4.56922 208.56C4.53034 208.219 4.51303 207.976 4.50545 207.838C4.50196 207.775 4.50053 207.734 4.5 207.716ZM4.49978 207.71L4.49988 207.712C4.49967 207.704 4.4997 207.703 4.49978 207.71Z" fill="#F4F4F4" stroke="#5A5A5A" stroke-width="9"/>
<defs>
<radialGradient id="paint0_radial_22_778" cx="0" cy="0" r="1" gradientUnits="userSpaceOnUse" gradientTransform="translate(401.999 147.232) rotate(180) scale(362.296 86.1201)">
<stop stop-color="#8E5A44"/>
<stop offset="1" stop-color="#775A4E"/>
</radialGradient>
</defs>
</svg>
