<svg width="804" height="1541" viewBox="0 0 804 1541" fill="none" xmlns="http://www.w3.org/2000/svg">
<mask id="path-1-inside-1_22_780" fill="white">
<path d="M39.7041 523.111C39.7041 523.111 39.7041 605 402 605C764.297 605 764.297 523.111 764.297 523.111L679.926 1433.59C679.926 1433.59 679.926 1540.52 402 1540.52C124.074 1540.52 124.074 1433.59 124.074 1433.59L39.7041 523.111Z"/>
</mask>
<path d="M39.7041 523.111C39.7041 523.111 39.7041 605 402 605C764.297 605 764.297 523.111 764.297 523.111L679.926 1433.59C679.926 1433.59 679.926 1540.52 402 1540.52C124.074 1540.52 124.074 1433.59 124.074 1433.59L39.7041 523.111Z" fill="#F4F4F4"/>
<path d="M39.7041 523.111L48.6657 522.281L30.7041 523.111H39.7041ZM764.297 523.111H773.297L755.335 522.281L764.297 523.111ZM679.926 1433.59L670.965 1432.76L670.926 1433.17V1433.59H679.926ZM124.074 1433.59L133.074 1433.59L133.074 1433.17L133.036 1432.76L124.074 1433.59ZM755.335 522.281L670.965 1432.76L688.888 1434.42L773.258 523.942L755.335 522.281ZM133.036 1432.76L48.6657 522.281L30.7425 523.942L115.113 1434.42L133.036 1432.76ZM679.926 1433.59C670.926 1433.59 670.926 1433.58 670.926 1433.57C670.926 1433.56 670.926 1433.55 670.926 1433.55C670.926 1433.54 670.927 1433.53 670.927 1433.52C670.927 1433.5 670.927 1433.49 670.927 1433.48C670.927 1433.47 670.927 1433.48 670.926 1433.52C670.923 1433.59 670.914 1433.76 670.892 1434.01C670.848 1434.52 670.75 1435.38 670.535 1436.54C670.105 1438.86 669.205 1442.38 667.325 1446.72C663.592 1455.34 655.862 1467.48 639.697 1479.92C607.214 1504.92 540.061 1531.52 402 1531.52V1549.52C541.866 1549.52 613.676 1522.66 650.674 1494.19C669.25 1479.89 678.891 1465.3 683.842 1453.87C686.305 1448.19 687.577 1443.36 688.232 1439.83C688.56 1438.06 688.733 1436.62 688.825 1435.57C688.871 1435.04 688.896 1434.6 688.91 1434.27C688.917 1434.11 688.921 1433.97 688.923 1433.85C688.925 1433.8 688.925 1433.74 688.926 1433.7C688.926 1433.68 688.926 1433.66 688.926 1433.64C688.926 1433.63 688.926 1433.62 688.926 1433.61C688.926 1433.6 688.926 1433.59 679.926 1433.59ZM402 1531.52C263.94 1531.52 196.787 1504.92 164.304 1479.92C148.139 1467.48 140.409 1455.34 136.675 1446.72C134.796 1442.38 133.896 1438.86 133.466 1436.54C133.251 1435.38 133.153 1434.52 133.109 1434.01C133.087 1433.76 133.078 1433.59 133.075 1433.52C133.074 1433.48 133.073 1433.47 133.074 1433.48C133.074 1433.49 133.074 1433.5 133.074 1433.52C133.074 1433.53 133.074 1433.54 133.074 1433.55C133.074 1433.55 133.074 1433.56 133.074 1433.57C133.074 1433.58 133.074 1433.59 124.074 1433.59C115.074 1433.59 115.074 1433.6 115.075 1433.61C115.075 1433.62 115.075 1433.63 115.075 1433.64C115.075 1433.66 115.075 1433.68 115.075 1433.7C115.076 1433.74 115.076 1433.8 115.077 1433.85C115.08 1433.97 115.084 1434.11 115.091 1434.27C115.105 1434.6 115.13 1435.04 115.176 1435.57C115.268 1436.62 115.441 1438.06 115.769 1439.83C116.424 1443.36 117.696 1448.19 120.159 1453.87C125.11 1465.3 134.75 1479.89 153.327 1494.19C190.325 1522.66 262.135 1549.52 402 1549.52V1531.52ZM39.7041 523.111C30.7041 523.111 30.7041 523.131 30.7042 523.151C30.7042 523.158 30.7043 523.179 30.7045 523.193C30.7047 523.222 30.7051 523.252 30.7056 523.283C30.7067 523.346 30.7085 523.413 30.711 523.487C30.7162 523.633 30.7246 523.8 30.738 523.987C30.7647 524.361 30.8109 524.816 30.8889 525.344C31.045 526.403 31.3272 527.751 31.83 529.342C32.8406 532.54 34.7125 536.625 38.1213 541.248C44.9326 550.485 57.6492 561.573 81.2838 572.257C128.335 593.526 220.455 614 402 614V596C221.249 596 132.221 575.53 88.6984 555.855C67.046 546.067 57.1191 536.682 52.6086 530.565C50.3566 527.511 49.398 525.198 48.9934 523.918C48.7886 523.27 48.7171 522.859 48.6963 522.718C48.6857 522.647 48.6877 522.641 48.6923 522.706C48.6946 522.738 48.6976 522.787 48.6999 522.855C48.7011 522.889 48.7022 522.927 48.7029 522.97C48.7033 522.991 48.7036 523.013 48.7038 523.037C48.7039 523.049 48.704 523.067 48.704 523.073C48.7041 523.092 48.7041 523.111 39.7041 523.111ZM402 614C583.546 614 675.666 593.526 722.717 572.257C746.352 561.573 759.068 550.485 765.879 541.248C769.288 536.625 771.16 532.54 772.171 529.342C772.674 527.751 772.956 526.403 773.112 525.344C773.19 524.816 773.236 524.361 773.263 523.987C773.276 523.8 773.285 523.633 773.29 523.487C773.292 523.413 773.294 523.346 773.295 523.283C773.296 523.252 773.296 523.222 773.296 523.193C773.296 523.179 773.297 523.158 773.297 523.151C773.297 523.131 773.297 523.111 764.297 523.111C755.297 523.111 755.297 523.092 755.297 523.073C755.297 523.067 755.297 523.049 755.297 523.037C755.297 523.013 755.298 522.991 755.298 522.97C755.299 522.927 755.3 522.889 755.301 522.855C755.303 522.787 755.306 522.738 755.308 522.706C755.313 522.641 755.315 522.647 755.305 522.718C755.284 522.859 755.212 523.27 755.007 523.918C754.603 525.198 753.644 527.511 751.392 530.565C746.882 536.682 736.955 546.067 715.302 555.855C671.779 575.53 582.751 596 402 596V614Z" fill="#5A5A5A" mask="url(#path-1-inside-1_22_780)"/>
<path d="M714.338 716.367C734.662 709.591 746.611 702.697 753.664 696.856L720.203 1128.91C719.879 1129.33 719.408 1129.92 718.766 1130.64C717.176 1132.43 714.533 1135.09 710.463 1138.34C702.324 1144.85 688.455 1153.72 665.863 1162.66C620.65 1180.56 540.61 1198.69 402 1198.69C263.391 1198.69 183.35 1180.56 138.138 1162.66C115.546 1153.72 101.677 1144.85 93.5381 1138.34C89.4679 1135.09 86.8246 1132.43 85.2352 1130.64C84.5931 1129.92 84.1221 1129.33 83.798 1128.91L50.3368 696.856C57.3898 702.697 69.3386 709.591 89.663 716.367C135.61 731.686 225.524 746.771 402 746.771C578.477 746.771 668.391 731.686 714.338 716.367Z" fill="#E2D7D9" stroke="#5A5A5A" stroke-width="9"/>
<path d="M4.5 414.654V491.259C11.7522 480.021 24.7484 466.268 47.9772 452.675C99.2517 422.67 200.708 393.248 402 393.248C603.292 393.248 704.748 422.67 756.023 452.675C779.252 466.268 792.248 480.021 799.5 491.259V414.654C799.5 414.636 799.498 414.595 799.495 414.532C799.487 414.395 799.47 414.152 799.431 413.81C799.353 413.128 799.189 412.051 798.843 410.635C798.153 407.807 796.733 403.605 793.809 398.471C787.973 388.226 776.022 374.058 751.477 359.695C702.252 330.889 602.708 301.5 402 301.5C201.292 301.5 101.748 330.889 52.5228 359.695C27.9778 374.058 16.0273 388.226 10.1914 398.471C7.26659 403.605 5.84709 407.807 5.15678 410.635C4.8111 412.051 4.64698 413.128 4.56922 413.81C4.53034 414.152 4.51303 414.395 4.50545 414.532C4.50196 414.595 4.50053 414.636 4.5 414.654ZM799.5 414.659L799.5 414.661C799.5 414.667 799.5 414.666 799.5 414.659Z" fill="#F4F4F4" stroke="#5A5A5A" stroke-width="9"/>
<path d="M44.2068 459.966C44.2047 460.002 44.2036 460.027 44.2031 460.042V525.818L759.796 520.386V460.041C759.795 460.027 759.794 460.002 759.792 459.966C759.786 459.862 759.772 459.666 759.739 459.386C759.672 458.826 759.53 457.925 759.227 456.73C758.621 454.346 757.367 450.768 754.764 446.375C749.569 437.61 738.876 425.394 716.803 412.978C672.52 388.071 582.873 362.612 401.999 362.612C221.126 362.612 131.479 388.071 87.1962 412.978C65.123 425.394 54.4297 437.61 49.2352 446.375C46.6318 450.768 45.3778 454.346 44.7723 456.73C44.4689 457.925 44.3267 458.826 44.2603 459.386C44.2271 459.666 44.2128 459.862 44.2068 459.966Z" fill="url(#paint0_radial_22_780)" stroke="#5A5A5A" stroke-width="9"/>
<path opacity="0.4" d="M245 398.5C263.8 399.7 307 450.5 301.5 462.5C296 474.5 190.5 462.5 185 451.5C179.5 440.5 221.5 397 245 398.5Z" fill="#D9D9D9" fill-opacity="0.3" stroke="white" stroke-width="7"/>
<path opacity="0.4" d="M277.727 450.105C276 442.5 253.5 418.5 245.502 413.022" stroke="white" stroke-width="7" stroke-linecap="round"/>
<path opacity="0.4" d="M439.26 372.027C425.976 372.879 395.453 408.936 399.339 417.454C403.225 425.971 477.767 417.454 481.653 409.646C485.539 401.838 455.864 370.962 439.26 372.027Z" fill="#D9D9D9" fill-opacity="0.3" stroke="white" stroke-width="7"/>
<path opacity="0.4" d="M549.969 433.095C530.969 434.781 508.293 471.385 512.512 484.184C516.731 496.982 598.408 489.906 602.627 478.173C606.846 466.441 574.398 430.927 549.969 433.095Z" fill="#D9D9D9" fill-opacity="0.3" stroke="white" stroke-width="7"/>
<path opacity="0.4" d="M558 447C571.811 452.375 583.465 464.484 588 472" stroke="white" stroke-width="7" stroke-linecap="round"/>
<path opacity="0.4" d="M444 384C450.663 387.633 460.657 396.949 463 401" stroke="white" stroke-width="7" stroke-linecap="round"/>
<path opacity="0.4" d="M386.323 536.471C377.755 527.808 389.147 504.191 399 498C408.853 491.809 451.298 513.915 447.47 523.972C443.643 534.029 397.034 547.299 386.323 536.471Z" fill="#D9D9D9" fill-opacity="0.3" stroke="white" stroke-width="7"/>
<path opacity="0.4" d="M408 509.528C415.766 511.741 432.413 521.721 436.04 525.48" stroke="white" stroke-width="7" stroke-linecap="round"/>
<path d="M4.5 504.716V428.111C11.7522 439.349 24.7484 453.102 47.9772 466.695C99.2517 496.701 200.708 526.123 402 526.123C603.292 526.123 704.748 496.701 756.023 466.695C779.252 453.102 792.248 439.349 799.5 428.111V504.716C799.499 504.734 799.498 504.775 799.495 504.838C799.487 504.976 799.47 505.219 799.431 505.56C799.353 506.243 799.189 507.32 798.843 508.735C798.153 511.563 796.733 515.765 793.809 520.9C787.973 531.145 776.022 545.313 751.477 559.676C702.252 588.482 602.708 617.871 402 617.871C201.292 617.871 101.748 588.482 52.5228 559.676C27.9778 545.313 16.0273 531.145 10.1914 520.9C7.26659 515.765 5.84709 511.563 5.15678 508.735C4.8111 507.32 4.64698 506.243 4.56922 505.56C4.53034 505.219 4.51303 504.976 4.50545 504.838C4.50196 504.775 4.50053 504.734 4.5 504.716ZM4.49978 504.71L4.49988 504.712C4.49967 504.704 4.4997 504.703 4.49978 504.71Z" fill="#F4F4F4" stroke="#5A5A5A" stroke-width="9"/>
<path d="M678 449.75H641L708 0H746L678 449.75Z" fill="#242424"/>
<defs>
<radialGradient id="paint0_radial_22_780" cx="0" cy="0" r="1" gradientUnits="userSpaceOnUse" gradientTransform="translate(401.999 444.232) rotate(180) scale(362.296 86.1201)">
<stop stop-color="#8E5A44"/>
<stop offset="1" stop-color="#775A4E"/>
</radialGradient>
</defs>
</svg>
