<svg width="804" height="1347" viewBox="0 0 804 1347" fill="none" xmlns="http://www.w3.org/2000/svg">
<mask id="path-1-inside-1_22_785" fill="white">
<path d="M39.7041 328.631C39.7041 328.631 39.7041 410.52 402 410.52C764.297 410.52 764.297 328.631 764.297 328.631L679.926 1239.11C679.926 1239.11 679.926 1346.04 402 1346.04C124.074 1346.04 124.074 1239.11 124.074 1239.11L39.7041 328.631Z"/>
</mask>
<path d="M39.7041 328.631C39.7041 328.631 39.7041 410.52 402 410.52C764.297 410.52 764.297 328.631 764.297 328.631L679.926 1239.11C679.926 1239.11 679.926 1346.04 402 1346.04C124.074 1346.04 124.074 1239.11 124.074 1239.11L39.7041 328.631Z" fill="#F4F4F4"/>
<path d="M39.7041 328.631L48.6657 327.8L30.7041 328.631H39.7041ZM764.297 328.631H773.297L755.335 327.8L764.297 328.631ZM679.926 1239.11L670.965 1238.28L670.926 1238.69V1239.11H679.926ZM124.074 1239.11L133.074 1239.11L133.074 1238.69L133.036 1238.28L124.074 1239.11ZM755.335 327.8L670.965 1238.28L688.888 1239.94L773.258 329.461L755.335 327.8ZM133.036 1238.28L48.6657 327.8L30.7425 329.461L115.113 1239.94L133.036 1238.28ZM679.926 1239.11C670.926 1239.11 670.926 1239.1 670.926 1239.09C670.926 1239.08 670.926 1239.07 670.926 1239.07C670.926 1239.06 670.927 1239.05 670.927 1239.04C670.927 1239.02 670.927 1239.01 670.927 1239C670.927 1238.99 670.927 1239 670.926 1239.04C670.923 1239.11 670.914 1239.28 670.892 1239.53C670.848 1240.04 670.75 1240.9 670.535 1242.06C670.105 1244.38 669.205 1247.9 667.325 1252.24C663.592 1260.86 655.862 1273 639.697 1285.44C607.214 1310.44 540.061 1337.04 402 1337.04V1355.04C541.866 1355.04 613.676 1328.18 650.674 1299.71C669.25 1285.41 678.891 1270.82 683.842 1259.39C686.305 1253.71 687.577 1248.88 688.232 1245.35C688.56 1243.58 688.733 1242.14 688.825 1241.09C688.871 1240.56 688.896 1240.12 688.91 1239.79C688.917 1239.63 688.921 1239.49 688.923 1239.37C688.925 1239.31 688.925 1239.26 688.926 1239.22C688.926 1239.2 688.926 1239.18 688.926 1239.16C688.926 1239.15 688.926 1239.14 688.926 1239.13C688.926 1239.12 688.926 1239.11 679.926 1239.11ZM402 1337.04C263.94 1337.04 196.787 1310.44 164.304 1285.44C148.139 1273 140.409 1260.86 136.675 1252.24C134.796 1247.9 133.896 1244.38 133.466 1242.06C133.251 1240.9 133.153 1240.04 133.109 1239.53C133.087 1239.28 133.078 1239.11 133.075 1239.04C133.074 1239 133.073 1238.99 133.074 1239C133.074 1239.01 133.074 1239.02 133.074 1239.04C133.074 1239.05 133.074 1239.06 133.074 1239.07C133.074 1239.07 133.074 1239.08 133.074 1239.09C133.074 1239.1 133.074 1239.11 124.074 1239.11C115.074 1239.11 115.074 1239.12 115.075 1239.13C115.075 1239.14 115.075 1239.15 115.075 1239.16C115.075 1239.18 115.075 1239.2 115.075 1239.22C115.076 1239.26 115.076 1239.31 115.077 1239.37C115.08 1239.49 115.084 1239.63 115.091 1239.79C115.105 1240.12 115.13 1240.56 115.176 1241.09C115.268 1242.14 115.441 1243.58 115.769 1245.35C116.424 1248.88 117.696 1253.71 120.159 1259.39C125.11 1270.82 134.75 1285.41 153.327 1299.71C190.325 1328.18 262.135 1355.04 402 1355.04V1337.04ZM39.7041 328.631C30.7041 328.631 30.7041 328.65 30.7042 328.671C30.7042 328.678 30.7043 328.698 30.7045 328.712C30.7047 328.741 30.7051 328.771 30.7056 328.802C30.7067 328.865 30.7085 328.933 30.711 329.006C30.7162 329.152 30.7246 329.319 30.738 329.506C30.7647 329.88 30.8109 330.335 30.8889 330.863C31.045 331.922 31.3272 333.27 31.83 334.861C32.8406 338.059 34.7125 342.144 38.1213 346.767C44.9326 356.004 57.6492 367.092 81.2838 377.776C128.335 399.046 220.455 419.52 402 419.52V401.52C221.249 401.52 132.221 381.049 88.6984 361.374C67.046 351.586 57.1191 342.201 52.6086 336.084C50.3566 333.03 49.398 330.718 48.9934 329.437C48.7886 328.789 48.7171 328.378 48.6963 328.237C48.6857 328.166 48.6877 328.16 48.6923 328.225C48.6946 328.257 48.6976 328.307 48.6999 328.374C48.7011 328.408 48.7022 328.446 48.7029 328.489C48.7033 328.51 48.7036 328.533 48.7038 328.556C48.7039 328.568 48.704 328.587 48.704 328.593C48.7041 328.611 48.7041 328.631 39.7041 328.631ZM402 419.52C583.546 419.52 675.666 399.046 722.717 377.776C746.352 367.092 759.068 356.004 765.879 346.767C769.288 342.144 771.16 338.059 772.171 334.861C772.674 333.27 772.956 331.922 773.112 330.863C773.19 330.335 773.236 329.88 773.263 329.506C773.276 329.319 773.285 329.152 773.29 329.006C773.292 328.933 773.294 328.865 773.295 328.802C773.296 328.771 773.296 328.741 773.296 328.712C773.296 328.698 773.297 328.678 773.297 328.671C773.297 328.65 773.297 328.631 764.297 328.631C755.297 328.631 755.297 328.611 755.297 328.593C755.297 328.587 755.297 328.568 755.297 328.556C755.297 328.533 755.298 328.51 755.298 328.489C755.299 328.446 755.3 328.408 755.301 328.374C755.303 328.307 755.306 328.257 755.308 328.225C755.313 328.16 755.315 328.166 755.305 328.237C755.284 328.378 755.212 328.789 755.007 329.437C754.603 330.718 753.644 333.03 751.392 336.084C746.882 342.201 736.955 351.586 715.302 361.374C671.779 381.049 582.751 401.52 402 401.52V419.52Z" fill="#5A5A5A" mask="url(#path-1-inside-1_22_785)"/>
<path d="M714.338 521.886C734.662 515.11 746.611 508.216 753.664 502.376L720.203 934.431C719.879 934.852 719.408 935.434 718.766 936.158C717.176 937.948 714.533 940.611 710.463 943.863C702.324 950.364 688.455 959.237 665.863 968.179C620.65 986.074 540.61 1004.2 402 1004.2C263.391 1004.2 183.35 986.074 138.138 968.179C115.546 959.237 101.677 950.364 93.5381 943.863C89.4679 940.611 86.8246 937.948 85.2352 936.158C84.5931 935.434 84.1221 934.852 83.798 934.431L50.3368 502.376C57.3898 508.216 69.3386 515.11 89.663 521.886C135.61 537.205 225.524 552.29 402 552.29C578.477 552.29 668.391 537.205 714.338 521.886Z" fill="#E2D7D9" stroke="#5A5A5A" stroke-width="9"/>
<path d="M4.5 220.174V296.779C11.7522 285.541 24.7484 271.788 47.9772 258.194C99.2517 228.189 200.708 198.767 402 198.767C603.292 198.767 704.748 228.189 756.023 258.194C779.252 271.788 792.248 285.541 799.5 296.779V220.173C799.5 220.155 799.498 220.114 799.495 220.052C799.487 219.914 799.47 219.671 799.431 219.33C799.353 218.647 799.189 217.57 798.843 216.154C798.153 213.327 796.733 209.125 793.809 203.99C787.973 193.745 776.022 179.577 751.477 165.214C702.252 136.408 602.708 107.019 402 107.019C201.292 107.019 101.748 136.408 52.5228 165.214C27.9778 179.577 16.0273 193.745 10.1914 203.99C7.26659 209.125 5.84709 213.327 5.15678 216.154C4.8111 217.57 4.64698 218.647 4.56922 219.33C4.53034 219.671 4.51303 219.914 4.50545 220.052C4.50196 220.115 4.50053 220.156 4.5 220.174ZM799.5 220.178L799.5 220.18C799.5 220.186 799.5 220.186 799.5 220.178Z" fill="#F4F4F4" stroke="#5A5A5A" stroke-width="9"/>
<path d="M44.2068 265.485C44.2047 265.521 44.2036 265.546 44.2031 265.56V331.337L759.796 325.905V265.56C759.795 265.546 759.794 265.521 759.792 265.485C759.786 265.38 759.772 265.185 759.739 264.905C759.672 264.345 759.53 263.444 759.227 262.249C758.621 259.865 757.367 256.287 754.764 251.894C749.569 243.128 738.876 230.912 716.803 218.497C672.52 193.59 582.873 168.131 401.999 168.131C221.126 168.131 131.479 193.59 87.1962 218.497C65.123 230.912 54.4297 243.128 49.2352 251.894C46.6318 256.287 45.3778 259.865 44.7723 262.249C44.4689 263.444 44.3267 264.345 44.2603 264.905C44.2271 265.185 44.2128 265.38 44.2068 265.485Z" fill="url(#paint0_radial_22_785)" stroke="#5A5A5A" stroke-width="9"/>
<path d="M4.5 310.235V233.63C11.7522 244.868 24.7484 258.621 47.9772 272.215C99.2517 302.22 200.708 331.642 402 331.642C603.292 331.642 704.748 302.22 756.023 272.215C779.252 258.621 792.248 244.868 799.5 233.63V310.235C799.499 310.253 799.498 310.294 799.495 310.357C799.487 310.495 799.47 310.738 799.431 311.079C799.353 311.762 799.189 312.839 798.843 314.255C798.153 317.082 796.733 321.284 793.809 326.419C787.973 336.664 776.022 350.832 751.477 365.195C702.252 394.001 602.708 423.39 402 423.39C201.292 423.39 101.748 394.001 52.5228 365.195C27.9778 350.832 16.0273 336.664 10.1914 326.419C7.26659 321.284 5.84709 317.082 5.15678 314.255C4.8111 312.839 4.64698 311.762 4.56922 311.079C4.53034 310.738 4.51303 310.495 4.50545 310.357C4.50196 310.294 4.50053 310.253 4.5 310.235ZM4.49978 310.229L4.49988 310.231C4.49967 310.223 4.4997 310.222 4.49978 310.229Z" fill="#F4F4F4" stroke="#5A5A5A" stroke-width="9"/>
<path d="M389.996 297.38C303.334 304.686 281.133 298.992 226.433 282.876C171.733 266.761 130.44 265.686 144.92 211.967C159.399 158.249 231.259 186.719 226.433 146.43C221.607 106.141 288.641 70.6868 312.773 63.7033C336.905 56.7199 361.037 -4.51953 367.473 0.852349C373.908 6.22423 362.11 63.7032 419.491 51.8851C476.872 40.067 487.598 54.571 515.484 82.5048C543.37 110.439 496.714 112.05 571.256 146.43C645.798 180.81 622.202 218.951 623.275 265.686C624.347 312.421 498.323 288.248 389.996 297.38Z" fill="#F0F0F0"/>
<path d="M357.5 24.519C353.335 45.5935 369.477 75.061 414.235 84.9209C425.032 87.2995 435.486 91.3745 444.4 97.9163C473.45 119.237 499.498 129.752 543 138.019" stroke="#D5D5D5" stroke-width="9" stroke-linecap="round"/>
<path d="M592.5 164.519C527.097 159.787 476.855 153.252 433.298 136.062C418.904 130.381 404.135 125.526 389.06 122.028C334.74 109.424 319.005 89.551 316 68.519" stroke="#D5D5D5" stroke-width="9" stroke-linecap="round"/>
<path d="M610.5 178.519C531.083 180.819 475.979 190.235 419.463 175.018C414.815 173.767 409.999 172.813 405.208 172.348C294.345 161.578 307.109 136.107 265.5 93.519" stroke="#D5D5D5" stroke-width="9" stroke-linecap="round"/>
<path d="M619.5 199.519C540.196 213.746 432.5 227.519 353.5 205.519C274.5 183.519 242.76 183.024 228 155.019" stroke="#D5D5D5" stroke-width="9" stroke-linecap="round"/>
<path d="M619 221.519C547.188 259.273 422.321 266.747 334.536 250.601C324.478 248.75 314.31 247.277 304.108 246.555C207.601 239.722 179.746 221.888 168 192.019" stroke="#D5D5D5" stroke-width="9" stroke-linecap="round"/>
<defs>
<radialGradient id="paint0_radial_22_785" cx="0" cy="0" r="1" gradientUnits="userSpaceOnUse" gradientTransform="translate(401.999 249.751) rotate(180) scale(362.296 86.1201)">
<stop stop-color="#8E5A44"/>
<stop offset="1" stop-color="#775A4E"/>
</radialGradient>
</defs>
</svg>
