<svg width="804" height="1537" viewBox="0 0 804 1537" fill="none" xmlns="http://www.w3.org/2000/svg">
<mask id="path-1-inside-1_22_787" fill="white">
<path d="M39.7041 518.631C39.7041 518.631 39.7041 600.52 402 600.52C764.297 600.52 764.297 518.631 764.297 518.631L679.926 1429.11C679.926 1429.11 679.926 1536.04 402 1536.04C124.074 1536.04 124.074 1429.11 124.074 1429.11L39.7041 518.631Z"/>
</mask>
<path d="M39.7041 518.631C39.7041 518.631 39.7041 600.52 402 600.52C764.297 600.52 764.297 518.631 764.297 518.631L679.926 1429.11C679.926 1429.11 679.926 1536.04 402 1536.04C124.074 1536.04 124.074 1429.11 124.074 1429.11L39.7041 518.631Z" fill="#F4F4F4"/>
<path d="M39.7041 518.631L48.6657 517.8L30.7041 518.631H39.7041ZM764.297 518.631H773.297L755.335 517.8L764.297 518.631ZM679.926 1429.11L670.965 1428.28L670.926 1428.69V1429.11H679.926ZM124.074 1429.11L133.074 1429.11L133.074 1428.69L133.036 1428.28L124.074 1429.11ZM755.335 517.8L670.965 1428.28L688.888 1429.94L773.258 519.461L755.335 517.8ZM133.036 1428.28L48.6657 517.8L30.7425 519.461L115.113 1429.94L133.036 1428.28ZM679.926 1429.11C670.926 1429.11 670.926 1429.1 670.926 1429.09C670.926 1429.08 670.926 1429.07 670.926 1429.07C670.926 1429.06 670.927 1429.05 670.927 1429.04C670.927 1429.02 670.927 1429.01 670.927 1429C670.927 1428.99 670.927 1429 670.926 1429.04C670.923 1429.11 670.914 1429.28 670.892 1429.53C670.848 1430.04 670.75 1430.9 670.535 1432.06C670.105 1434.38 669.205 1437.9 667.325 1442.24C663.592 1450.86 655.862 1463 639.697 1475.44C607.214 1500.44 540.061 1527.04 402 1527.04V1545.04C541.866 1545.04 613.676 1518.18 650.674 1489.71C669.25 1475.41 678.891 1460.82 683.842 1449.39C686.305 1443.71 687.577 1438.88 688.232 1435.35C688.56 1433.58 688.733 1432.14 688.825 1431.09C688.871 1430.56 688.896 1430.12 688.91 1429.79C688.917 1429.63 688.921 1429.49 688.923 1429.37C688.925 1429.31 688.925 1429.26 688.926 1429.22C688.926 1429.2 688.926 1429.18 688.926 1429.16C688.926 1429.15 688.926 1429.14 688.926 1429.13C688.926 1429.12 688.926 1429.11 679.926 1429.11ZM402 1527.04C263.94 1527.04 196.787 1500.44 164.304 1475.44C148.139 1463 140.409 1450.86 136.675 1442.24C134.796 1437.9 133.896 1434.38 133.466 1432.06C133.251 1430.9 133.153 1430.04 133.109 1429.53C133.087 1429.28 133.078 1429.11 133.075 1429.04C133.074 1429 133.073 1428.99 133.074 1429C133.074 1429.01 133.074 1429.02 133.074 1429.04C133.074 1429.05 133.074 1429.06 133.074 1429.07C133.074 1429.07 133.074 1429.08 133.074 1429.09C133.074 1429.1 133.074 1429.11 124.074 1429.11C115.074 1429.11 115.074 1429.12 115.075 1429.13C115.075 1429.14 115.075 1429.15 115.075 1429.16C115.075 1429.18 115.075 1429.2 115.075 1429.22C115.076 1429.26 115.076 1429.31 115.077 1429.37C115.08 1429.49 115.084 1429.63 115.091 1429.79C115.105 1430.12 115.13 1430.56 115.176 1431.09C115.268 1432.14 115.441 1433.58 115.769 1435.35C116.424 1438.88 117.696 1443.71 120.159 1449.39C125.11 1460.82 134.75 1475.41 153.327 1489.71C190.325 1518.18 262.135 1545.04 402 1545.04V1527.04ZM39.7041 518.631C30.7041 518.631 30.7041 518.65 30.7042 518.671C30.7042 518.678 30.7043 518.698 30.7045 518.712C30.7047 518.741 30.7051 518.771 30.7056 518.802C30.7067 518.865 30.7085 518.933 30.711 519.006C30.7162 519.152 30.7246 519.319 30.738 519.506C30.7647 519.88 30.8109 520.335 30.8889 520.863C31.045 521.922 31.3272 523.27 31.83 524.861C32.8406 528.059 34.7125 532.144 38.1213 536.767C44.9326 546.004 57.6492 557.092 81.2838 567.776C128.335 589.046 220.455 609.52 402 609.52V591.52C221.249 591.52 132.221 571.049 88.6984 551.374C67.046 541.586 57.1191 532.201 52.6086 526.084C50.3566 523.03 49.398 520.718 48.9934 519.437C48.7886 518.789 48.7171 518.378 48.6963 518.237C48.6857 518.166 48.6877 518.16 48.6923 518.225C48.6946 518.257 48.6976 518.307 48.6999 518.374C48.7011 518.408 48.7022 518.446 48.7029 518.489C48.7033 518.51 48.7036 518.533 48.7038 518.556C48.7039 518.568 48.704 518.587 48.704 518.593C48.7041 518.611 48.7041 518.631 39.7041 518.631ZM402 609.52C583.546 609.52 675.666 589.046 722.717 567.776C746.352 557.092 759.068 546.004 765.879 536.767C769.288 532.144 771.16 528.059 772.171 524.861C772.674 523.27 772.956 521.922 773.112 520.863C773.19 520.335 773.236 519.88 773.263 519.506C773.276 519.319 773.285 519.152 773.29 519.006C773.292 518.933 773.294 518.865 773.295 518.802C773.296 518.771 773.296 518.741 773.296 518.712C773.296 518.698 773.297 518.678 773.297 518.671C773.297 518.65 773.297 518.631 764.297 518.631C755.297 518.631 755.297 518.611 755.297 518.593C755.297 518.587 755.297 518.568 755.297 518.556C755.297 518.533 755.298 518.51 755.298 518.489C755.299 518.446 755.3 518.408 755.301 518.374C755.303 518.307 755.306 518.257 755.308 518.225C755.313 518.16 755.315 518.166 755.305 518.237C755.284 518.378 755.212 518.789 755.007 519.437C754.603 520.718 753.644 523.03 751.392 526.084C746.882 532.201 736.955 541.586 715.302 551.374C671.779 571.049 582.751 591.52 402 591.52V609.52Z" fill="#5A5A5A" mask="url(#path-1-inside-1_22_787)"/>
<path d="M714.338 711.886C734.662 705.11 746.611 698.216 753.664 692.376L720.203 1124.43C719.879 1124.85 719.408 1125.43 718.766 1126.16C717.176 1127.95 714.533 1130.61 710.463 1133.86C702.324 1140.36 688.455 1149.24 665.863 1158.18C620.65 1176.07 540.61 1194.2 402 1194.2C263.391 1194.2 183.35 1176.07 138.138 1158.18C115.546 1149.24 101.677 1140.36 93.5381 1133.86C89.4679 1130.61 86.8246 1127.95 85.2352 1126.16C84.5931 1125.43 84.1221 1124.85 83.798 1124.43L50.3368 692.376C57.3898 698.216 69.3386 705.11 89.663 711.886C135.61 727.205 225.524 742.29 402 742.29C578.477 742.29 668.391 727.205 714.338 711.886Z" fill="#E2D7D9" stroke="#5A5A5A" stroke-width="9"/>
<path d="M4.5 410.174V486.779C11.7522 475.541 24.7484 461.788 47.9772 448.194C99.2517 418.189 200.708 388.767 402 388.767C603.292 388.767 704.748 418.189 756.023 448.194C779.252 461.788 792.248 475.541 799.5 486.779V410.173C799.5 410.155 799.498 410.114 799.495 410.052C799.487 409.914 799.47 409.671 799.431 409.33C799.353 408.647 799.189 407.57 798.843 406.154C798.153 403.327 796.733 399.125 793.809 393.99C787.973 383.745 776.022 369.577 751.477 355.214C702.252 326.408 602.708 297.019 402 297.019C201.292 297.019 101.748 326.408 52.5228 355.214C27.9778 369.577 16.0273 383.745 10.1914 393.99C7.26659 399.125 5.84709 403.327 5.15678 406.154C4.8111 407.57 4.64698 408.647 4.56922 409.33C4.53034 409.671 4.51303 409.914 4.50545 410.052C4.50196 410.115 4.50053 410.156 4.5 410.174ZM799.5 410.178L799.5 410.18C799.5 410.186 799.5 410.186 799.5 410.178Z" fill="#F4F4F4" stroke="#5A5A5A" stroke-width="9"/>
<path d="M44.2068 455.485C44.2047 455.521 44.2036 455.546 44.2031 455.56V521.337L759.796 515.905V455.56C759.795 455.546 759.794 455.521 759.792 455.485C759.786 455.38 759.772 455.185 759.739 454.905C759.672 454.345 759.53 453.444 759.227 452.249C758.621 449.865 757.367 446.287 754.764 441.894C749.569 433.128 738.876 420.912 716.803 408.497C672.52 383.59 582.873 358.131 401.999 358.131C221.126 358.131 131.479 383.59 87.1962 408.497C65.123 420.912 54.4297 433.128 49.2352 441.894C46.6318 446.287 45.3778 449.865 44.7723 452.249C44.4689 453.444 44.3267 454.345 44.2603 454.905C44.2271 455.185 44.2128 455.38 44.2068 455.485Z" fill="url(#paint0_radial_22_787)" stroke="#5A5A5A" stroke-width="9"/>
<path d="M4.5 500.235V423.63C11.7522 434.868 24.7484 448.621 47.9772 462.215C99.2517 492.22 200.708 521.642 402 521.642C603.292 521.642 704.748 492.22 756.023 462.215C779.252 448.621 792.248 434.868 799.5 423.63V500.235C799.499 500.253 799.498 500.294 799.495 500.357C799.487 500.495 799.47 500.738 799.431 501.079C799.353 501.762 799.189 502.839 798.843 504.255C798.153 507.082 796.733 511.284 793.809 516.419C787.973 526.664 776.022 540.832 751.477 555.195C702.252 584.001 602.708 613.39 402 613.39C201.292 613.39 101.748 584.001 52.5228 555.195C27.9778 540.832 16.0273 526.664 10.1914 516.419C7.26659 511.284 5.84709 507.082 5.15678 504.255C4.8111 502.839 4.64698 501.762 4.56922 501.079C4.53034 500.738 4.51303 500.495 4.50545 500.357C4.50196 500.294 4.50053 500.253 4.5 500.235ZM4.49978 500.229L4.49988 500.231C4.49967 500.223 4.4997 500.222 4.49978 500.229Z" fill="#F4F4F4" stroke="#5A5A5A" stroke-width="9"/>
<path d="M389.996 487.38C303.334 494.686 281.133 488.992 226.433 472.876C171.733 456.761 130.44 455.686 144.92 401.967C159.399 348.249 231.259 376.719 226.433 336.43C221.607 296.141 288.641 260.687 312.773 253.703C336.905 246.72 361.037 185.48 367.473 190.852C373.908 196.224 362.11 253.703 419.491 241.885C476.872 230.067 487.598 244.571 515.484 272.505C543.37 300.439 496.714 302.05 571.256 336.43C645.798 370.81 622.202 408.951 623.275 455.686C624.347 502.421 498.323 478.248 389.996 487.38Z" fill="#F0F0F0"/>
<path d="M357.5 214.519C353.335 235.593 369.477 265.061 414.235 274.921C425.032 277.3 435.486 281.374 444.4 287.916C473.45 309.237 499.498 319.752 543 328.019" stroke="#D5D5D5" stroke-width="9" stroke-linecap="round"/>
<path d="M592.5 354.519C527.097 349.787 476.855 343.252 433.298 326.062C418.904 320.381 404.135 315.526 389.06 312.028C334.74 299.424 319.005 279.551 316 258.519" stroke="#D5D5D5" stroke-width="9" stroke-linecap="round"/>
<path d="M610.5 368.519C531.083 370.819 475.979 380.235 419.463 365.018C414.815 363.767 409.999 362.813 405.208 362.348C294.345 351.578 307.109 326.107 265.5 283.519" stroke="#D5D5D5" stroke-width="9" stroke-linecap="round"/>
<path d="M619.5 389.519C540.196 403.746 432.5 417.519 353.5 395.519C274.5 373.519 242.76 373.024 228 345.019" stroke="#D5D5D5" stroke-width="9" stroke-linecap="round"/>
<path d="M619 411.519C547.188 449.273 422.321 456.747 334.536 440.601C324.478 438.75 314.31 437.277 304.108 436.555C207.601 429.722 179.746 411.888 168 382.019" stroke="#D5D5D5" stroke-width="9" stroke-linecap="round"/>
<path d="M688 450.269H651L718 0.519043H756L688 450.269Z" fill="#242424"/>
<defs>
<radialGradient id="paint0_radial_22_787" cx="0" cy="0" r="1" gradientUnits="userSpaceOnUse" gradientTransform="translate(401.999 439.751) rotate(180) scale(362.296 86.1201)">
<stop stop-color="#8E5A44"/>
<stop offset="1" stop-color="#775A4E"/>
</radialGradient>
</defs>
</svg>
