<svg width="804" height="1289" viewBox="0 0 804 1289" fill="none" xmlns="http://www.w3.org/2000/svg">
<mask id="path-1-inside-1_22_786" fill="white">
<path d="M39.7041 270.631C39.7041 270.631 39.7041 352.52 402 352.52C764.297 352.52 764.297 270.631 764.297 270.631L679.926 1181.11C679.926 1181.11 679.926 1288.04 402 1288.04C124.074 1288.04 124.074 1181.11 124.074 1181.11L39.7041 270.631Z"/>
</mask>
<path d="M39.7041 270.631C39.7041 270.631 39.7041 352.52 402 352.52C764.297 352.52 764.297 270.631 764.297 270.631L679.926 1181.11C679.926 1181.11 679.926 1288.04 402 1288.04C124.074 1288.04 124.074 1181.11 124.074 1181.11L39.7041 270.631Z" fill="#F4F4F4"/>
<path d="M39.7041 270.631L48.6657 269.8L30.7041 270.631H39.7041ZM764.297 270.631H773.297L755.335 269.8L764.297 270.631ZM679.926 1181.11L670.965 1180.28L670.926 1180.69V1181.11H679.926ZM124.074 1181.11L133.074 1181.11L133.074 1180.69L133.036 1180.28L124.074 1181.11ZM755.335 269.8L670.965 1180.28L688.888 1181.94L773.258 271.461L755.335 269.8ZM133.036 1180.28L48.6657 269.8L30.7425 271.461L115.113 1181.94L133.036 1180.28ZM679.926 1181.11C670.926 1181.11 670.926 1181.1 670.926 1181.09C670.926 1181.08 670.926 1181.07 670.926 1181.07C670.926 1181.06 670.927 1181.05 670.927 1181.04C670.927 1181.02 670.927 1181.01 670.927 1181C670.927 1180.99 670.927 1181 670.926 1181.04C670.923 1181.11 670.914 1181.28 670.892 1181.53C670.848 1182.04 670.75 1182.9 670.535 1184.06C670.105 1186.38 669.205 1189.9 667.325 1194.24C663.592 1202.86 655.862 1215 639.697 1227.44C607.214 1252.44 540.061 1279.04 402 1279.04V1297.04C541.866 1297.04 613.676 1270.18 650.674 1241.71C669.25 1227.41 678.891 1212.82 683.842 1201.39C686.305 1195.71 687.577 1190.88 688.232 1187.35C688.56 1185.58 688.733 1184.14 688.825 1183.09C688.871 1182.56 688.896 1182.12 688.91 1181.79C688.917 1181.63 688.921 1181.49 688.923 1181.37C688.925 1181.31 688.925 1181.26 688.926 1181.22C688.926 1181.2 688.926 1181.18 688.926 1181.16C688.926 1181.15 688.926 1181.14 688.926 1181.13C688.926 1181.12 688.926 1181.11 679.926 1181.11ZM402 1279.04C263.94 1279.04 196.787 1252.44 164.304 1227.44C148.139 1215 140.409 1202.86 136.675 1194.24C134.796 1189.9 133.896 1186.38 133.466 1184.06C133.251 1182.9 133.153 1182.04 133.109 1181.53C133.087 1181.28 133.078 1181.11 133.075 1181.04C133.074 1181 133.073 1180.99 133.074 1181C133.074 1181.01 133.074 1181.02 133.074 1181.04C133.074 1181.05 133.074 1181.06 133.074 1181.07C133.074 1181.07 133.074 1181.08 133.074 1181.09C133.074 1181.1 133.074 1181.11 124.074 1181.11C115.074 1181.11 115.074 1181.12 115.075 1181.13C115.075 1181.14 115.075 1181.15 115.075 1181.16C115.075 1181.18 115.075 1181.2 115.075 1181.22C115.076 1181.26 115.076 1181.31 115.077 1181.37C115.08 1181.49 115.084 1181.63 115.091 1181.79C115.105 1182.12 115.13 1182.56 115.176 1183.09C115.268 1184.14 115.441 1185.58 115.769 1187.35C116.424 1190.88 117.696 1195.71 120.159 1201.39C125.11 1212.82 134.75 1227.41 153.327 1241.71C190.325 1270.18 262.135 1297.04 402 1297.04V1279.04ZM39.7041 270.631C30.7041 270.631 30.7041 270.65 30.7042 270.671C30.7042 270.678 30.7043 270.698 30.7045 270.712C30.7047 270.741 30.7051 270.771 30.7056 270.802C30.7067 270.865 30.7085 270.933 30.711 271.006C30.7162 271.152 30.7246 271.319 30.738 271.506C30.7647 271.88 30.8109 272.335 30.8889 272.863C31.045 273.922 31.3272 275.27 31.83 276.861C32.8406 280.059 34.7125 284.144 38.1213 288.767C44.9326 298.004 57.6492 309.092 81.2838 319.776C128.335 341.046 220.455 361.52 402 361.52V343.52C221.249 343.52 132.221 323.049 88.6984 303.374C67.046 293.586 57.1191 284.201 52.6086 278.084C50.3566 275.03 49.398 272.718 48.9934 271.437C48.7886 270.789 48.7171 270.378 48.6963 270.237C48.6857 270.166 48.6877 270.16 48.6923 270.225C48.6946 270.257 48.6976 270.307 48.6999 270.374C48.7011 270.408 48.7022 270.446 48.7029 270.489C48.7033 270.51 48.7036 270.533 48.7038 270.556C48.7039 270.568 48.704 270.587 48.704 270.593C48.7041 270.611 48.7041 270.631 39.7041 270.631ZM402 361.52C583.546 361.52 675.666 341.046 722.717 319.776C746.352 309.092 759.068 298.004 765.879 288.767C769.288 284.144 771.16 280.059 772.171 276.861C772.674 275.27 772.956 273.922 773.112 272.863C773.19 272.335 773.236 271.88 773.263 271.506C773.276 271.319 773.285 271.152 773.29 271.006C773.292 270.933 773.294 270.865 773.295 270.802C773.296 270.771 773.296 270.741 773.296 270.712C773.296 270.698 773.297 270.678 773.297 270.671C773.297 270.65 773.297 270.631 764.297 270.631C755.297 270.631 755.297 270.611 755.297 270.593C755.297 270.587 755.297 270.568 755.297 270.556C755.297 270.533 755.298 270.51 755.298 270.489C755.299 270.446 755.3 270.408 755.301 270.374C755.303 270.307 755.306 270.257 755.308 270.225C755.313 270.16 755.315 270.166 755.305 270.237C755.284 270.378 755.212 270.789 755.007 271.437C754.603 272.718 753.644 275.03 751.392 278.084C746.882 284.201 736.955 293.586 715.302 303.374C671.779 323.049 582.751 343.52 402 343.52V361.52Z" fill="#5A5A5A" mask="url(#path-1-inside-1_22_786)"/>
<path d="M714.338 463.886C734.662 457.11 746.611 450.216 753.664 444.376L720.203 876.431C719.879 876.852 719.408 877.434 718.766 878.158C717.176 879.948 714.533 882.611 710.463 885.863C702.324 892.364 688.455 901.237 665.863 910.179C620.65 928.074 540.61 946.204 402 946.204C263.391 946.204 183.35 928.074 138.138 910.179C115.546 901.237 101.677 892.364 93.5381 885.863C89.4679 882.611 86.8246 879.948 85.2352 878.158C84.5931 877.434 84.1221 876.852 83.798 876.431L50.3368 444.376C57.3898 450.216 69.3386 457.11 89.663 463.886C135.61 479.205 225.524 494.29 402 494.29C578.477 494.29 668.391 479.205 714.338 463.886Z" fill="#E2D7D9" stroke="#5A5A5A" stroke-width="9"/>
<path d="M4.5 162.174V238.779C11.7522 227.541 24.7484 213.788 47.9772 200.194C99.2517 170.189 200.708 140.767 402 140.767C603.292 140.767 704.748 170.189 756.023 200.194C779.252 213.788 792.248 227.541 799.5 238.779V162.173C799.5 162.155 799.498 162.114 799.495 162.052C799.487 161.914 799.47 161.671 799.431 161.33C799.353 160.647 799.189 159.57 798.843 158.154C798.153 155.327 796.733 151.125 793.809 145.99C787.973 135.745 776.022 121.577 751.477 107.214C702.252 78.408 602.708 49.019 402 49.019C201.292 49.019 101.748 78.408 52.5228 107.214C27.9778 121.577 16.0273 135.745 10.1914 145.99C7.26659 151.125 5.84709 155.327 5.15678 158.154C4.8111 159.57 4.64698 160.647 4.56922 161.33C4.53034 161.671 4.51303 161.914 4.50545 162.052C4.50196 162.115 4.50053 162.156 4.5 162.174ZM799.5 162.178L799.5 162.18C799.5 162.186 799.5 162.186 799.5 162.178Z" fill="#F4F4F4" stroke="#5A5A5A" stroke-width="9"/>
<path d="M44.2068 207.485C44.2047 207.521 44.2036 207.546 44.2031 207.56V273.337L759.796 267.905V207.56C759.795 207.546 759.794 207.521 759.792 207.485C759.786 207.38 759.772 207.185 759.739 206.905C759.672 206.345 759.53 205.444 759.227 204.249C758.621 201.865 757.367 198.287 754.764 193.894C749.569 185.128 738.876 172.912 716.803 160.497C672.52 135.59 582.873 110.131 401.999 110.131C221.126 110.131 131.479 135.59 87.1962 160.497C65.123 172.912 54.4297 185.128 49.2352 193.894C46.6318 198.287 45.3778 201.865 44.7723 204.249C44.4689 205.444 44.3267 206.345 44.2603 206.905C44.2271 207.185 44.2128 207.38 44.2068 207.485Z" fill="url(#paint0_radial_22_786)" stroke="#5A5A5A" stroke-width="9"/>
<path d="M4.5 252.235V175.63C11.7522 186.868 24.7484 200.621 47.9772 214.215C99.2517 244.22 200.708 273.642 402 273.642C603.292 273.642 704.748 244.22 756.023 214.215C779.252 200.621 792.248 186.868 799.5 175.63V252.235C799.499 252.253 799.498 252.294 799.495 252.357C799.487 252.495 799.47 252.738 799.431 253.079C799.353 253.762 799.189 254.839 798.843 256.255C798.153 259.082 796.733 263.284 793.809 268.419C787.973 278.664 776.022 292.832 751.477 307.195C702.252 336.001 602.708 365.39 402 365.39C201.292 365.39 101.748 336.001 52.5228 307.195C27.9778 292.832 16.0273 278.664 10.1914 268.419C7.26659 263.284 5.84709 259.082 5.15678 256.255C4.8111 254.839 4.64698 253.762 4.56922 253.079C4.53034 252.738 4.51303 252.495 4.50545 252.357C4.50196 252.294 4.50053 252.253 4.5 252.235ZM4.49978 252.229L4.49988 252.231C4.49967 252.223 4.4997 252.222 4.49978 252.229Z" fill="#F4F4F4" stroke="#5A5A5A" stroke-width="9"/>
<path d="M389.996 239.38C303.335 246.686 281.133 240.992 226.433 224.876C171.733 208.761 130.44 207.686 144.92 153.967C159.399 100.249 231.259 128.72 226.433 88.4303C221.607 48.141 274.868 20.5025 299 13.519C323.132 6.5356 343.565 0.331588 350 5.70347C356.435 11.0753 364.414 5.70331 423 5.70341H423C472 5.70349 488 5.70352 515.484 24.5049C548.061 46.7907 496.714 54.0502 571.256 88.4303C645.798 122.81 622.202 160.951 623.275 207.686C624.347 254.421 498.323 230.248 389.996 239.38Z" fill="#F0F0F0"/>
<path d="M374 13.519C378.641 20.4798 397.339 24.4497 415.521 27.2793C425.631 28.8527 435.121 33.0436 443.342 39.1358C472.821 60.9817 498.971 71.6514 543.001 80.019" stroke="#D5D5D5" stroke-width="9" stroke-linecap="round"/>
<path d="M592.5 106.519C527.097 101.787 476.855 95.2517 433.298 78.0619C418.904 72.3811 404.172 67.389 388.993 64.378C333.078 53.2865 311.009 40.0787 308 19.019" stroke="#D5D5D5" stroke-width="9" stroke-linecap="round"/>
<path d="M610.5 120.519C531.083 122.819 475.979 132.235 419.463 117.018C414.815 115.767 409.999 114.813 405.208 114.348C294.345 103.578 307.109 78.1073 265.5 35.519" stroke="#D5D5D5" stroke-width="9" stroke-linecap="round"/>
<path d="M619.5 141.519C540.196 155.746 432.5 169.519 353.5 147.519C274.5 125.519 242.76 125.024 228 97.019" stroke="#D5D5D5" stroke-width="9" stroke-linecap="round"/>
<path d="M619 163.519C547.188 201.273 422.321 208.747 334.536 192.601C324.478 190.75 314.31 189.277 304.108 188.555C207.601 181.722 179.746 163.888 168 134.019" stroke="#D5D5D5" stroke-width="9" stroke-linecap="round"/>
<g opacity="0.5">
<path d="M804 154.371C804 225.636 624.018 283.408 402 283.408C179.982 283.408 0 225.636 0 154.371C0 83.1058 179.982 25.334 402 25.334C624.018 25.334 804 83.1058 804 154.371Z" fill="#F4F4F4"/>
<path d="M804 154.371C804 225.636 624.018 283.408 402 283.408C179.982 283.408 0 225.636 0 154.371C0 83.1058 179.982 25.334 402 25.334C624.018 25.334 804 83.1058 804 154.371Z" stroke="#5A5A5A"/>
</g>
<path opacity="0.5" d="M710.166 70.0005C710.166 73.3302 708.668 76.9757 705.004 80.9552C701.317 84.9589 695.663 89.0372 688.003 93.0622C672.69 101.107 650.237 108.489 622.112 114.739C565.937 127.222 488.113 134.982 402 134.982C315.887 134.982 238.063 127.222 181.887 114.739C153.763 108.489 131.31 101.107 115.997 93.0622C108.336 89.0372 102.682 84.9589 98.9956 80.9552C95.3311 76.9757 93.833 73.3302 93.833 70.0005C93.833 66.6709 95.3311 63.0253 98.9956 59.0458C102.682 55.0422 108.336 50.9639 115.997 46.9388C131.31 38.8937 153.763 31.5124 181.887 25.2625C238.063 12.7791 315.887 5.01904 402 5.01904C488.113 5.01904 565.937 12.7791 622.112 25.2625C650.237 31.5124 672.69 38.8937 688.003 46.9388C695.663 50.9639 701.317 55.0422 705.004 59.0458C708.668 63.0253 710.166 66.6709 710.166 70.0005Z" fill="#F4F4F4" stroke="#5A5A5A" stroke-width="9"/>
<path opacity="0.5" d="M93.833 136.91V77.2857C99.8859 83.9676 109.922 91.6988 126.547 99.2907C166.518 117.544 245.465 135.392 402 135.392C558.534 135.392 637.481 117.544 677.452 99.2907C694.078 91.6988 704.114 83.9676 710.166 77.2857V136.909C710.163 136.95 710.155 137.032 710.137 137.152C710.094 137.448 709.993 137.983 709.761 138.725C709.299 140.201 708.303 142.548 706.146 145.502C701.831 151.413 692.756 159.907 673.714 168.603C635.518 186.045 558.132 203.891 402 203.891C245.868 203.891 168.481 186.045 130.286 168.603C111.244 159.907 102.168 151.413 97.8531 145.502C95.6968 142.548 94.7003 140.201 94.2384 138.725C94.0063 137.983 93.9053 137.448 93.8621 137.152C93.8445 137.032 93.8364 136.95 93.833 136.91Z" fill="#F4F4F4" stroke="#5A5A5A" stroke-width="9"/>
<defs>
<radialGradient id="paint0_radial_22_786" cx="0" cy="0" r="1" gradientUnits="userSpaceOnUse" gradientTransform="translate(401.999 191.751) rotate(180) scale(362.296 86.1201)">
<stop stop-color="#8E5A44"/>
<stop offset="1" stop-color="#775A4E"/>
</radialGradient>
</defs>
</svg>
