<svg width="804" height="1280" viewBox="0 0 804 1280" fill="none" xmlns="http://www.w3.org/2000/svg">
<mask id="path-1-inside-1_22_784" fill="white">
<path d="M39.7041 262.149C39.7041 262.149 39.7041 344.038 402 344.038C764.297 344.038 764.297 262.149 764.297 262.149L679.926 1172.63C679.926 1172.63 679.926 1279.56 402 1279.56C124.074 1279.56 124.074 1172.63 124.074 1172.63L39.7041 262.149Z"/>
</mask>
<path d="M39.7041 262.149C39.7041 262.149 39.7041 344.038 402 344.038C764.297 344.038 764.297 262.149 764.297 262.149L679.926 1172.63C679.926 1172.63 679.926 1279.56 402 1279.56C124.074 1279.56 124.074 1172.63 124.074 1172.63L39.7041 262.149Z" fill="#F4F4F4"/>
<path d="M39.7041 262.149L48.6657 261.319L30.7041 262.149H39.7041ZM764.297 262.149H773.297L755.335 261.319L764.297 262.149ZM679.926 1172.63L670.965 1171.8L670.926 1172.21V1172.63H679.926ZM124.074 1172.63L133.074 1172.63L133.074 1172.21L133.036 1171.8L124.074 1172.63ZM755.335 261.319L670.965 1171.8L688.888 1173.46L773.258 262.98L755.335 261.319ZM133.036 1171.8L48.6657 261.319L30.7425 262.98L115.113 1173.46L133.036 1171.8ZM679.926 1172.63C670.926 1172.63 670.926 1172.62 670.926 1172.61C670.926 1172.6 670.926 1172.59 670.926 1172.59C670.926 1172.57 670.927 1172.56 670.927 1172.55C670.927 1172.54 670.927 1172.53 670.927 1172.52C670.927 1172.51 670.927 1172.52 670.926 1172.56C670.923 1172.63 670.914 1172.8 670.892 1173.05C670.848 1173.56 670.75 1174.42 670.535 1175.58C670.105 1177.9 669.205 1181.42 667.325 1185.76C663.592 1194.38 655.862 1206.52 639.697 1218.96C607.214 1243.95 540.061 1270.56 402 1270.56V1288.56C541.866 1288.56 613.676 1261.69 650.674 1233.22C669.25 1218.93 678.891 1204.34 683.842 1192.91C686.305 1187.23 687.577 1182.4 688.232 1178.86C688.56 1177.1 688.733 1175.66 688.825 1174.61C688.871 1174.08 688.896 1173.64 688.91 1173.31C688.917 1173.15 688.921 1173 688.923 1172.89C688.925 1172.83 688.925 1172.78 688.926 1172.74C688.926 1172.72 688.926 1172.7 688.926 1172.68C688.926 1172.67 688.926 1172.66 688.926 1172.65C688.926 1172.64 688.926 1172.63 679.926 1172.63ZM402 1270.56C263.94 1270.56 196.787 1243.95 164.304 1218.96C148.139 1206.52 140.409 1194.38 136.675 1185.76C134.796 1181.42 133.896 1177.9 133.466 1175.58C133.251 1174.42 133.153 1173.56 133.109 1173.05C133.087 1172.8 133.078 1172.63 133.075 1172.56C133.074 1172.52 133.073 1172.51 133.074 1172.52C133.074 1172.53 133.074 1172.54 133.074 1172.55C133.074 1172.56 133.074 1172.57 133.074 1172.59C133.074 1172.59 133.074 1172.6 133.074 1172.61C133.074 1172.62 133.074 1172.63 124.074 1172.63C115.074 1172.63 115.074 1172.64 115.075 1172.65C115.075 1172.66 115.075 1172.67 115.075 1172.68C115.075 1172.7 115.075 1172.72 115.075 1172.74C115.076 1172.78 115.076 1172.83 115.077 1172.89C115.08 1173 115.084 1173.15 115.091 1173.31C115.105 1173.64 115.13 1174.08 115.176 1174.61C115.268 1175.66 115.441 1177.1 115.769 1178.86C116.424 1182.4 117.696 1187.23 120.159 1192.91C125.11 1204.34 134.75 1218.93 153.327 1233.22C190.325 1261.69 262.135 1288.56 402 1288.56V1270.56ZM39.7041 262.149C30.7041 262.149 30.7041 262.169 30.7042 262.189C30.7042 262.196 30.7043 262.217 30.7045 262.231C30.7047 262.26 30.7051 262.29 30.7056 262.321C30.7067 262.384 30.7085 262.452 30.711 262.525C30.7162 262.671 30.7246 262.838 30.738 263.025C30.7647 263.399 30.8109 263.854 30.8889 264.382C31.045 265.441 31.3272 266.789 31.83 268.38C32.8406 271.578 34.7125 275.663 38.1213 280.286C44.9326 289.523 57.6492 300.611 81.2838 311.295C128.335 332.565 220.455 353.038 402 353.038V335.038C221.249 335.038 132.221 314.568 88.6984 294.893C67.046 285.105 57.1191 275.72 52.6086 269.603C50.3566 266.549 49.398 264.236 48.9934 262.956C48.7886 262.308 48.7171 261.897 48.6963 261.756C48.6857 261.685 48.6877 261.679 48.6923 261.744C48.6946 261.776 48.6976 261.825 48.6999 261.893C48.7011 261.927 48.7022 261.965 48.7029 262.008C48.7033 262.029 48.7036 262.051 48.7038 262.075C48.7039 262.087 48.704 262.106 48.704 262.111C48.7041 262.13 48.7041 262.149 39.7041 262.149ZM402 353.038C583.546 353.038 675.666 332.565 722.717 311.295C746.352 300.611 759.068 289.523 765.879 280.286C769.288 275.663 771.16 271.578 772.171 268.38C772.674 266.789 772.956 265.441 773.112 264.382C773.19 263.854 773.236 263.399 773.263 263.025C773.276 262.838 773.285 262.671 773.29 262.525C773.292 262.452 773.294 262.384 773.295 262.321C773.296 262.29 773.296 262.26 773.296 262.231C773.296 262.217 773.297 262.196 773.297 262.189C773.297 262.169 773.297 262.149 764.297 262.149C755.297 262.149 755.297 262.13 755.297 262.111C755.297 262.106 755.297 262.087 755.297 262.075C755.297 262.051 755.298 262.029 755.298 262.008C755.299 261.965 755.3 261.927 755.301 261.893C755.303 261.825 755.306 261.776 755.308 261.744C755.313 261.679 755.315 261.685 755.305 261.756C755.284 261.897 755.212 262.308 755.007 262.956C754.603 264.236 753.644 266.549 751.392 269.603C746.882 275.72 736.955 285.105 715.302 294.893C671.779 314.568 582.751 335.038 402 335.038V353.038Z" fill="#5A5A5A" mask="url(#path-1-inside-1_22_784)"/>
<path d="M714.338 455.405C734.662 448.629 746.611 441.735 753.664 435.895L720.203 867.95C719.879 868.371 719.408 868.953 718.766 869.677C717.176 871.467 714.533 874.13 710.463 877.382C702.324 883.883 688.455 892.756 665.863 901.698C620.65 919.593 540.61 937.723 402 937.723C263.391 937.723 183.35 919.593 138.138 901.698C115.546 892.756 101.677 883.883 93.5381 877.382C89.4679 874.13 86.8246 871.467 85.2352 869.677C84.5931 868.953 84.1221 868.371 83.798 867.95L50.3368 435.895C57.3898 441.735 69.3386 448.629 89.663 455.405C135.61 470.724 225.524 485.809 402 485.809C578.477 485.809 668.391 470.724 714.338 455.405Z" fill="#E2D7D9" stroke="#5A5A5A" stroke-width="9"/>
<path d="M4.5 153.693V230.298C11.7522 219.06 24.7484 205.307 47.9772 191.714C99.2517 161.709 200.708 132.286 402 132.286C603.292 132.286 704.748 161.709 756.023 191.714C779.252 205.307 792.248 219.06 799.5 230.298V153.693C799.5 153.674 799.498 153.634 799.495 153.571C799.487 153.433 799.47 153.19 799.431 152.849C799.353 152.166 799.189 151.09 798.843 149.674C798.153 146.846 796.733 142.644 793.809 137.509C787.973 127.264 776.022 113.097 751.477 98.7333C702.252 69.9273 602.708 40.5383 402 40.5383C201.292 40.5383 101.748 69.9273 52.5228 98.7333C27.9778 113.097 16.0273 127.264 10.1914 137.509C7.26659 142.644 5.84709 146.846 5.15678 149.674C4.8111 151.09 4.64698 152.166 4.56922 152.849C4.53034 153.19 4.51303 153.433 4.50545 153.571C4.50196 153.634 4.50053 153.675 4.5 153.693ZM799.5 153.697L799.5 153.7C799.5 153.706 799.5 153.705 799.5 153.697Z" fill="#F4F4F4" stroke="#5A5A5A" stroke-width="9"/>
<path d="M44.2068 199.004C44.2047 199.04 44.2036 199.065 44.2031 199.079V264.855L759.796 259.424V199.079C759.795 199.065 759.794 199.04 759.792 199.004C759.786 198.899 759.772 198.704 759.739 198.424C759.672 197.863 759.53 196.962 759.227 195.768C758.621 193.384 757.367 189.805 754.764 185.412C749.569 176.647 738.876 164.431 716.803 152.016C672.52 127.109 582.873 101.649 401.999 101.649C221.126 101.649 131.479 127.109 87.1962 152.016C65.123 164.431 54.4297 176.647 49.2352 185.412C46.6318 189.805 45.3778 193.384 44.7723 195.768C44.4689 196.962 44.3267 197.863 44.2603 198.424C44.2271 198.704 44.2128 198.899 44.2068 199.004Z" fill="url(#paint0_radial_22_784)" stroke="#5A5A5A" stroke-width="9"/>
<path d="M4.5 243.754V167.149C11.7522 178.387 24.7484 192.14 47.9772 205.734C99.2517 235.739 200.708 265.161 402 265.161C603.292 265.161 704.748 235.739 756.023 205.734C779.252 192.14 792.248 178.387 799.5 167.149V243.754C799.499 243.772 799.498 243.813 799.495 243.876C799.487 244.014 799.47 244.257 799.431 244.598C799.353 245.281 799.189 246.358 798.843 247.774C798.153 250.601 796.733 254.803 793.809 259.938C787.973 270.183 776.022 284.351 751.477 298.714C702.252 327.52 602.708 356.909 402 356.909C201.292 356.909 101.748 327.52 52.5228 298.714C27.9778 284.351 16.0273 270.183 10.1914 259.938C7.26659 254.803 5.84709 250.601 5.15678 247.774C4.8111 246.358 4.64698 245.281 4.56922 244.598C4.53034 244.257 4.51303 244.014 4.50545 243.876C4.50196 243.813 4.50053 243.772 4.5 243.754ZM4.49978 243.748L4.49988 243.75C4.49967 243.742 4.4997 243.742 4.49978 243.748Z" fill="#F4F4F4" stroke="#5A5A5A" stroke-width="9"/>
<path d="M150.022 184.771C150.586 176.42 153.042 167.645 161.105 165.401C165.336 164.224 171.251 163.532 179.483 164.088C187.716 164.644 193.484 166.126 197.517 167.862C205.206 171.17 206.458 180.196 205.894 188.547L204.857 203.889C204.634 207.196 201.773 209.695 198.466 209.471L154.567 206.505C151.26 206.281 148.761 203.42 148.985 200.114L150.022 184.771Z" fill="#D9D9D9"/>
<path d="M292.066 151.497C290.217 146.446 289.451 140.703 293.322 136.97C296.627 133.783 302.623 130.072 313.502 127.186C329.335 122.985 337.052 125.428 340.458 127.556C342.247 128.674 343.222 130.62 344.044 132.563L362.298 175.716C363.414 178.353 361.478 181.274 358.614 181.274L305.761 181.274C304.082 181.274 302.582 180.226 302.005 178.649L292.066 151.497Z" fill="#D9D9D9"/>
<path d="M467.358 189.605C474.441 188.306 482.268 188.409 486.097 194.509C488.376 198.139 490.656 203.681 492.206 212.135C492.206 219.428 490.73 224.149 489.459 226.863C488.518 228.87 486.396 229.817 484.179 229.817L413.361 229.817C413.361 229.817 407.799 229.817 402.473 229.817C398.611 229.817 395.242 227.053 394.85 223.211C394.291 217.728 394.522 213.611 395.105 210.54C396.307 204.205 402.657 201.473 409 200.31L467.358 189.605Z" fill="#D9D9D9"/>
<path d="M569.142 144.421C570.57 139.19 572.986 133.833 578.295 132.733C581.869 131.993 587.134 131.896 594.779 133.587C600.337 134.816 604.355 136.372 607.26 137.967C613.938 141.634 613.8 149.931 611.794 157.28L600.632 198.162C600.038 200.337 598.062 201.845 595.808 201.845L560.004 201.845C556.706 201.845 554.312 198.709 555.181 195.528L569.142 144.421Z" fill="#D9D9D9"/>
<g opacity="0.5">
<path d="M804 153.89C804 225.155 624.018 282.927 402 282.927C179.982 282.927 0 225.155 0 153.89C0 82.6249 179.982 24.853 402 24.853C624.018 24.853 804 82.6249 804 153.89Z" fill="#F4F4F4"/>
<path d="M804 153.89C804 225.155 624.018 282.927 402 282.927C179.982 282.927 0 225.155 0 153.89C0 82.6249 179.982 24.853 402 24.853C624.018 24.853 804 82.6249 804 153.89Z" stroke="#5A5A5A"/>
</g>
<path opacity="0.5" d="M710.166 69.5196C710.166 72.8492 708.668 76.4948 705.004 80.4743C701.317 84.4779 695.663 88.5562 688.003 92.5813C672.69 100.626 650.237 108.008 622.112 114.258C565.937 126.741 488.113 134.501 402 134.501C315.887 134.501 238.063 126.741 181.887 114.258C153.763 108.008 131.31 100.626 115.997 92.5813C108.336 88.5562 102.682 84.4779 98.9956 80.4743C95.3311 76.4948 93.833 72.8492 93.833 69.5196C93.833 66.1899 95.3311 62.5444 98.9956 58.5649C102.682 54.5612 108.336 50.4829 115.997 46.4579C131.31 38.4127 153.763 31.0314 181.887 24.7816C238.063 12.2981 315.887 4.53809 402 4.53809C488.113 4.53809 565.937 12.2981 622.112 24.7816C650.237 31.0314 672.69 38.4127 688.003 46.4579C695.663 50.4829 701.317 54.5612 705.004 58.5649C708.668 62.5444 710.166 66.1899 710.166 69.5196Z" fill="#F4F4F4" stroke="#5A5A5A" stroke-width="9"/>
<path opacity="0.5" d="M93.833 136.429V76.805C99.8859 83.4869 109.922 91.2181 126.547 98.81C166.518 117.063 245.465 134.912 402 134.912C558.534 134.912 637.481 117.063 677.452 98.81C694.078 91.218 704.114 83.4869 710.166 76.805V136.429C710.163 136.469 710.155 136.551 710.137 136.672C710.094 136.967 709.993 137.502 709.761 138.244C709.299 139.72 708.303 142.068 706.146 145.022C701.831 150.933 692.756 159.426 673.714 168.122C635.518 185.564 558.132 203.41 402 203.41C245.868 203.41 168.481 185.564 130.286 168.122C111.244 159.426 102.168 150.933 97.8531 145.022C95.6968 142.068 94.7003 139.72 94.2384 138.244C94.0063 137.502 93.9053 136.967 93.8621 136.672C93.8445 136.551 93.8364 136.469 93.833 136.429Z" fill="#F4F4F4" stroke="#5A5A5A" stroke-width="9"/>
<defs>
<radialGradient id="paint0_radial_22_784" cx="0" cy="0" r="1" gradientUnits="userSpaceOnUse" gradientTransform="translate(401.999 183.27) rotate(180) scale(362.296 86.1201)">
<stop stop-color="#8E5A44"/>
<stop offset="1" stop-color="#775A4E"/>
</radialGradient>
</defs>
</svg>
