<svg width="804" height="1280" viewBox="0 0 804 1280" fill="none" xmlns="http://www.w3.org/2000/svg">
<mask id="path-1-inside-1_30_1139" fill="white">
<path d="M39.7041 262.112C39.7041 262.112 39.7041 344.001 402 344.001C764.297 344.001 764.297 262.112 764.297 262.112L679.926 1172.59C679.926 1172.59 679.926 1279.52 402 1279.52C124.074 1279.52 124.074 1172.59 124.074 1172.59L39.7041 262.112Z"/>
</mask>
<path d="M39.7041 262.112C39.7041 262.112 39.7041 344.001 402 344.001C764.297 344.001 764.297 262.112 764.297 262.112L679.926 1172.59C679.926 1172.59 679.926 1279.52 402 1279.52C124.074 1279.52 124.074 1172.59 124.074 1172.59L39.7041 262.112Z" fill="#F4F4F4"/>
<path d="M39.7041 262.112L48.6657 261.281L30.7041 262.112H39.7041ZM764.297 262.112H773.297L755.335 261.281L764.297 262.112ZM679.926 1172.59L670.965 1171.76L670.926 1172.17V1172.59H679.926ZM124.074 1172.59L133.074 1172.59L133.074 1172.17L133.036 1171.76L124.074 1172.59ZM755.335 261.281L670.965 1171.76L688.888 1173.42L773.258 262.942L755.335 261.281ZM133.036 1171.76L48.6657 261.281L30.7425 262.942L115.113 1173.42L133.036 1171.76ZM679.926 1172.59C670.926 1172.59 670.926 1172.58 670.926 1172.57C670.926 1172.57 670.926 1172.56 670.926 1172.55C670.926 1172.54 670.927 1172.53 670.927 1172.52C670.927 1172.5 670.927 1172.49 670.927 1172.48C670.927 1172.47 670.927 1172.48 670.926 1172.52C670.923 1172.59 670.914 1172.76 670.892 1173.01C670.848 1173.52 670.75 1174.38 670.535 1175.54C670.105 1177.86 669.205 1181.38 667.325 1185.72C663.592 1194.34 655.862 1206.48 639.697 1218.92C607.214 1243.92 540.061 1270.52 402 1270.52V1288.52C541.866 1288.52 613.676 1261.66 650.674 1233.19C669.25 1218.89 678.891 1204.31 683.842 1192.88C686.305 1187.19 687.577 1182.36 688.232 1178.83C688.56 1177.06 688.733 1175.62 688.825 1174.57C688.871 1174.04 688.896 1173.61 688.91 1173.27C688.917 1173.11 688.921 1172.97 688.923 1172.85C688.925 1172.8 688.925 1172.75 688.926 1172.7C688.926 1172.68 688.926 1172.66 688.926 1172.64C688.926 1172.63 688.926 1172.62 688.926 1172.61C688.926 1172.6 688.926 1172.59 679.926 1172.59ZM402 1270.52C263.94 1270.52 196.787 1243.92 164.304 1218.92C148.139 1206.48 140.409 1194.34 136.675 1185.72C134.796 1181.38 133.896 1177.86 133.466 1175.54C133.251 1174.38 133.153 1173.52 133.109 1173.01C133.087 1172.76 133.078 1172.59 133.075 1172.52C133.074 1172.48 133.073 1172.47 133.074 1172.48C133.074 1172.49 133.074 1172.5 133.074 1172.52C133.074 1172.53 133.074 1172.54 133.074 1172.55C133.074 1172.56 133.074 1172.57 133.074 1172.57C133.074 1172.58 133.074 1172.59 124.074 1172.59C115.074 1172.59 115.074 1172.6 115.075 1172.61C115.075 1172.62 115.075 1172.63 115.075 1172.64C115.075 1172.66 115.075 1172.68 115.075 1172.7C115.076 1172.75 115.076 1172.8 115.077 1172.85C115.08 1172.97 115.084 1173.11 115.091 1173.27C115.105 1173.61 115.13 1174.04 115.176 1174.57C115.268 1175.62 115.441 1177.06 115.769 1178.83C116.424 1182.36 117.696 1187.19 120.159 1192.88C125.11 1204.31 134.75 1218.89 153.327 1233.19C190.325 1261.66 262.135 1288.52 402 1288.52V1270.52ZM39.7041 262.112C30.7041 262.112 30.7041 262.132 30.7042 262.152C30.7042 262.159 30.7043 262.179 30.7045 262.194C30.7047 262.222 30.7051 262.252 30.7056 262.283C30.7067 262.346 30.7085 262.414 30.711 262.487C30.7162 262.633 30.7246 262.8 30.738 262.987C30.7647 263.362 30.8109 263.816 30.8889 264.345C31.045 265.403 31.3272 266.751 31.83 268.342C32.8406 271.54 34.7125 275.625 38.1213 280.248C44.9326 289.485 57.6492 300.573 81.2838 311.257C128.335 332.527 220.455 353.001 402 353.001V335.001C221.249 335.001 132.221 314.53 88.6984 294.855C67.046 285.067 57.1191 275.683 52.6086 269.566C50.3566 266.511 49.398 264.199 48.9934 262.919C48.7886 262.271 48.7171 261.859 48.6963 261.718C48.6857 261.647 48.6877 261.642 48.6923 261.706C48.6946 261.738 48.6976 261.788 48.6999 261.855C48.7011 261.889 48.7022 261.927 48.7029 261.97C48.7033 261.991 48.7036 262.014 48.7038 262.037C48.7039 262.049 48.704 262.068 48.704 262.074C48.7041 262.093 48.7041 262.112 39.7041 262.112ZM402 353.001C583.546 353.001 675.666 332.527 722.717 311.257C746.352 300.573 759.068 289.485 765.879 280.248C769.288 275.625 771.16 271.54 772.171 268.342C772.674 266.751 772.956 265.403 773.112 264.345C773.19 263.816 773.236 263.362 773.263 262.987C773.276 262.8 773.285 262.633 773.29 262.487C773.292 262.414 773.294 262.346 773.295 262.283C773.296 262.252 773.296 262.222 773.296 262.194C773.296 262.179 773.297 262.159 773.297 262.152C773.297 262.132 773.297 262.112 764.297 262.112C755.297 262.112 755.297 262.093 755.297 262.074C755.297 262.068 755.297 262.049 755.297 262.037C755.297 262.014 755.298 261.991 755.298 261.97C755.299 261.927 755.3 261.889 755.301 261.855C755.303 261.788 755.306 261.738 755.308 261.706C755.313 261.642 755.315 261.647 755.305 261.718C755.284 261.859 755.212 262.271 755.007 262.919C754.603 264.199 753.644 266.511 751.392 269.566C746.882 275.683 736.955 285.067 715.302 294.855C671.779 314.53 582.751 335.001 402 335.001V353.001Z" fill="#5A5A5A" mask="url(#path-1-inside-1_30_1139)"/>
<path d="M714.338 455.367C734.662 448.591 746.611 441.697 753.664 435.856L720.203 867.911C719.879 868.333 719.408 868.915 718.766 869.639C717.176 871.429 714.533 874.092 710.463 877.344C702.324 883.845 688.455 892.718 665.863 901.66C620.65 919.555 540.61 937.685 402 937.685C263.391 937.685 183.35 919.555 138.138 901.66C115.546 892.718 101.677 883.845 93.5381 877.344C89.4679 874.092 86.8246 871.429 85.2352 869.639C84.5931 868.915 84.1221 868.333 83.798 867.911L50.3368 435.856C57.3898 441.697 69.3386 448.591 89.663 455.367C135.61 470.686 225.524 485.771 402 485.771C578.477 485.771 668.391 470.686 714.338 455.367Z" fill="#E2D7D9" stroke="#5A5A5A" stroke-width="9"/>
<path d="M4.5 153.654V230.259C11.7522 219.021 24.7484 205.268 47.9772 191.675C99.2517 161.67 200.708 132.248 402 132.248C603.292 132.248 704.748 161.67 756.023 191.675C779.252 205.268 792.248 219.021 799.5 230.259V153.654C799.5 153.636 799.498 153.595 799.495 153.532C799.487 153.395 799.47 153.152 799.431 152.81C799.353 152.128 799.189 151.051 798.843 149.635C798.153 146.807 796.733 142.605 793.809 137.471C787.973 127.226 776.022 113.058 751.477 98.6947C702.252 69.8887 602.708 40.4997 402 40.4997C201.292 40.4997 101.748 69.8887 52.5228 98.6947C27.9778 113.058 16.0273 127.226 10.1914 137.471C7.26659 142.605 5.84709 146.807 5.15678 149.635C4.8111 151.051 4.64698 152.128 4.56922 152.81C4.53034 153.152 4.51303 153.395 4.50545 153.532C4.50196 153.595 4.50053 153.636 4.5 153.654ZM799.5 153.659L799.5 153.661C799.5 153.667 799.5 153.666 799.5 153.659Z" fill="#F4F4F4" stroke="#5A5A5A" stroke-width="9"/>
<path d="M44.2068 198.966C44.2047 199.002 44.2036 199.027 44.2031 199.042V264.818L759.796 259.386V199.041C759.795 199.027 759.794 199.002 759.792 198.966C759.786 198.862 759.772 198.666 759.739 198.386C759.672 197.826 759.53 196.925 759.227 195.73C758.621 193.346 757.367 189.768 754.764 185.375C749.569 176.61 738.876 164.394 716.803 151.978C672.52 127.071 582.873 101.612 401.999 101.612C221.126 101.612 131.479 127.071 87.1962 151.978C65.123 164.394 54.4297 176.61 49.2352 185.375C46.6318 189.768 45.3778 193.346 44.7723 195.73C44.4689 196.925 44.3267 197.826 44.2603 198.386C44.2271 198.666 44.2128 198.862 44.2068 198.966Z" fill="url(#paint0_radial_30_1139)" stroke="#5A5A5A" stroke-width="9"/>
<path d="M4.5 243.716V167.111C11.7522 178.349 24.7484 192.102 47.9772 205.695C99.2517 235.701 200.708 265.123 402 265.123C603.292 265.123 704.748 235.701 756.023 205.695C779.252 192.102 792.248 178.349 799.5 167.111V243.716C799.499 243.734 799.498 243.775 799.495 243.838C799.487 243.976 799.47 244.219 799.431 244.56C799.353 245.243 799.189 246.319 798.843 247.735C798.153 250.563 796.733 254.765 793.809 259.9C787.973 270.145 776.022 284.312 751.477 298.676C702.252 327.482 602.708 356.871 402 356.871C201.292 356.871 101.748 327.482 52.5228 298.676C27.9778 284.312 16.0273 270.145 10.1914 259.9C7.26659 254.765 5.84709 250.563 5.15678 247.735C4.8111 246.319 4.64698 245.243 4.56922 244.56C4.53034 244.219 4.51303 243.976 4.50545 243.838C4.50196 243.775 4.50053 243.734 4.5 243.716ZM4.49978 243.709L4.49988 243.712C4.49967 243.704 4.4997 243.703 4.49978 243.709Z" fill="#F4F4F4" stroke="#5A5A5A" stroke-width="9"/>
<g opacity="0.5">
<path d="M804 153.852C804 225.117 624.018 282.889 402 282.889C179.982 282.889 0 225.117 0 153.852C0 82.5868 179.982 24.8149 402 24.8149C624.018 24.8149 804 82.5868 804 153.852Z" fill="#F4F4F4"/>
<path d="M804 153.852C804 225.117 624.018 282.889 402 282.889C179.982 282.889 0 225.117 0 153.852C0 82.5868 179.982 24.8149 402 24.8149C624.018 24.8149 804 82.5868 804 153.852Z" stroke="#5A5A5A"/>
</g>
<path opacity="0.5" d="M710.166 69.4815C710.166 72.8111 708.668 76.4567 705.004 80.4362C701.317 84.4398 695.663 88.5182 688.003 92.5432C672.69 100.588 650.237 107.97 622.112 114.219C565.937 126.703 488.113 134.463 402 134.463C315.887 134.463 238.063 126.703 181.887 114.219C153.763 107.97 131.31 100.588 115.997 92.5432C108.336 88.5182 102.682 84.4398 98.9956 80.4362C95.3311 76.4567 93.833 72.8111 93.833 69.4815C93.833 66.1518 95.3311 62.5063 98.9956 58.5268C102.682 54.5231 108.336 50.4448 115.997 46.4198C131.31 38.3747 153.763 30.9933 181.887 24.7435C238.063 12.26 315.887 4.5 402 4.5C488.113 4.5 565.937 12.26 622.112 24.7435C650.237 30.9933 672.69 38.3747 688.003 46.4198C695.663 50.4448 701.317 54.5231 705.004 58.5268C708.668 62.5063 710.166 66.1518 710.166 69.4815Z" fill="#F4F4F4" stroke="#5A5A5A" stroke-width="9"/>
<path opacity="0.5" d="M93.833 136.391V76.7669C99.8859 83.4488 109.922 91.18 126.547 98.7719C166.518 117.025 245.465 134.874 402 134.874C558.534 134.874 637.481 117.025 677.452 98.7719C694.078 91.18 704.114 83.4488 710.166 76.7669V136.391C710.163 136.431 710.155 136.513 710.137 136.634C710.094 136.929 709.993 137.464 709.761 138.206C709.299 139.682 708.303 142.029 706.146 144.984C701.831 150.895 692.756 159.388 673.714 168.084C635.518 185.526 558.132 203.372 402 203.372C245.868 203.372 168.481 185.526 130.286 168.084C111.244 159.388 102.168 150.895 97.8531 144.984C95.6968 142.029 94.7003 139.682 94.2384 138.206C94.0063 137.464 93.9053 136.929 93.8621 136.634C93.8445 136.513 93.8364 136.431 93.833 136.391Z" fill="#F4F4F4" stroke="#5A5A5A" stroke-width="9"/>
<defs>
<radialGradient id="paint0_radial_30_1139" cx="0" cy="0" r="1" gradientUnits="userSpaceOnUse" gradientTransform="translate(401.999 183.232) rotate(180) scale(362.296 86.1201)">
<stop stop-color="#7D9577"/>
<stop offset="1" stop-color="#AEC9A7"/>
</radialGradient>
</defs>
</svg>
