<svg width="804" height="1244" viewBox="0 0 804 1244" fill="none" xmlns="http://www.w3.org/2000/svg">
<mask id="path-1-inside-1_22_648" fill="white">
<path d="M39.7041 226.15C39.7041 226.15 39.7041 308.039 402 308.039C764.297 308.039 764.297 226.15 764.297 226.15L679.926 1136.63C679.926 1136.63 679.926 1243.56 402 1243.56C124.074 1243.56 124.074 1136.63 124.074 1136.63L39.7041 226.15Z"/>
</mask>
<path d="M39.7041 226.15C39.7041 226.15 39.7041 308.039 402 308.039C764.297 308.039 764.297 226.15 764.297 226.15L679.926 1136.63C679.926 1136.63 679.926 1243.56 402 1243.56C124.074 1243.56 124.074 1136.63 124.074 1136.63L39.7041 226.15Z" fill="#F4F4F4"/>
<path d="M39.7041 226.15L48.6657 225.319L30.7041 226.15H39.7041ZM764.297 226.15H773.297L755.335 225.319L764.297 226.15ZM679.926 1136.63L670.965 1135.8L670.926 1136.21V1136.63H679.926ZM124.074 1136.63L133.074 1136.63L133.074 1136.21L133.036 1135.8L124.074 1136.63ZM755.335 225.319L670.965 1135.8L688.888 1137.46L773.258 226.98L755.335 225.319ZM133.036 1135.8L48.6657 225.319L30.7425 226.98L115.113 1137.46L133.036 1135.8ZM679.926 1136.63C670.926 1136.63 670.926 1136.62 670.926 1136.61C670.926 1136.6 670.926 1136.59 670.926 1136.59C670.926 1136.57 670.927 1136.56 670.927 1136.56C670.927 1136.54 670.927 1136.53 670.927 1136.52C670.927 1136.51 670.927 1136.52 670.926 1136.56C670.923 1136.63 670.914 1136.8 670.892 1137.05C670.848 1137.56 670.75 1138.42 670.535 1139.58C670.105 1141.9 669.205 1145.42 667.325 1149.76C663.592 1158.38 655.862 1170.52 639.697 1182.96C607.214 1207.96 540.061 1234.56 402 1234.56V1252.56C541.866 1252.56 613.676 1225.69 650.674 1197.23C669.25 1182.93 678.891 1168.34 683.842 1156.91C686.305 1151.23 687.577 1146.4 688.232 1142.87C688.56 1141.1 688.733 1139.66 688.825 1138.61C688.871 1138.08 688.896 1137.64 688.91 1137.31C688.917 1137.15 688.921 1137.01 688.923 1136.89C688.925 1136.83 688.925 1136.78 688.926 1136.74C688.926 1136.72 688.926 1136.7 688.926 1136.68C688.926 1136.67 688.926 1136.66 688.926 1136.65C688.926 1136.64 688.926 1136.63 679.926 1136.63ZM402 1234.56C263.94 1234.56 196.787 1207.96 164.304 1182.96C148.139 1170.52 140.409 1158.38 136.675 1149.76C134.796 1145.42 133.896 1141.9 133.466 1139.58C133.251 1138.42 133.153 1137.56 133.109 1137.05C133.087 1136.8 133.078 1136.63 133.075 1136.56C133.074 1136.52 133.073 1136.51 133.074 1136.52C133.074 1136.53 133.074 1136.54 133.074 1136.56C133.074 1136.56 133.074 1136.57 133.074 1136.59C133.074 1136.59 133.074 1136.6 133.074 1136.61C133.074 1136.62 133.074 1136.63 124.074 1136.63C115.074 1136.63 115.074 1136.64 115.075 1136.65C115.075 1136.66 115.075 1136.67 115.075 1136.68C115.075 1136.7 115.075 1136.72 115.075 1136.74C115.076 1136.78 115.076 1136.83 115.077 1136.89C115.08 1137.01 115.084 1137.15 115.091 1137.31C115.105 1137.64 115.13 1138.08 115.176 1138.61C115.268 1139.66 115.441 1141.1 115.769 1142.87C116.424 1146.4 117.696 1151.23 120.159 1156.91C125.11 1168.34 134.75 1182.93 153.327 1197.23C190.325 1225.69 262.135 1252.56 402 1252.56V1234.56ZM39.7041 226.15C30.7041 226.15 30.7041 226.17 30.7042 226.19C30.7042 226.197 30.7043 226.217 30.7045 226.232C30.7047 226.26 30.7051 226.29 30.7056 226.322C30.7067 226.384 30.7085 226.452 30.711 226.525C30.7162 226.671 30.7246 226.838 30.738 227.025C30.7647 227.4 30.8109 227.854 30.8889 228.383C31.045 229.441 31.3272 230.789 31.83 232.381C32.8406 235.578 34.7125 239.663 38.1213 244.286C44.9326 253.524 57.6492 264.611 81.2838 275.295C128.335 296.565 220.455 317.039 402 317.039V299.039C221.249 299.039 132.221 278.568 88.6984 258.893C67.046 249.105 57.1191 239.721 52.6086 233.604C50.3566 230.55 49.398 228.237 48.9934 226.957C48.7886 226.309 48.7171 225.898 48.6963 225.756C48.6857 225.685 48.6877 225.68 48.6923 225.744C48.6946 225.776 48.6976 225.826 48.6999 225.893C48.7011 225.927 48.7022 225.965 48.7029 226.008C48.7033 226.029 48.7036 226.052 48.7038 226.076C48.7039 226.087 48.704 226.106 48.704 226.112C48.7041 226.131 48.7041 226.15 39.7041 226.15ZM402 317.039C583.546 317.039 675.666 296.565 722.717 275.295C746.352 264.611 759.068 253.524 765.879 244.286C769.288 239.663 771.16 235.578 772.171 232.381C772.674 230.789 772.956 229.441 773.112 228.383C773.19 227.854 773.236 227.4 773.263 227.025C773.276 226.838 773.285 226.671 773.29 226.525C773.292 226.452 773.294 226.384 773.295 226.322C773.296 226.29 773.296 226.26 773.296 226.232C773.296 226.217 773.297 226.197 773.297 226.19C773.297 226.17 773.297 226.15 764.297 226.15C755.297 226.15 755.297 226.131 755.297 226.112C755.297 226.106 755.297 226.087 755.297 226.076C755.297 226.052 755.298 226.029 755.298 226.008C755.299 225.965 755.3 225.927 755.301 225.893C755.303 225.826 755.306 225.776 755.308 225.744C755.313 225.68 755.315 225.685 755.305 225.756C755.284 225.898 755.212 226.309 755.007 226.957C754.603 228.237 753.644 230.55 751.392 233.604C746.882 239.721 736.955 249.105 715.302 258.893C671.779 278.568 582.751 299.039 402 299.039V317.039Z" fill="#5A5A5A" mask="url(#path-1-inside-1_22_648)"/>
<path d="M714.338 419.405C734.662 412.629 746.611 405.735 753.664 399.895L720.203 831.95C719.879 832.371 719.408 832.953 718.766 833.677C717.176 835.467 714.533 838.13 710.463 841.382C702.324 847.883 688.455 856.756 665.863 865.698C620.65 883.593 540.61 901.723 402 901.723C263.391 901.723 183.35 883.593 138.138 865.698C115.546 856.756 101.677 847.883 93.5381 841.382C89.4679 838.13 86.8246 835.467 85.2352 833.677C84.5931 832.953 84.1221 832.371 83.798 831.95L50.3368 399.895C57.3898 405.735 69.3386 412.629 89.663 419.405C135.61 434.724 225.524 449.809 402 449.809C578.477 449.809 668.391 434.724 714.338 419.405Z" fill="#E2D7D9" stroke="#5A5A5A" stroke-width="9"/>
<path d="M4.5 117.693V194.298C11.7522 183.06 24.7484 169.307 47.9772 155.714C99.2517 125.709 200.708 96.2865 402 96.2865C603.292 96.2865 704.748 125.709 756.023 155.714C779.252 169.307 792.248 183.06 799.5 194.298V117.693C799.5 117.674 799.498 117.634 799.495 117.571C799.487 117.433 799.47 117.19 799.431 116.849C799.353 116.166 799.189 115.09 798.843 113.674C798.153 110.846 796.733 106.644 793.809 101.509C787.973 91.2642 776.022 77.0966 751.477 62.7333C702.252 33.9273 602.708 4.53831 402 4.53831C201.292 4.53831 101.748 33.9273 52.5228 62.7333C27.9778 77.0966 16.0273 91.2642 10.1914 101.509C7.26659 106.644 5.84709 110.846 5.15678 113.674C4.8111 115.09 4.64698 116.166 4.56922 116.849C4.53034 117.19 4.51303 117.433 4.50545 117.571C4.50196 117.634 4.50053 117.675 4.5 117.693ZM799.5 117.697L799.5 117.7C799.5 117.706 799.5 117.705 799.5 117.697Z" fill="#F4F4F4" stroke="#5A5A5A" stroke-width="9"/>
<path d="M44.2068 163.004C44.2047 163.04 44.2036 163.065 44.2031 163.08V228.856L759.796 223.424V163.079C759.795 163.065 759.794 163.04 759.792 163.004C759.786 162.9 759.772 162.704 759.739 162.424C759.672 161.864 759.53 160.963 759.227 159.768C758.621 157.384 757.367 153.806 754.764 149.413C749.569 140.648 738.876 128.432 716.803 116.016C672.52 91.1092 582.873 65.6498 401.999 65.6498C221.126 65.6498 131.479 91.1092 87.1962 116.016C65.123 128.432 54.4297 140.648 49.2352 149.413C46.6318 153.806 45.3778 157.384 44.7723 159.768C44.4689 160.963 44.3267 161.864 44.2603 162.424C44.2271 162.704 44.2128 162.9 44.2068 163.004Z" fill="url(#paint0_radial_22_648)" stroke="#5A5A5A" stroke-width="9"/>
<path d="M4.5 207.754V131.149C11.7522 142.387 24.7484 156.14 47.9772 169.734C99.2517 199.739 200.708 229.161 402 229.161C603.292 229.161 704.748 199.739 756.023 169.734C779.252 156.14 792.248 142.387 799.5 131.149V207.754C799.499 207.772 799.498 207.813 799.495 207.876C799.487 208.014 799.47 208.257 799.431 208.598C799.353 209.281 799.189 210.358 798.843 211.774C798.153 214.601 796.733 218.803 793.809 223.938C787.973 234.183 776.022 248.351 751.477 262.714C702.252 291.52 602.708 320.909 402 320.909C201.292 320.909 101.748 291.52 52.5228 262.714C27.9778 248.351 16.0273 234.183 10.1914 223.938C7.26659 218.803 5.84709 214.601 5.15678 211.774C4.8111 210.358 4.64698 209.281 4.56922 208.598C4.53034 208.257 4.51303 208.014 4.50545 207.876C4.50196 207.813 4.50053 207.772 4.5 207.754ZM4.49978 207.748L4.49988 207.75C4.49967 207.742 4.4997 207.742 4.49978 207.748Z" fill="#F4F4F4" stroke="#5A5A5A" stroke-width="9"/>
<path d="M150.022 148.771C150.586 140.42 153.042 131.645 161.105 129.401C165.336 128.224 171.251 127.532 179.483 128.088C187.716 128.644 193.484 130.126 197.517 131.862C205.206 135.17 206.458 144.196 205.894 152.547L204.857 167.889C204.634 171.196 201.773 173.695 198.466 173.471L154.567 170.505C151.26 170.281 148.761 167.42 148.985 164.114L150.022 148.771Z" fill="#D9D9D9"/>
<path d="M292.066 115.497C290.217 110.446 289.451 104.703 293.322 100.97C296.627 97.7829 302.623 94.0723 313.502 91.186C329.335 86.9851 337.052 89.428 340.458 91.5563C342.247 92.6743 343.222 94.6198 344.044 96.5629L362.298 139.716C363.414 142.353 361.478 145.274 358.614 145.274L305.761 145.274C304.082 145.274 302.582 144.226 302.005 142.649L292.066 115.497Z" fill="#D9D9D9"/>
<path d="M467.358 153.605C474.441 152.306 482.268 152.409 486.097 158.509C488.376 162.139 490.656 167.681 492.206 176.135C492.206 183.428 490.73 188.149 489.459 190.863C488.518 192.87 486.396 193.817 484.179 193.817L413.361 193.817C413.361 193.817 407.799 193.817 402.473 193.817C398.611 193.817 395.242 191.053 394.85 187.211C394.291 181.728 394.522 177.611 395.105 174.54C396.307 168.205 402.657 165.473 409 164.31L467.358 153.605Z" fill="#D9D9D9"/>
<path d="M569.142 108.421C570.57 103.19 572.986 97.8333 578.295 96.7335C581.869 95.9932 587.134 95.896 594.779 97.5871C600.337 98.8165 604.355 100.372 607.26 101.967C613.938 105.634 613.8 113.931 611.794 121.28L600.632 162.162C600.038 164.337 598.062 165.845 595.808 165.845L560.004 165.845C556.706 165.845 554.312 162.709 555.181 159.528L569.142 108.421Z" fill="#D9D9D9"/>
<defs>
<radialGradient id="paint0_radial_22_648" cx="0" cy="0" r="1" gradientUnits="userSpaceOnUse" gradientTransform="translate(401.999 147.27) rotate(180) scale(362.296 86.1201)">
<stop stop-color="#7D9577"/>
<stop offset="1" stop-color="#AEC9A7"/>
</radialGradient>
</defs>
</svg>
