<svg width="804" height="1537" viewBox="0 0 804 1537" fill="none" xmlns="http://www.w3.org/2000/svg">
<mask id="path-1-inside-1_22_649" fill="white">
<path d="M39.7041 519.149C39.7041 519.149 39.7041 601.038 402 601.038C764.297 601.038 764.297 519.149 764.297 519.149L679.926 1429.63C679.926 1429.63 679.926 1536.56 402 1536.56C124.074 1536.56 124.074 1429.63 124.074 1429.63L39.7041 519.149Z"/>
</mask>
<path d="M39.7041 519.149C39.7041 519.149 39.7041 601.038 402 601.038C764.297 601.038 764.297 519.149 764.297 519.149L679.926 1429.63C679.926 1429.63 679.926 1536.56 402 1536.56C124.074 1536.56 124.074 1429.63 124.074 1429.63L39.7041 519.149Z" fill="#F4F4F4"/>
<path d="M39.7041 519.149L48.6657 518.319L30.7041 519.149H39.7041ZM764.297 519.149H773.297L755.335 518.319L764.297 519.149ZM679.926 1429.63L670.965 1428.8L670.926 1429.21V1429.63H679.926ZM124.074 1429.63L133.074 1429.63L133.074 1429.21L133.036 1428.8L124.074 1429.63ZM755.335 518.319L670.965 1428.8L688.888 1430.46L773.258 519.98L755.335 518.319ZM133.036 1428.8L48.6657 518.319L30.7425 519.98L115.113 1430.46L133.036 1428.8ZM679.926 1429.63C670.926 1429.63 670.926 1429.62 670.926 1429.61C670.926 1429.6 670.926 1429.59 670.926 1429.59C670.926 1429.57 670.927 1429.56 670.927 1429.55C670.927 1429.54 670.927 1429.53 670.927 1429.52C670.927 1429.51 670.927 1429.52 670.926 1429.56C670.923 1429.63 670.914 1429.8 670.892 1430.05C670.848 1430.56 670.75 1431.42 670.535 1432.58C670.105 1434.9 669.205 1438.42 667.325 1442.76C663.592 1451.38 655.862 1463.52 639.697 1475.96C607.214 1500.95 540.061 1527.56 402 1527.56V1545.56C541.866 1545.56 613.676 1518.69 650.674 1490.22C669.25 1475.93 678.891 1461.34 683.842 1449.91C686.305 1444.23 687.577 1439.4 688.232 1435.86C688.56 1434.1 688.733 1432.66 688.825 1431.61C688.871 1431.08 688.896 1430.64 688.91 1430.31C688.917 1430.15 688.921 1430 688.923 1429.89C688.925 1429.83 688.925 1429.78 688.926 1429.74C688.926 1429.72 688.926 1429.7 688.926 1429.68C688.926 1429.67 688.926 1429.66 688.926 1429.65C688.926 1429.64 688.926 1429.63 679.926 1429.63ZM402 1527.56C263.94 1527.56 196.787 1500.95 164.304 1475.96C148.139 1463.52 140.409 1451.38 136.675 1442.76C134.796 1438.42 133.896 1434.9 133.466 1432.58C133.251 1431.42 133.153 1430.56 133.109 1430.05C133.087 1429.8 133.078 1429.63 133.075 1429.56C133.074 1429.52 133.073 1429.51 133.074 1429.52C133.074 1429.53 133.074 1429.54 133.074 1429.55C133.074 1429.56 133.074 1429.57 133.074 1429.59C133.074 1429.59 133.074 1429.6 133.074 1429.61C133.074 1429.62 133.074 1429.63 124.074 1429.63C115.074 1429.63 115.074 1429.64 115.075 1429.65C115.075 1429.66 115.075 1429.67 115.075 1429.68C115.075 1429.7 115.075 1429.72 115.075 1429.74C115.076 1429.78 115.076 1429.83 115.077 1429.89C115.08 1430 115.084 1430.15 115.091 1430.31C115.105 1430.64 115.13 1431.08 115.176 1431.61C115.268 1432.66 115.441 1434.1 115.769 1435.86C116.424 1439.4 117.696 1444.23 120.159 1449.91C125.11 1461.34 134.75 1475.93 153.327 1490.22C190.325 1518.69 262.135 1545.56 402 1545.56V1527.56ZM39.7041 519.149C30.7041 519.149 30.7041 519.169 30.7042 519.189C30.7042 519.196 30.7043 519.217 30.7045 519.231C30.7047 519.26 30.7051 519.29 30.7056 519.321C30.7067 519.384 30.7085 519.452 30.711 519.525C30.7162 519.671 30.7246 519.838 30.738 520.025C30.7647 520.399 30.8109 520.854 30.8889 521.382C31.045 522.441 31.3272 523.789 31.83 525.38C32.8406 528.578 34.7125 532.663 38.1213 537.286C44.9326 546.523 57.6492 557.611 81.2838 568.295C128.335 589.565 220.455 610.038 402 610.038V592.038C221.249 592.038 132.221 571.568 88.6984 551.893C67.046 542.105 57.1191 532.72 52.6086 526.603C50.3566 523.549 49.398 521.236 48.9934 519.956C48.7886 519.308 48.7171 518.897 48.6963 518.756C48.6857 518.685 48.6877 518.679 48.6923 518.744C48.6946 518.776 48.6976 518.825 48.6999 518.893C48.7011 518.927 48.7022 518.965 48.7029 519.008C48.7033 519.029 48.7036 519.051 48.7038 519.075C48.7039 519.087 48.704 519.106 48.704 519.111C48.7041 519.13 48.7041 519.149 39.7041 519.149ZM402 610.038C583.546 610.038 675.666 589.565 722.717 568.295C746.352 557.611 759.068 546.523 765.879 537.286C769.288 532.663 771.16 528.578 772.171 525.38C772.674 523.789 772.956 522.441 773.112 521.382C773.19 520.854 773.236 520.399 773.263 520.025C773.276 519.838 773.285 519.671 773.29 519.525C773.292 519.452 773.294 519.384 773.295 519.321C773.296 519.29 773.296 519.26 773.296 519.231C773.296 519.217 773.297 519.196 773.297 519.189C773.297 519.169 773.297 519.149 764.297 519.149C755.297 519.149 755.297 519.13 755.297 519.111C755.297 519.106 755.297 519.087 755.297 519.075C755.297 519.051 755.298 519.029 755.298 519.008C755.299 518.965 755.3 518.927 755.301 518.893C755.303 518.825 755.306 518.776 755.308 518.744C755.313 518.679 755.315 518.685 755.305 518.756C755.284 518.897 755.212 519.308 755.007 519.956C754.603 521.236 753.644 523.549 751.392 526.603C746.882 532.72 736.955 542.105 715.302 551.893C671.779 571.568 582.751 592.038 402 592.038V610.038Z" fill="#5A5A5A" mask="url(#path-1-inside-1_22_649)"/>
<path d="M714.338 712.405C734.662 705.629 746.611 698.735 753.664 692.895L720.203 1124.95C719.879 1125.37 719.408 1125.95 718.766 1126.68C717.176 1128.47 714.533 1131.13 710.463 1134.38C702.324 1140.88 688.455 1149.76 665.863 1158.7C620.65 1176.59 540.61 1194.72 402 1194.72C263.391 1194.72 183.35 1176.59 138.138 1158.7C115.546 1149.76 101.677 1140.88 93.5381 1134.38C89.4679 1131.13 86.8246 1128.47 85.2352 1126.68C84.5931 1125.95 84.1221 1125.37 83.798 1124.95L50.3368 692.895C57.3898 698.735 69.3386 705.629 89.663 712.405C135.61 727.724 225.524 742.809 402 742.809C578.477 742.809 668.391 727.724 714.338 712.405Z" fill="#E2D7D9" stroke="#5A5A5A" stroke-width="9"/>
<path d="M4.5 410.693V487.298C11.7522 476.06 24.7484 462.307 47.9772 448.714C99.2517 418.709 200.708 389.286 402 389.286C603.292 389.286 704.748 418.709 756.023 448.714C779.252 462.307 792.248 476.06 799.5 487.298V410.693C799.5 410.674 799.498 410.634 799.495 410.571C799.487 410.433 799.47 410.19 799.431 409.849C799.353 409.166 799.189 408.09 798.843 406.674C798.153 403.846 796.733 399.644 793.809 394.509C787.973 384.264 776.022 370.097 751.477 355.733C702.252 326.927 602.708 297.538 402 297.538C201.292 297.538 101.748 326.927 52.5228 355.733C27.9778 370.097 16.0273 384.264 10.1914 394.509C7.26659 399.644 5.84709 403.846 5.15678 406.674C4.8111 408.09 4.64698 409.166 4.56922 409.849C4.53034 410.19 4.51303 410.433 4.50545 410.571C4.50196 410.634 4.50053 410.675 4.5 410.693ZM799.5 410.697L799.5 410.7C799.5 410.706 799.5 410.705 799.5 410.697Z" fill="#F4F4F4" stroke="#5A5A5A" stroke-width="9"/>
<path d="M44.2068 456.004C44.2047 456.04 44.2036 456.065 44.2031 456.079V521.855L759.796 516.424V456.079C759.795 456.065 759.794 456.04 759.792 456.004C759.786 455.899 759.772 455.704 759.739 455.424C759.672 454.863 759.53 453.962 759.227 452.768C758.621 450.384 757.367 446.805 754.764 442.412C749.569 433.647 738.876 421.431 716.803 409.016C672.52 384.109 582.873 358.649 401.999 358.649C221.126 358.649 131.479 384.109 87.1962 409.016C65.123 421.431 54.4297 433.647 49.2352 442.412C46.6318 446.805 45.3778 450.384 44.7723 452.768C44.4689 453.962 44.3267 454.863 44.2603 455.424C44.2271 455.704 44.2128 455.899 44.2068 456.004Z" fill="url(#paint0_radial_22_649)" stroke="#5A5A5A" stroke-width="9"/>
<path d="M4.5 500.754V424.149C11.7522 435.387 24.7484 449.14 47.9772 462.734C99.2517 492.739 200.708 522.161 402 522.161C603.292 522.161 704.748 492.739 756.023 462.734C779.252 449.14 792.248 435.387 799.5 424.149V500.754C799.499 500.772 799.498 500.813 799.495 500.876C799.487 501.014 799.47 501.257 799.431 501.598C799.353 502.281 799.189 503.358 798.843 504.774C798.153 507.601 796.733 511.803 793.809 516.938C787.973 527.183 776.022 541.351 751.477 555.714C702.252 584.52 602.708 613.909 402 613.909C201.292 613.909 101.748 584.52 52.5228 555.714C27.9778 541.351 16.0273 527.183 10.1914 516.938C7.26659 511.803 5.84709 507.601 5.15678 504.774C4.8111 503.358 4.64698 502.281 4.56922 501.598C4.53034 501.257 4.51303 501.014 4.50545 500.876C4.50196 500.813 4.50053 500.772 4.5 500.754ZM4.49978 500.748L4.49988 500.75C4.49967 500.742 4.4997 500.742 4.49978 500.748Z" fill="#F4F4F4" stroke="#5A5A5A" stroke-width="9"/>
<path d="M150.022 441.771C150.586 433.42 153.042 424.645 161.105 422.401C165.336 421.224 171.251 420.532 179.483 421.088C187.716 421.644 193.484 423.126 197.517 424.862C205.206 428.17 206.458 437.196 205.894 445.547L204.857 460.889C204.634 464.196 201.773 466.695 198.466 466.471L154.567 463.505C151.26 463.281 148.761 460.42 148.985 457.114L150.022 441.771Z" fill="#D9D9D9"/>
<path d="M292.066 408.497C290.217 403.446 289.451 397.703 293.322 393.97C296.627 390.783 302.623 387.072 313.502 384.186C329.335 379.985 337.052 382.428 340.458 384.556C342.247 385.674 343.222 387.62 344.044 389.563L362.298 432.716C363.414 435.353 361.478 438.274 358.614 438.274L305.761 438.274C304.082 438.274 302.582 437.226 302.005 435.649L292.066 408.497Z" fill="#D9D9D9"/>
<path d="M467.358 446.605C474.441 445.306 482.268 445.409 486.097 451.509C488.376 455.139 490.656 460.681 492.206 469.135C492.206 476.428 490.73 481.149 489.459 483.863C488.518 485.87 486.396 486.817 484.179 486.817L413.361 486.817C413.361 486.817 407.799 486.817 402.473 486.817C398.611 486.817 395.242 484.053 394.85 480.211C394.291 474.728 394.522 470.611 395.105 467.54C396.307 461.205 402.657 458.473 409 457.31L467.358 446.605Z" fill="#D9D9D9"/>
<path d="M569.142 401.421C570.57 396.19 572.986 390.833 578.295 389.733C581.869 388.993 587.134 388.896 594.779 390.587C600.337 391.816 604.355 393.372 607.26 394.967C613.938 398.634 613.8 406.931 611.794 414.28L600.632 455.162C600.038 457.337 598.062 458.845 595.808 458.845L560.004 458.845C556.706 458.845 554.312 455.709 555.181 452.528L569.142 401.421Z" fill="#D9D9D9"/>
<path d="M680 449.788H643L710 0.0380859H748L680 449.788Z" fill="#242424"/>
<defs>
<radialGradient id="paint0_radial_22_649" cx="0" cy="0" r="1" gradientUnits="userSpaceOnUse" gradientTransform="translate(401.999 440.27) rotate(180) scale(362.296 86.1201)">
<stop stop-color="#7D9577"/>
<stop offset="1" stop-color="#AEC9A7"/>
</radialGradient>
</defs>
</svg>
