<svg width="804" height="1541" viewBox="0 0 804 1541" fill="none" xmlns="http://www.w3.org/2000/svg">
<mask id="path-1-inside-1_30_1137" fill="white">
<path d="M39.7031 523.111C39.7031 523.111 39.7031 605 401.999 605C764.296 605 764.296 523.111 764.296 523.111L679.925 1433.59C679.925 1433.59 679.925 1540.52 401.999 1540.52C124.073 1540.52 124.074 1433.59 124.074 1433.59L39.7031 523.111Z"/>
</mask>
<path d="M39.7031 523.111C39.7031 523.111 39.7031 605 401.999 605C764.296 605 764.296 523.111 764.296 523.111L679.925 1433.59C679.925 1433.59 679.925 1540.52 401.999 1540.52C124.073 1540.52 124.074 1433.59 124.074 1433.59L39.7031 523.111Z" fill="#F4F4F4"/>
<path d="M39.7031 523.111L48.6647 522.281L30.7031 523.111H39.7031ZM764.296 523.111H773.296L755.334 522.281L764.296 523.111ZM679.925 1433.59L670.964 1432.76L670.925 1433.17V1433.59H679.925ZM124.074 1433.59L133.074 1433.59L133.074 1433.17L133.035 1432.76L124.074 1433.59ZM755.334 522.281L670.964 1432.76L688.887 1434.42L773.257 523.942L755.334 522.281ZM133.035 1432.76L48.6647 522.281L30.7415 523.942L115.112 1434.42L133.035 1432.76ZM679.925 1433.59C670.925 1433.59 670.925 1433.58 670.925 1433.57C670.925 1433.56 670.925 1433.55 670.925 1433.55C670.926 1433.54 670.926 1433.53 670.926 1433.52C670.926 1433.5 670.926 1433.49 670.926 1433.48C670.926 1433.47 670.926 1433.48 670.925 1433.52C670.922 1433.59 670.913 1433.76 670.891 1434.01C670.847 1434.52 670.749 1435.38 670.534 1436.54C670.104 1438.86 669.204 1442.38 667.324 1446.72C663.591 1455.34 655.861 1467.48 639.696 1479.92C607.213 1504.92 540.06 1531.52 401.999 1531.52V1549.52C541.865 1549.52 613.675 1522.66 650.673 1494.19C669.249 1479.89 678.89 1465.3 683.841 1453.87C686.304 1448.19 687.576 1443.36 688.231 1439.83C688.559 1438.06 688.732 1436.62 688.824 1435.57C688.87 1435.04 688.895 1434.6 688.909 1434.27C688.916 1434.11 688.92 1433.97 688.922 1433.85C688.924 1433.8 688.924 1433.74 688.925 1433.7C688.925 1433.68 688.925 1433.66 688.925 1433.64C688.925 1433.63 688.925 1433.62 688.925 1433.61C688.925 1433.6 688.925 1433.59 679.925 1433.59ZM401.999 1531.52C263.939 1531.52 196.786 1504.92 164.303 1479.92C148.138 1467.48 140.408 1455.34 136.675 1446.72C134.795 1442.38 133.895 1438.86 133.465 1436.54C133.25 1435.38 133.152 1434.52 133.108 1434.01C133.086 1433.76 133.077 1433.59 133.074 1433.52C133.073 1433.48 133.072 1433.47 133.073 1433.48C133.073 1433.49 133.073 1433.5 133.073 1433.52C133.073 1433.53 133.073 1433.54 133.073 1433.55C133.073 1433.55 133.073 1433.56 133.073 1433.57C133.073 1433.58 133.074 1433.59 124.074 1433.59C115.074 1433.59 115.074 1433.6 115.074 1433.61C115.074 1433.62 115.074 1433.63 115.074 1433.64C115.074 1433.66 115.074 1433.68 115.074 1433.7C115.075 1433.74 115.075 1433.8 115.076 1433.85C115.079 1433.97 115.083 1434.11 115.09 1434.27C115.104 1434.6 115.129 1435.04 115.175 1435.57C115.267 1436.62 115.44 1438.06 115.768 1439.83C116.423 1443.36 117.695 1448.19 120.158 1453.87C125.109 1465.3 134.749 1479.89 153.326 1494.19C190.324 1522.66 262.134 1549.52 401.999 1549.52V1531.52ZM39.7031 523.111C30.7031 523.111 30.7031 523.131 30.7032 523.151C30.7032 523.158 30.7034 523.179 30.7035 523.193C30.7037 523.222 30.7041 523.252 30.7047 523.283C30.7058 523.346 30.7075 523.413 30.7101 523.487C30.7152 523.633 30.7237 523.8 30.737 523.987C30.7637 524.361 30.8099 524.816 30.8879 525.344C31.044 526.403 31.3262 527.751 31.8291 529.342C32.8397 532.54 34.7115 536.625 38.1203 541.248C44.9316 550.485 57.6482 561.573 81.2829 572.257C128.334 593.526 220.454 614 401.999 614V596C221.248 596 132.22 575.53 88.6975 555.855C67.045 546.067 57.1181 536.682 52.6077 530.565C50.3556 527.511 49.397 525.198 48.9924 523.918C48.7877 523.27 48.7161 522.859 48.6953 522.718C48.6848 522.647 48.6868 522.641 48.6914 522.706C48.6937 522.738 48.6966 522.787 48.699 522.855C48.7001 522.889 48.7012 522.927 48.7019 522.97C48.7023 522.991 48.7026 523.013 48.7028 523.037C48.7029 523.049 48.703 523.067 48.703 523.073C48.7031 523.092 48.7031 523.111 39.7031 523.111ZM401.999 614C583.545 614 675.665 593.526 722.716 572.257C746.351 561.573 759.067 550.485 765.878 541.248C769.287 536.625 771.159 532.54 772.17 529.342C772.673 527.751 772.955 526.403 773.111 525.344C773.189 524.816 773.235 524.361 773.262 523.987C773.275 523.8 773.284 523.633 773.289 523.487C773.291 523.413 773.293 523.346 773.294 523.283C773.295 523.252 773.295 523.222 773.295 523.193C773.295 523.179 773.296 523.158 773.296 523.151C773.296 523.131 773.296 523.111 764.296 523.111C755.296 523.111 755.296 523.092 755.296 523.073C755.296 523.067 755.296 523.049 755.296 523.037C755.296 523.013 755.297 522.991 755.297 522.97C755.298 522.927 755.299 522.889 755.3 522.855C755.302 522.787 755.305 522.738 755.307 522.706C755.312 522.641 755.314 522.647 755.304 522.718C755.283 522.859 755.211 523.27 755.006 523.918C754.602 525.198 753.643 527.511 751.391 530.565C746.881 536.682 736.954 546.067 715.301 555.855C671.778 575.53 582.751 596 401.999 596V614Z" fill="#5A5A5A" mask="url(#path-1-inside-1_30_1137)"/>
<path d="M714.339 716.367C734.663 709.591 746.612 702.697 753.665 696.856L720.204 1128.91C719.88 1129.33 719.409 1129.92 718.767 1130.64C717.177 1132.43 714.534 1135.09 710.464 1138.34C702.325 1144.85 688.456 1153.72 665.864 1162.66C620.651 1180.56 540.611 1198.69 402.001 1198.69C263.392 1198.69 183.351 1180.56 138.139 1162.66C115.547 1153.72 101.678 1144.85 93.5391 1138.34C89.4689 1135.09 86.8256 1132.43 85.2362 1130.64C84.594 1129.92 84.1231 1129.33 83.7989 1128.91L50.3378 696.856C57.3908 702.697 69.3395 709.591 89.664 716.367C135.611 731.686 225.525 746.771 402.001 746.771C578.478 746.771 668.392 731.686 714.339 716.367Z" fill="#E2D7D9" stroke="#5A5A5A" stroke-width="9"/>
<path d="M4.5 414.654V491.259C11.7522 480.021 24.7484 466.268 47.9772 452.675C99.2517 422.67 200.708 393.248 402 393.248C603.292 393.248 704.748 422.67 756.023 452.675C779.252 466.268 792.248 480.021 799.5 491.259V414.654C799.5 414.636 799.498 414.595 799.495 414.532C799.487 414.395 799.47 414.152 799.431 413.81C799.353 413.128 799.189 412.051 798.843 410.635C798.153 407.807 796.733 403.605 793.809 398.471C787.973 388.226 776.022 374.058 751.477 359.695C702.252 330.889 602.708 301.5 402 301.5C201.292 301.5 101.748 330.889 52.5228 359.695C27.9778 374.058 16.0273 388.226 10.1914 398.471C7.26659 403.605 5.84709 407.807 5.15678 410.635C4.8111 412.051 4.64698 413.128 4.56922 413.81C4.53034 414.152 4.51303 414.395 4.50545 414.532C4.50196 414.595 4.50053 414.636 4.5 414.654ZM799.5 414.659L799.5 414.661C799.5 414.667 799.5 414.666 799.5 414.659Z" fill="#F4F4F4" stroke="#5A5A5A" stroke-width="9"/>
<path d="M44.2068 459.966C44.2047 460.002 44.2036 460.027 44.2031 460.042V525.818L759.796 520.386V460.041C759.795 460.027 759.794 460.002 759.792 459.966C759.786 459.862 759.772 459.666 759.739 459.386C759.672 458.826 759.53 457.925 759.227 456.73C758.621 454.346 757.367 450.768 754.764 446.375C749.569 437.61 738.876 425.394 716.803 412.978C672.52 388.071 582.873 362.612 401.999 362.612C221.126 362.612 131.479 388.071 87.1962 412.978C65.123 425.394 54.4297 437.61 49.2352 446.375C46.6318 450.768 45.3778 454.346 44.7723 456.73C44.4689 457.925 44.3267 458.826 44.2603 459.386C44.2271 459.666 44.2128 459.862 44.2068 459.966Z" fill="url(#paint0_radial_30_1137)"/>
<path d="M44.2068 459.966C44.2047 460.002 44.2036 460.027 44.2031 460.042V525.818L759.796 520.386V460.041C759.795 460.027 759.794 460.002 759.792 459.966C759.786 459.862 759.772 459.666 759.739 459.386C759.672 458.826 759.53 457.925 759.227 456.73C758.621 454.346 757.367 450.768 754.764 446.375C749.569 437.61 738.876 425.394 716.803 412.978C672.52 388.071 582.873 362.612 401.999 362.612C221.126 362.612 131.479 388.071 87.1962 412.978C65.123 425.394 54.4297 437.61 49.2352 446.375C46.6318 450.768 45.3778 454.346 44.7723 456.73C44.4689 457.925 44.3267 458.826 44.2603 459.386C44.2271 459.666 44.2128 459.862 44.2068 459.966Z" fill="url(#paint1_radial_30_1137)"/>
<path d="M44.2068 459.966C44.2047 460.002 44.2036 460.027 44.2031 460.042V525.818L759.796 520.386V460.041C759.795 460.027 759.794 460.002 759.792 459.966C759.786 459.862 759.772 459.666 759.739 459.386C759.672 458.826 759.53 457.925 759.227 456.73C758.621 454.346 757.367 450.768 754.764 446.375C749.569 437.61 738.876 425.394 716.803 412.978C672.52 388.071 582.873 362.612 401.999 362.612C221.126 362.612 131.479 388.071 87.1962 412.978C65.123 425.394 54.4297 437.61 49.2352 446.375C46.6318 450.768 45.3778 454.346 44.7723 456.73C44.4689 457.925 44.3267 458.826 44.2603 459.386C44.2271 459.666 44.2128 459.862 44.2068 459.966Z" stroke="#5A5A5A" stroke-width="9"/>
<path d="M4.5 504.716V428.111C11.7522 439.349 24.7484 453.102 47.9772 466.695C99.2517 496.701 200.708 526.123 402 526.123C603.292 526.123 704.748 496.701 756.023 466.695C779.252 453.102 792.248 439.349 799.5 428.111V504.716C799.499 504.734 799.498 504.775 799.495 504.838C799.487 504.976 799.47 505.219 799.431 505.56C799.353 506.243 799.189 507.319 798.843 508.735C798.153 511.563 796.733 515.765 793.809 520.9C787.973 531.145 776.022 545.312 751.477 559.676C702.252 588.482 602.708 617.871 402 617.871C201.292 617.871 101.748 588.482 52.5228 559.676C27.9778 545.312 16.0273 531.145 10.1914 520.9C7.26659 515.765 5.84709 511.563 5.15678 508.735C4.8111 507.319 4.64698 506.243 4.56922 505.56C4.53034 505.219 4.51303 504.976 4.50545 504.838C4.50196 504.775 4.50053 504.734 4.5 504.716ZM4.49978 504.709L4.49988 504.712C4.49967 504.704 4.4997 504.703 4.49978 504.709Z" fill="#F4F4F4" stroke="#5A5A5A" stroke-width="9"/>
<path d="M678 449.75H641L708 0H746L678 449.75Z" fill="#242424"/>
<defs>
<radialGradient id="paint0_radial_30_1137" cx="0" cy="0" r="1" gradientUnits="userSpaceOnUse" gradientTransform="translate(401.999 444.232) rotate(180) scale(362.296 86.1201)">
<stop stop-color="#8E5A44"/>
<stop offset="1" stop-color="#775A4E"/>
</radialGradient>
<radialGradient id="paint1_radial_30_1137" cx="0" cy="0" r="1" gradientUnits="userSpaceOnUse" gradientTransform="translate(401.999 444.232) rotate(180) scale(362.296 86.1201)">
<stop stop-color="#EEB4B4"/>
<stop offset="1" stop-color="#E19C9C"/>
</radialGradient>
</defs>
</svg>
