<svg width="804" height="1280" viewBox="0 0 804 1280" fill="none" xmlns="http://www.w3.org/2000/svg">
<mask id="path-1-inside-1_30_1138" fill="white">
<path d="M39.7031 262.112C39.7031 262.112 39.7031 344.001 401.999 344.001C764.296 344.001 764.296 262.112 764.296 262.112L679.925 1172.59C679.925 1172.59 679.925 1279.52 401.999 1279.52C124.073 1279.52 124.074 1172.59 124.074 1172.59L39.7031 262.112Z"/>
</mask>
<path d="M39.7031 262.112C39.7031 262.112 39.7031 344.001 401.999 344.001C764.296 344.001 764.296 262.112 764.296 262.112L679.925 1172.59C679.925 1172.59 679.925 1279.52 401.999 1279.52C124.073 1279.52 124.074 1172.59 124.074 1172.59L39.7031 262.112Z" fill="#F4F4F4"/>
<path d="M39.7031 262.112L48.6647 261.281L30.7031 262.112H39.7031ZM764.296 262.112H773.296L755.334 261.281L764.296 262.112ZM679.925 1172.59L670.964 1171.76L670.925 1172.17V1172.59H679.925ZM124.074 1172.59L133.074 1172.59L133.074 1172.17L133.035 1171.76L124.074 1172.59ZM755.334 261.281L670.964 1171.76L688.887 1173.42L773.257 262.942L755.334 261.281ZM133.035 1171.76L48.6647 261.281L30.7415 262.942L115.112 1173.42L133.035 1171.76ZM679.925 1172.59C670.925 1172.59 670.925 1172.58 670.925 1172.57C670.925 1172.57 670.925 1172.56 670.925 1172.55C670.926 1172.54 670.926 1172.53 670.926 1172.52C670.926 1172.5 670.926 1172.49 670.926 1172.48C670.926 1172.47 670.926 1172.48 670.925 1172.52C670.922 1172.59 670.913 1172.76 670.891 1173.01C670.847 1173.52 670.749 1174.38 670.534 1175.54C670.104 1177.86 669.204 1181.38 667.324 1185.72C663.591 1194.34 655.861 1206.48 639.696 1218.92C607.213 1243.92 540.06 1270.52 401.999 1270.52V1288.52C541.865 1288.52 613.675 1261.66 650.673 1233.19C669.249 1218.89 678.89 1204.31 683.841 1192.88C686.304 1187.19 687.576 1182.36 688.231 1178.83C688.559 1177.06 688.732 1175.62 688.824 1174.57C688.87 1174.04 688.895 1173.61 688.909 1173.27C688.916 1173.11 688.92 1172.97 688.922 1172.85C688.924 1172.8 688.924 1172.75 688.925 1172.7C688.925 1172.68 688.925 1172.66 688.925 1172.64C688.925 1172.63 688.925 1172.62 688.925 1172.61C688.925 1172.6 688.925 1172.59 679.925 1172.59ZM401.999 1270.52C263.939 1270.52 196.786 1243.92 164.303 1218.92C148.138 1206.48 140.408 1194.34 136.675 1185.72C134.795 1181.38 133.895 1177.86 133.465 1175.54C133.25 1174.38 133.152 1173.52 133.108 1173.01C133.086 1172.76 133.077 1172.59 133.074 1172.52C133.073 1172.48 133.072 1172.47 133.073 1172.48C133.073 1172.49 133.073 1172.5 133.073 1172.52C133.073 1172.53 133.073 1172.54 133.073 1172.55C133.073 1172.56 133.073 1172.57 133.073 1172.57C133.073 1172.58 133.074 1172.59 124.074 1172.59C115.074 1172.59 115.074 1172.6 115.074 1172.61C115.074 1172.62 115.074 1172.63 115.074 1172.64C115.074 1172.66 115.074 1172.68 115.074 1172.7C115.075 1172.75 115.075 1172.8 115.076 1172.85C115.079 1172.97 115.083 1173.11 115.09 1173.27C115.104 1173.61 115.129 1174.04 115.175 1174.57C115.267 1175.62 115.44 1177.06 115.768 1178.83C116.423 1182.36 117.695 1187.19 120.158 1192.88C125.109 1204.31 134.749 1218.89 153.326 1233.19C190.324 1261.66 262.134 1288.52 401.999 1288.52V1270.52ZM39.7031 262.112C30.7031 262.112 30.7031 262.132 30.7032 262.152C30.7032 262.159 30.7034 262.179 30.7035 262.194C30.7037 262.222 30.7041 262.252 30.7047 262.283C30.7058 262.346 30.7075 262.414 30.7101 262.487C30.7152 262.633 30.7237 262.8 30.737 262.987C30.7637 263.362 30.8099 263.816 30.8879 264.345C31.044 265.403 31.3262 266.751 31.8291 268.342C32.8397 271.54 34.7115 275.625 38.1203 280.248C44.9316 289.485 57.6482 300.573 81.2829 311.257C128.334 332.527 220.454 353.001 401.999 353.001V335.001C221.248 335.001 132.22 314.53 88.6975 294.855C67.045 285.067 57.1181 275.683 52.6077 269.566C50.3556 266.511 49.397 264.199 48.9924 262.919C48.7877 262.271 48.7161 261.859 48.6953 261.718C48.6848 261.647 48.6868 261.642 48.6914 261.706C48.6937 261.738 48.6966 261.788 48.699 261.855C48.7001 261.889 48.7012 261.927 48.7019 261.97C48.7023 261.991 48.7026 262.014 48.7028 262.037C48.7029 262.049 48.703 262.068 48.703 262.074C48.7031 262.093 48.7031 262.112 39.7031 262.112ZM401.999 353.001C583.545 353.001 675.665 332.527 722.716 311.257C746.351 300.573 759.067 289.485 765.878 280.248C769.287 275.625 771.159 271.54 772.17 268.342C772.673 266.751 772.955 265.403 773.111 264.345C773.189 263.816 773.235 263.362 773.262 262.987C773.275 262.8 773.284 262.633 773.289 262.487C773.291 262.414 773.293 262.346 773.294 262.283C773.295 262.252 773.295 262.222 773.295 262.194C773.295 262.179 773.296 262.159 773.296 262.152C773.296 262.132 773.296 262.112 764.296 262.112C755.296 262.112 755.296 262.093 755.296 262.074C755.296 262.068 755.296 262.049 755.296 262.037C755.296 262.014 755.297 261.991 755.297 261.97C755.298 261.927 755.299 261.889 755.3 261.855C755.302 261.788 755.305 261.738 755.307 261.706C755.312 261.642 755.314 261.647 755.304 261.718C755.283 261.859 755.211 262.271 755.006 262.919C754.602 264.199 753.643 266.511 751.391 269.566C746.881 275.683 736.954 285.067 715.301 294.855C671.778 314.53 582.751 335.001 401.999 335.001V353.001Z" fill="#5A5A5A" mask="url(#path-1-inside-1_30_1138)"/>
<path d="M714.339 455.367C734.663 448.591 746.612 441.697 753.665 435.856L720.204 867.911C719.88 868.333 719.409 868.915 718.767 869.639C717.177 871.429 714.534 874.092 710.464 877.344C702.325 883.845 688.456 892.718 665.864 901.66C620.651 919.555 540.611 937.685 402.001 937.685C263.392 937.685 183.351 919.555 138.139 901.66C115.547 892.718 101.678 883.845 93.5391 877.344C89.4689 874.092 86.8256 871.429 85.2362 869.639C84.594 868.915 84.1231 868.333 83.7989 867.911L50.3378 435.856C57.3908 441.697 69.3395 448.591 89.664 455.367C135.611 470.686 225.525 485.771 402.001 485.771C578.478 485.771 668.392 470.686 714.339 455.367Z" fill="#E2D7D9" stroke="#5A5A5A" stroke-width="9"/>
<path d="M4.5 153.654V230.259C11.7522 219.021 24.7484 205.268 47.9772 191.675C99.2517 161.67 200.708 132.248 402 132.248C603.292 132.248 704.748 161.67 756.023 191.675C779.252 205.268 792.248 219.021 799.5 230.259V153.654C799.5 153.636 799.498 153.595 799.495 153.532C799.487 153.395 799.47 153.152 799.431 152.81C799.353 152.128 799.189 151.051 798.843 149.635C798.153 146.807 796.733 142.605 793.809 137.471C787.973 127.226 776.022 113.058 751.477 98.6947C702.252 69.8887 602.708 40.4997 402 40.4997C201.292 40.4997 101.748 69.8887 52.5228 98.6947C27.9778 113.058 16.0273 127.226 10.1914 137.471C7.26659 142.605 5.84709 146.807 5.15678 149.635C4.8111 151.051 4.64698 152.128 4.56922 152.81C4.53034 153.152 4.51303 153.395 4.50545 153.532C4.50196 153.595 4.50053 153.636 4.5 153.654ZM799.5 153.659L799.5 153.661C799.5 153.667 799.5 153.666 799.5 153.659Z" fill="#F4F4F4" stroke="#5A5A5A" stroke-width="9"/>
<path d="M44.2068 198.966C44.2047 199.002 44.2036 199.027 44.2031 199.042V264.818L759.796 259.386V199.041C759.795 199.027 759.794 199.002 759.792 198.966C759.786 198.862 759.772 198.666 759.739 198.386C759.672 197.826 759.53 196.925 759.227 195.73C758.621 193.346 757.367 189.768 754.764 185.375C749.569 176.61 738.876 164.394 716.803 151.978C672.52 127.071 582.873 101.612 401.999 101.612C221.126 101.612 131.479 127.071 87.1962 151.978C65.123 164.394 54.4297 176.61 49.2352 185.375C46.6318 189.768 45.3778 193.346 44.7723 195.73C44.4689 196.925 44.3267 197.826 44.2603 198.386C44.2271 198.666 44.2128 198.862 44.2068 198.966Z" fill="url(#paint0_radial_30_1138)"/>
<path d="M44.2068 198.966C44.2047 199.002 44.2036 199.027 44.2031 199.042V264.818L759.796 259.386V199.041C759.795 199.027 759.794 199.002 759.792 198.966C759.786 198.862 759.772 198.666 759.739 198.386C759.672 197.826 759.53 196.925 759.227 195.73C758.621 193.346 757.367 189.768 754.764 185.375C749.569 176.61 738.876 164.394 716.803 151.978C672.52 127.071 582.873 101.612 401.999 101.612C221.126 101.612 131.479 127.071 87.1962 151.978C65.123 164.394 54.4297 176.61 49.2352 185.375C46.6318 189.768 45.3778 193.346 44.7723 195.73C44.4689 196.925 44.3267 197.826 44.2603 198.386C44.2271 198.666 44.2128 198.862 44.2068 198.966Z" fill="url(#paint1_radial_30_1138)"/>
<path d="M44.2068 198.966C44.2047 199.002 44.2036 199.027 44.2031 199.042V264.818L759.796 259.386V199.041C759.795 199.027 759.794 199.002 759.792 198.966C759.786 198.862 759.772 198.666 759.739 198.386C759.672 197.826 759.53 196.925 759.227 195.73C758.621 193.346 757.367 189.768 754.764 185.375C749.569 176.61 738.876 164.394 716.803 151.978C672.52 127.071 582.873 101.612 401.999 101.612C221.126 101.612 131.479 127.071 87.1962 151.978C65.123 164.394 54.4297 176.61 49.2352 185.375C46.6318 189.768 45.3778 193.346 44.7723 195.73C44.4689 196.925 44.3267 197.826 44.2603 198.386C44.2271 198.666 44.2128 198.862 44.2068 198.966Z" stroke="#5A5A5A" stroke-width="9"/>
<path d="M4.5 243.716V167.111C11.7522 178.349 24.7484 192.102 47.9772 205.695C99.2517 235.701 200.708 265.123 402 265.123C603.292 265.123 704.748 235.701 756.023 205.695C779.252 192.102 792.248 178.349 799.5 167.111V243.716C799.499 243.734 799.498 243.775 799.495 243.838C799.487 243.976 799.47 244.219 799.431 244.56C799.353 245.243 799.189 246.319 798.843 247.735C798.153 250.563 796.733 254.765 793.809 259.9C787.973 270.145 776.022 284.312 751.477 298.676C702.252 327.482 602.708 356.871 402 356.871C201.292 356.871 101.748 327.482 52.5228 298.676C27.9778 284.312 16.0273 270.145 10.1914 259.9C7.26659 254.765 5.84709 250.563 5.15678 247.735C4.8111 246.319 4.64698 245.243 4.56922 244.56C4.53034 244.219 4.51303 243.976 4.50545 243.838C4.50196 243.775 4.50053 243.734 4.5 243.716ZM4.49978 243.709L4.49988 243.712C4.49967 243.704 4.4997 243.703 4.49978 243.709Z" fill="#F4F4F4" stroke="#5A5A5A" stroke-width="9"/>
<g opacity="0.5">
<path d="M804 153.852C804 225.117 624.018 282.889 402 282.889C179.982 282.889 0 225.117 0 153.852C0 82.5868 179.982 24.8149 402 24.8149C624.018 24.8149 804 82.5868 804 153.852Z" fill="#F4F4F4"/>
<path d="M804 153.852C804 225.117 624.018 282.889 402 282.889C179.982 282.889 0 225.117 0 153.852C0 82.5868 179.982 24.8149 402 24.8149C624.018 24.8149 804 82.5868 804 153.852Z" stroke="#5A5A5A"/>
</g>
<path opacity="0.5" d="M710.165 69.4815C710.165 72.8111 708.667 76.4567 705.003 80.4362C701.316 84.4398 695.662 88.5182 688.002 92.5432C672.689 100.588 650.236 107.97 622.111 114.219C565.936 126.703 488.112 134.463 401.999 134.463C315.886 134.463 238.062 126.703 181.886 114.219C153.762 107.97 131.309 100.588 115.996 92.5432C108.335 88.5182 102.681 84.4398 98.9946 80.4362C95.3302 76.4567 93.832 72.8111 93.832 69.4815C93.832 66.1518 95.3302 62.5063 98.9946 58.5268C102.681 54.5231 108.335 50.4448 115.996 46.4198C131.309 38.3747 153.762 30.9933 181.886 24.7435C238.062 12.26 315.886 4.5 401.999 4.5C488.112 4.5 565.936 12.26 622.111 24.7435C650.236 30.9933 672.689 38.3747 688.002 46.4198C695.662 50.4448 701.316 54.5231 705.003 58.5268C708.667 62.5063 710.165 66.1518 710.165 69.4815Z" fill="#F4F4F4" stroke="#5A5A5A" stroke-width="9"/>
<path opacity="0.5" d="M93.832 136.391V76.7669C99.8849 83.4488 109.921 91.18 126.546 98.7719C166.517 117.025 245.464 134.874 401.999 134.874C558.533 134.874 637.48 117.025 677.451 98.7719C694.077 91.18 704.113 83.4488 710.165 76.7669V136.391C710.162 136.431 710.154 136.513 710.136 136.634C710.093 136.929 709.992 137.464 709.76 138.206C709.298 139.682 708.302 142.029 706.145 144.984C701.831 150.895 692.755 159.388 673.713 168.084C635.517 185.526 558.131 203.372 401.999 203.372C245.867 203.372 168.48 185.526 130.285 168.084C111.243 159.388 102.167 150.895 97.8521 144.984C95.6958 142.029 94.6993 139.682 94.2375 138.206C94.0053 137.464 93.9043 136.929 93.8612 136.634C93.8435 136.513 93.8354 136.431 93.832 136.391Z" fill="#F4F4F4" stroke="#5A5A5A" stroke-width="9"/>
<defs>
<radialGradient id="paint0_radial_30_1138" cx="0" cy="0" r="1" gradientUnits="userSpaceOnUse" gradientTransform="translate(401.999 183.232) rotate(180) scale(362.296 86.1201)">
<stop stop-color="#8E5A44"/>
<stop offset="1" stop-color="#775A4E"/>
</radialGradient>
<radialGradient id="paint1_radial_30_1138" cx="0" cy="0" r="1" gradientUnits="userSpaceOnUse" gradientTransform="translate(401.999 183.232) rotate(180) scale(362.296 86.1201)">
<stop stop-color="#EEB4B4"/>
<stop offset="1" stop-color="#E19C9C"/>
</radialGradient>
</defs>
</svg>
