<svg width="804" height="1244" viewBox="0 0 804 1244" fill="none" xmlns="http://www.w3.org/2000/svg">
<mask id="path-1-inside-1_22_634" fill="white">
<path d="M39.7031 226.112C39.7031 226.112 39.7031 308 401.999 308C764.296 308 764.296 226.112 764.296 226.112L679.925 1136.59C679.925 1136.59 679.925 1243.52 401.999 1243.52C124.073 1243.52 124.074 1136.59 124.074 1136.59L39.7031 226.112Z"/>
</mask>
<path d="M39.7031 226.112C39.7031 226.112 39.7031 308 401.999 308C764.296 308 764.296 226.112 764.296 226.112L679.925 1136.59C679.925 1136.59 679.925 1243.52 401.999 1243.52C124.073 1243.52 124.074 1136.59 124.074 1136.59L39.7031 226.112Z" fill="#F4F4F4"/>
<path d="M39.7031 226.112L48.6647 225.281L30.7031 226.112H39.7031ZM764.296 226.112H773.296L755.334 225.281L764.296 226.112ZM679.925 1136.59L670.964 1135.76L670.925 1136.17V1136.59H679.925ZM124.074 1136.59L133.074 1136.59L133.074 1136.17L133.035 1135.76L124.074 1136.59ZM755.334 225.281L670.964 1135.76L688.887 1137.42L773.257 226.942L755.334 225.281ZM133.035 1135.76L48.6647 225.281L30.7415 226.942L115.112 1137.42L133.035 1135.76ZM679.925 1136.59C670.925 1136.59 670.925 1136.58 670.925 1136.57C670.925 1136.57 670.925 1136.55 670.925 1136.55C670.926 1136.54 670.926 1136.53 670.926 1136.52C670.926 1136.5 670.926 1136.49 670.926 1136.48C670.926 1136.47 670.926 1136.48 670.925 1136.52C670.922 1136.59 670.913 1136.76 670.891 1137.01C670.847 1137.52 670.749 1138.38 670.534 1139.54C670.104 1141.86 669.204 1145.38 667.324 1149.72C663.591 1158.34 655.861 1170.48 639.696 1182.92C607.213 1207.92 540.06 1234.52 401.999 1234.52V1252.52C541.865 1252.52 613.675 1225.66 650.673 1197.19C669.249 1182.89 678.89 1168.3 683.841 1156.87C686.304 1151.19 687.576 1146.36 688.231 1142.83C688.559 1141.06 688.732 1139.62 688.824 1138.57C688.87 1138.04 688.895 1137.61 688.909 1137.27C688.916 1137.11 688.92 1136.97 688.922 1136.85C688.924 1136.8 688.924 1136.75 688.925 1136.7C688.925 1136.68 688.925 1136.66 688.925 1136.64C688.925 1136.63 688.925 1136.62 688.925 1136.61C688.925 1136.6 688.925 1136.59 679.925 1136.59ZM401.999 1234.52C263.939 1234.52 196.786 1207.92 164.303 1182.92C148.138 1170.48 140.408 1158.34 136.675 1149.72C134.795 1145.38 133.895 1141.86 133.465 1139.54C133.25 1138.38 133.152 1137.52 133.108 1137.01C133.086 1136.76 133.077 1136.59 133.074 1136.52C133.073 1136.48 133.072 1136.47 133.073 1136.48C133.073 1136.49 133.073 1136.5 133.073 1136.52C133.073 1136.53 133.073 1136.54 133.073 1136.55C133.073 1136.55 133.073 1136.57 133.073 1136.57C133.073 1136.58 133.074 1136.59 124.074 1136.59C115.074 1136.59 115.074 1136.6 115.074 1136.61C115.074 1136.62 115.074 1136.63 115.074 1136.64C115.074 1136.66 115.074 1136.68 115.074 1136.7C115.075 1136.75 115.075 1136.8 115.076 1136.85C115.079 1136.97 115.083 1137.11 115.09 1137.27C115.104 1137.61 115.129 1138.04 115.175 1138.57C115.267 1139.62 115.44 1141.06 115.768 1142.83C116.423 1146.36 117.695 1151.19 120.158 1156.87C125.109 1168.3 134.749 1182.89 153.326 1197.19C190.324 1225.66 262.134 1252.52 401.999 1252.52V1234.52ZM39.7031 226.112C30.7031 226.112 30.7031 226.131 30.7032 226.151C30.7032 226.159 30.7034 226.179 30.7035 226.193C30.7037 226.222 30.7041 226.252 30.7047 226.283C30.7058 226.346 30.7075 226.414 30.7101 226.487C30.7152 226.633 30.7237 226.8 30.737 226.987C30.7637 227.361 30.8099 227.816 30.8879 228.344C31.044 229.403 31.3262 230.751 31.8291 232.342C32.8397 235.54 34.7115 239.625 38.1203 244.248C44.9316 253.485 57.6482 264.573 81.2829 275.257C128.334 296.527 220.454 317 401.999 317V299C221.248 299 132.22 278.53 88.6975 258.855C67.045 249.067 57.1181 239.682 52.6077 233.565C50.3556 230.511 49.397 228.199 48.9924 226.918C48.7877 226.27 48.7161 225.859 48.6953 225.718C48.6848 225.647 48.6868 225.641 48.6914 225.706C48.6937 225.738 48.6966 225.788 48.699 225.855C48.7001 225.889 48.7012 225.927 48.7019 225.97C48.7023 225.991 48.7026 226.014 48.7028 226.037C48.7029 226.049 48.703 226.068 48.703 226.074C48.7031 226.092 48.7031 226.112 39.7031 226.112ZM401.999 317C583.545 317 675.665 296.527 722.716 275.257C746.351 264.573 759.067 253.485 765.878 244.248C769.287 239.625 771.159 235.54 772.17 232.342C772.673 230.751 772.955 229.403 773.111 228.344C773.189 227.816 773.235 227.361 773.262 226.987C773.275 226.8 773.284 226.633 773.289 226.487C773.291 226.414 773.293 226.346 773.294 226.283C773.295 226.252 773.295 226.222 773.295 226.193C773.295 226.179 773.296 226.159 773.296 226.151C773.296 226.131 773.296 226.112 764.296 226.112C755.296 226.112 755.296 226.092 755.296 226.074C755.296 226.068 755.296 226.049 755.296 226.037C755.296 226.014 755.297 225.991 755.297 225.97C755.298 225.927 755.299 225.889 755.3 225.855C755.302 225.788 755.305 225.738 755.307 225.706C755.312 225.641 755.314 225.647 755.304 225.718C755.283 225.859 755.211 226.27 755.006 226.918C754.602 228.199 753.643 230.511 751.391 233.565C746.881 239.682 736.954 249.067 715.301 258.855C671.778 278.53 582.751 299 401.999 299V317Z" fill="#5A5A5A" mask="url(#path-1-inside-1_22_634)"/>
<path d="M714.337 419.367C734.661 412.591 746.61 405.697 753.663 399.856L720.202 831.911C719.878 832.333 719.407 832.915 718.765 833.639C717.175 835.429 714.532 838.092 710.462 841.344C702.323 847.845 688.454 856.718 665.862 865.66C620.649 883.555 540.609 901.685 401.999 901.685C263.39 901.685 183.349 883.555 138.137 865.66C115.545 856.718 101.676 847.845 93.5371 841.344C89.467 838.092 86.8237 835.429 85.2342 833.639C84.5921 832.915 84.1211 832.333 83.797 831.911L50.3358 399.856C57.3889 405.697 69.3376 412.591 89.662 419.367C135.609 434.686 225.523 449.771 401.999 449.771C578.476 449.771 668.39 434.686 714.337 419.367Z" fill="#E2D7D9" stroke="#5A5A5A" stroke-width="9"/>
<path d="M4.5 117.655V194.26C11.7522 183.022 24.7484 169.269 47.9772 155.675C99.2517 125.67 200.708 96.2482 402 96.2482C603.292 96.2482 704.748 125.67 756.023 155.675C779.252 169.269 792.248 183.022 799.5 194.26V117.654C799.5 117.636 799.498 117.595 799.495 117.532C799.487 117.395 799.47 117.152 799.431 116.811C799.353 116.128 799.189 115.051 798.843 113.635C798.153 110.808 796.733 106.606 793.809 101.471C787.973 91.2259 776.022 77.0583 751.477 62.695C702.252 33.8889 602.708 4.49998 402 4.49998C201.292 4.49998 101.748 33.8889 52.5228 62.695C27.9778 77.0583 16.0273 91.2259 10.1914 101.471C7.26659 106.606 5.84709 110.808 5.15678 113.635C4.8111 115.051 4.64698 116.128 4.56922 116.811C4.53034 117.152 4.51303 117.395 4.50545 117.532C4.50196 117.596 4.50053 117.637 4.5 117.655ZM799.5 117.659L799.5 117.661C799.5 117.667 799.5 117.667 799.5 117.659Z" fill="#F4F4F4" stroke="#5A5A5A" stroke-width="9"/>
<path d="M44.2068 162.966C44.2047 163.002 44.2036 163.027 44.2031 163.041V228.818L759.796 223.386V163.041C759.795 163.027 759.794 163.002 759.792 162.966C759.786 162.861 759.772 162.666 759.739 162.386C759.672 161.826 759.53 160.925 759.227 159.73C758.621 157.346 757.367 153.768 754.764 149.374C749.569 140.609 738.876 128.393 716.803 115.978C672.52 91.0708 582.873 65.6115 401.999 65.6115C221.126 65.6115 131.479 91.0708 87.1962 115.978C65.123 128.393 54.4297 140.609 49.2352 149.374C46.6318 153.768 45.3778 157.346 44.7723 159.73C44.4689 160.925 44.3267 161.826 44.2603 162.386C44.2271 162.666 44.2128 162.861 44.2068 162.966Z" fill="url(#paint0_radial_22_634)"/>
<path d="M44.2068 162.966C44.2047 163.002 44.2036 163.027 44.2031 163.041V228.818L759.796 223.386V163.041C759.795 163.027 759.794 163.002 759.792 162.966C759.786 162.861 759.772 162.666 759.739 162.386C759.672 161.826 759.53 160.925 759.227 159.73C758.621 157.346 757.367 153.768 754.764 149.374C749.569 140.609 738.876 128.393 716.803 115.978C672.52 91.0708 582.873 65.6115 401.999 65.6115C221.126 65.6115 131.479 91.0708 87.1962 115.978C65.123 128.393 54.4297 140.609 49.2352 149.374C46.6318 153.768 45.3778 157.346 44.7723 159.73C44.4689 160.925 44.3267 161.826 44.2603 162.386C44.2271 162.666 44.2128 162.861 44.2068 162.966Z" fill="url(#paint1_radial_22_634)"/>
<path d="M44.2068 162.966C44.2047 163.002 44.2036 163.027 44.2031 163.041V228.818L759.796 223.386V163.041C759.795 163.027 759.794 163.002 759.792 162.966C759.786 162.861 759.772 162.666 759.739 162.386C759.672 161.826 759.53 160.925 759.227 159.73C758.621 157.346 757.367 153.768 754.764 149.374C749.569 140.609 738.876 128.393 716.803 115.978C672.52 91.0708 582.873 65.6115 401.999 65.6115C221.126 65.6115 131.479 91.0708 87.1962 115.978C65.123 128.393 54.4297 140.609 49.2352 149.374C46.6318 153.768 45.3778 157.346 44.7723 159.73C44.4689 160.925 44.3267 161.826 44.2603 162.386C44.2271 162.666 44.2128 162.861 44.2068 162.966Z" stroke="#5A5A5A" stroke-width="9"/>
<path opacity="0.4" d="M244.999 101.5C263.799 102.7 306.999 153.5 301.499 165.5C295.999 177.5 190.499 165.5 184.999 154.5C179.499 143.5 221.499 100 244.999 101.5Z" fill="#D9D9D9" fill-opacity="0.3" stroke="white" stroke-width="7"/>
<path opacity="0.4" d="M277.727 153.105C276 145.5 253.5 121.5 245.502 116.022" stroke="white" stroke-width="7" stroke-linecap="round"/>
<path opacity="0.4" d="M439.26 75.0269C425.976 75.8786 395.453 111.936 399.339 120.454C403.225 128.971 477.767 120.454 481.653 112.646C485.539 104.838 455.864 73.9622 439.26 75.0269Z" fill="#D9D9D9" fill-opacity="0.3" stroke="white" stroke-width="7"/>
<path opacity="0.4" d="M549.969 136.095C530.969 137.781 508.293 174.385 512.512 187.184C516.731 199.982 598.408 192.906 602.627 181.173C606.846 169.441 574.398 133.927 549.969 136.095Z" fill="#D9D9D9" fill-opacity="0.3" stroke="white" stroke-width="7"/>
<path opacity="0.4" d="M558 150C571.811 155.375 583.465 167.484 588 175" stroke="white" stroke-width="7" stroke-linecap="round"/>
<path opacity="0.4" d="M444 87C450.663 90.6333 460.657 99.9495 463 104" stroke="white" stroke-width="7" stroke-linecap="round"/>
<path opacity="0.4" d="M386.324 239.47C377.756 230.808 389.148 207.191 399.001 201C408.854 194.809 451.299 216.914 447.471 226.972C443.644 237.029 397.035 250.299 386.324 239.47Z" fill="#D9D9D9" fill-opacity="0.3" stroke="white" stroke-width="7"/>
<path opacity="0.4" d="M408 212.527C415.766 214.741 432.413 224.721 436.04 228.48" stroke="white" stroke-width="7" stroke-linecap="round"/>
<path d="M4.5 207.716V131.111C11.7522 142.349 24.7484 156.102 47.9772 169.695C99.2517 199.701 200.708 229.123 402 229.123C603.292 229.123 704.748 199.701 756.023 169.695C779.252 156.102 792.248 142.349 799.5 131.111V207.716C799.499 207.734 799.498 207.775 799.495 207.838C799.487 207.976 799.47 208.219 799.431 208.56C799.353 209.243 799.189 210.32 798.843 211.735C798.153 214.563 796.733 218.765 793.809 223.9C787.973 234.145 776.022 248.313 751.477 262.676C702.252 291.482 602.708 320.871 402 320.871C201.292 320.871 101.748 291.482 52.5228 262.676C27.9778 248.313 16.0273 234.145 10.1914 223.9C7.26659 218.765 5.84709 214.563 5.15678 211.735C4.8111 210.32 4.64698 209.243 4.56922 208.56C4.53034 208.219 4.51303 207.976 4.50545 207.838C4.50196 207.775 4.50053 207.734 4.5 207.716ZM4.49978 207.71L4.49988 207.712C4.49967 207.704 4.4997 207.703 4.49978 207.71Z" fill="#F4F4F4" stroke="#5A5A5A" stroke-width="9"/>
<defs>
<radialGradient id="paint0_radial_22_634" cx="0" cy="0" r="1" gradientUnits="userSpaceOnUse" gradientTransform="translate(401.999 147.232) rotate(180) scale(362.296 86.1201)">
<stop stop-color="#8E5A44"/>
<stop offset="1" stop-color="#775A4E"/>
</radialGradient>
<radialGradient id="paint1_radial_22_634" cx="0" cy="0" r="1" gradientUnits="userSpaceOnUse" gradientTransform="translate(401.999 147.232) rotate(180) scale(362.296 86.1201)">
<stop stop-color="#EEB4B4"/>
<stop offset="1" stop-color="#E19C9C"/>
</radialGradient>
</defs>
</svg>
