<svg width="804" height="1537" viewBox="0 0 804 1537" fill="none" xmlns="http://www.w3.org/2000/svg">
<mask id="path-1-inside-1_22_638" fill="white">
<path d="M39.7031 518.631C39.7031 518.631 39.7031 600.52 401.999 600.52C764.296 600.52 764.296 518.631 764.296 518.631L679.925 1429.11C679.925 1429.11 679.925 1536.04 401.999 1536.04C124.073 1536.04 124.074 1429.11 124.074 1429.11L39.7031 518.631Z"/>
</mask>
<path d="M39.7031 518.631C39.7031 518.631 39.7031 600.52 401.999 600.52C764.296 600.52 764.296 518.631 764.296 518.631L679.925 1429.11C679.925 1429.11 679.925 1536.04 401.999 1536.04C124.073 1536.04 124.074 1429.11 124.074 1429.11L39.7031 518.631Z" fill="#F4F4F4"/>
<path d="M39.7031 518.631L48.6647 517.8L30.7031 518.631H39.7031ZM764.296 518.631H773.296L755.334 517.8L764.296 518.631ZM679.925 1429.11L670.964 1428.28L670.925 1428.69V1429.11H679.925ZM124.074 1429.11L133.074 1429.11L133.074 1428.69L133.035 1428.28L124.074 1429.11ZM755.334 517.8L670.964 1428.28L688.887 1429.94L773.257 519.461L755.334 517.8ZM133.035 1428.28L48.6647 517.8L30.7415 519.461L115.112 1429.94L133.035 1428.28ZM679.925 1429.11C670.925 1429.11 670.925 1429.1 670.925 1429.09C670.925 1429.08 670.925 1429.07 670.925 1429.07C670.926 1429.06 670.926 1429.05 670.926 1429.04C670.926 1429.02 670.926 1429.01 670.926 1429C670.926 1428.99 670.926 1429 670.925 1429.04C670.922 1429.11 670.913 1429.28 670.891 1429.53C670.847 1430.04 670.749 1430.9 670.534 1432.06C670.104 1434.38 669.204 1437.9 667.324 1442.24C663.591 1450.86 655.861 1463 639.696 1475.44C607.213 1500.44 540.06 1527.04 401.999 1527.04V1545.04C541.865 1545.04 613.675 1518.18 650.673 1489.71C669.249 1475.41 678.89 1460.82 683.841 1449.39C686.304 1443.71 687.576 1438.88 688.231 1435.35C688.559 1433.58 688.732 1432.14 688.824 1431.09C688.87 1430.56 688.895 1430.12 688.909 1429.79C688.916 1429.63 688.92 1429.49 688.922 1429.37C688.924 1429.31 688.924 1429.26 688.925 1429.22C688.925 1429.2 688.925 1429.18 688.925 1429.16C688.925 1429.15 688.925 1429.14 688.925 1429.13C688.925 1429.12 688.925 1429.11 679.925 1429.11ZM401.999 1527.04C263.939 1527.04 196.786 1500.44 164.303 1475.44C148.138 1463 140.408 1450.86 136.675 1442.24C134.795 1437.9 133.895 1434.38 133.465 1432.06C133.25 1430.9 133.152 1430.04 133.108 1429.53C133.086 1429.28 133.077 1429.11 133.074 1429.04C133.073 1429 133.072 1428.99 133.073 1429C133.073 1429.01 133.073 1429.02 133.073 1429.04C133.073 1429.05 133.073 1429.06 133.073 1429.07C133.073 1429.07 133.073 1429.08 133.073 1429.09C133.073 1429.1 133.074 1429.11 124.074 1429.11C115.074 1429.11 115.074 1429.12 115.074 1429.13C115.074 1429.14 115.074 1429.15 115.074 1429.16C115.074 1429.18 115.074 1429.2 115.074 1429.22C115.075 1429.26 115.075 1429.31 115.076 1429.37C115.079 1429.49 115.083 1429.63 115.09 1429.79C115.104 1430.12 115.129 1430.56 115.175 1431.09C115.267 1432.14 115.44 1433.58 115.768 1435.35C116.423 1438.88 117.695 1443.71 120.158 1449.39C125.109 1460.82 134.749 1475.41 153.326 1489.71C190.324 1518.18 262.134 1545.04 401.999 1545.04V1527.04ZM39.7031 518.631C30.7031 518.631 30.7031 518.65 30.7032 518.671C30.7032 518.678 30.7034 518.698 30.7035 518.712C30.7037 518.741 30.7041 518.771 30.7047 518.802C30.7058 518.865 30.7075 518.933 30.7101 519.006C30.7152 519.152 30.7237 519.319 30.737 519.506C30.7637 519.88 30.8099 520.335 30.8879 520.863C31.044 521.922 31.3262 523.27 31.8291 524.861C32.8397 528.059 34.7115 532.144 38.1203 536.767C44.9316 546.004 57.6482 557.092 81.2829 567.776C128.334 589.046 220.454 609.52 401.999 609.52V591.52C221.248 591.52 132.22 571.049 88.6975 551.374C67.045 541.586 57.1181 532.201 52.6077 526.084C50.3556 523.03 49.397 520.718 48.9924 519.437C48.7877 518.789 48.7161 518.378 48.6953 518.237C48.6848 518.166 48.6868 518.16 48.6914 518.225C48.6937 518.257 48.6966 518.307 48.699 518.374C48.7001 518.408 48.7012 518.446 48.7019 518.489C48.7023 518.51 48.7026 518.533 48.7028 518.556C48.7029 518.568 48.703 518.587 48.703 518.593C48.7031 518.611 48.7031 518.631 39.7031 518.631ZM401.999 609.52C583.545 609.52 675.665 589.046 722.716 567.776C746.351 557.092 759.067 546.004 765.878 536.767C769.287 532.144 771.159 528.059 772.17 524.861C772.673 523.27 772.955 521.922 773.111 520.863C773.189 520.335 773.235 519.88 773.262 519.506C773.275 519.319 773.284 519.152 773.289 519.006C773.291 518.933 773.293 518.865 773.294 518.802C773.295 518.771 773.295 518.741 773.295 518.712C773.295 518.698 773.296 518.678 773.296 518.671C773.296 518.65 773.296 518.631 764.296 518.631C755.296 518.631 755.296 518.611 755.296 518.593C755.296 518.587 755.296 518.568 755.296 518.556C755.296 518.533 755.297 518.51 755.297 518.489C755.298 518.446 755.299 518.408 755.3 518.374C755.302 518.307 755.305 518.257 755.307 518.225C755.312 518.16 755.314 518.166 755.304 518.237C755.283 518.378 755.211 518.789 755.006 519.437C754.602 520.718 753.643 523.03 751.391 526.084C746.881 532.201 736.954 541.586 715.301 551.374C671.778 571.049 582.751 591.52 401.999 591.52V609.52Z" fill="#5A5A5A" mask="url(#path-1-inside-1_22_638)"/>
<path d="M714.339 711.886C734.663 705.11 746.612 698.216 753.665 692.376L720.204 1124.43C719.88 1124.85 719.409 1125.43 718.767 1126.16C717.177 1127.95 714.534 1130.61 710.464 1133.86C702.325 1140.36 688.456 1149.24 665.864 1158.18C620.651 1176.07 540.611 1194.2 402.001 1194.2C263.392 1194.2 183.351 1176.07 138.139 1158.18C115.547 1149.24 101.678 1140.36 93.5391 1133.86C89.4689 1130.61 86.8256 1127.95 85.2362 1126.16C84.594 1125.43 84.1231 1124.85 83.7989 1124.43L50.3378 692.376C57.3908 698.216 69.3395 705.11 89.664 711.886C135.611 727.205 225.525 742.29 402.001 742.29C578.478 742.29 668.392 727.205 714.339 711.886Z" fill="#E2D7D9" stroke="#5A5A5A" stroke-width="9"/>
<path d="M4.5 410.174V486.779C11.7522 475.541 24.7484 461.788 47.9772 448.194C99.2517 418.189 200.708 388.767 402 388.767C603.292 388.767 704.748 418.189 756.023 448.194C779.252 461.788 792.248 475.541 799.5 486.779V410.173C799.5 410.155 799.498 410.114 799.495 410.052C799.487 409.914 799.47 409.671 799.431 409.33C799.353 408.647 799.189 407.57 798.843 406.154C798.153 403.327 796.733 399.125 793.809 393.99C787.973 383.745 776.022 369.577 751.477 355.214C702.252 326.408 602.708 297.019 402 297.019C201.292 297.019 101.748 326.408 52.5228 355.214C27.9778 369.577 16.0273 383.745 10.1914 393.99C7.26659 399.125 5.84709 403.327 5.15678 406.154C4.8111 407.57 4.64698 408.647 4.56922 409.33C4.53034 409.671 4.51303 409.914 4.50545 410.052C4.50196 410.115 4.50053 410.156 4.5 410.174ZM799.5 410.178L799.5 410.18C799.5 410.186 799.5 410.186 799.5 410.178Z" fill="#F4F4F4" stroke="#5A5A5A" stroke-width="9"/>
<path d="M44.2068 455.485C44.2047 455.521 44.2036 455.546 44.2031 455.56V521.337L759.796 515.905V455.56C759.795 455.546 759.794 455.521 759.792 455.485C759.786 455.38 759.772 455.185 759.739 454.905C759.672 454.345 759.53 453.444 759.227 452.249C758.621 449.865 757.367 446.287 754.764 441.894C749.569 433.128 738.876 420.912 716.803 408.497C672.52 383.59 582.873 358.131 401.999 358.131C221.126 358.131 131.479 383.59 87.1962 408.497C65.123 420.912 54.4297 433.128 49.2352 441.894C46.6318 446.287 45.3778 449.865 44.7723 452.249C44.4689 453.444 44.3267 454.345 44.2603 454.905C44.2271 455.185 44.2128 455.38 44.2068 455.485Z" fill="url(#paint0_radial_22_638)" stroke="#5A5A5A" stroke-width="9"/>
<path d="M4.5 500.235V423.63C11.7522 434.868 24.7484 448.621 47.9772 462.215C99.2517 492.22 200.708 521.642 402 521.642C603.292 521.642 704.748 492.22 756.023 462.215C779.252 448.621 792.248 434.868 799.5 423.63V500.235C799.499 500.253 799.498 500.294 799.495 500.357C799.487 500.495 799.47 500.738 799.431 501.079C799.353 501.762 799.189 502.839 798.843 504.255C798.153 507.082 796.733 511.284 793.809 516.419C787.973 526.664 776.022 540.832 751.477 555.195C702.252 584.001 602.708 613.39 402 613.39C201.292 613.39 101.748 584.001 52.5228 555.195C27.9778 540.832 16.0273 526.664 10.1914 516.419C7.26659 511.284 5.84709 507.082 5.15678 504.255C4.8111 502.839 4.64698 501.762 4.56922 501.079C4.53034 500.738 4.51303 500.495 4.50545 500.357C4.50196 500.294 4.50053 500.253 4.5 500.235ZM4.49978 500.229L4.49988 500.231C4.49967 500.223 4.4997 500.222 4.49978 500.229Z" fill="#F4F4F4" stroke="#5A5A5A" stroke-width="9"/>
<path d="M389.996 487.38C303.334 494.686 281.133 488.992 226.433 472.876C171.733 456.761 130.44 455.686 144.92 401.967C159.399 348.249 231.259 376.719 226.433 336.43C221.607 296.141 288.641 260.687 312.773 253.703C336.905 246.72 361.037 185.48 367.473 190.852C373.908 196.224 362.11 253.703 419.491 241.885C476.872 230.067 487.598 244.571 515.484 272.505C543.37 300.439 496.714 302.05 571.256 336.43C645.798 370.81 622.202 408.951 623.275 455.686C624.347 502.421 498.323 478.248 389.996 487.38Z" fill="#F0F0F0"/>
<path d="M357.499 214.519C353.334 235.593 369.476 265.061 414.234 274.921C425.031 277.3 435.485 281.374 444.399 287.916C473.449 309.237 499.497 319.752 542.999 328.019" stroke="#D5D5D5" stroke-width="9" stroke-linecap="round"/>
<path d="M592.5 354.519C527.097 349.787 476.855 343.252 433.298 326.062C418.904 320.381 404.135 315.526 389.06 312.028C334.74 299.424 319.005 279.551 316 258.519" stroke="#D5D5D5" stroke-width="9" stroke-linecap="round"/>
<path d="M610.5 368.519C531.083 370.819 475.979 380.235 419.463 365.018C414.815 363.767 409.999 362.813 405.208 362.348C294.345 351.578 307.109 326.107 265.5 283.519" stroke="#D5D5D5" stroke-width="9" stroke-linecap="round"/>
<path d="M619.5 389.519C540.196 403.746 432.5 417.519 353.5 395.519C274.5 373.519 242.76 373.024 228 345.019" stroke="#D5D5D5" stroke-width="9" stroke-linecap="round"/>
<path d="M619 411.519C547.188 449.273 422.321 456.747 334.536 440.601C324.478 438.75 314.31 437.277 304.108 436.555C207.601 429.722 179.746 411.888 168 382.019" stroke="#D5D5D5" stroke-width="9" stroke-linecap="round"/>
<path d="M688 450.269H651L718 0.519043H756L688 450.269Z" fill="#242424"/>
<defs>
<radialGradient id="paint0_radial_22_638" cx="0" cy="0" r="1" gradientUnits="userSpaceOnUse" gradientTransform="translate(401.999 439.751) rotate(180) scale(362.296 86.1201)">
<stop stop-color="#EEB4B4"/>
<stop offset="1" stop-color="#E19C9C"/>
</radialGradient>
</defs>
</svg>
