<svg width="804" height="1289" viewBox="0 0 804 1289" fill="none" xmlns="http://www.w3.org/2000/svg">
<mask id="path-1-inside-1_22_637" fill="white">
<path d="M39.7031 270.631C39.7031 270.631 39.7031 352.52 401.999 352.52C764.296 352.52 764.296 270.631 764.296 270.631L679.925 1181.11C679.925 1181.11 679.925 1288.04 401.999 1288.04C124.073 1288.04 124.074 1181.11 124.074 1181.11L39.7031 270.631Z"/>
</mask>
<path d="M39.7031 270.631C39.7031 270.631 39.7031 352.52 401.999 352.52C764.296 352.52 764.296 270.631 764.296 270.631L679.925 1181.11C679.925 1181.11 679.925 1288.04 401.999 1288.04C124.073 1288.04 124.074 1181.11 124.074 1181.11L39.7031 270.631Z" fill="#F4F4F4"/>
<path d="M39.7031 270.631L48.6647 269.8L30.7031 270.631H39.7031ZM764.296 270.631H773.296L755.334 269.8L764.296 270.631ZM679.925 1181.11L670.964 1180.28L670.925 1180.69V1181.11H679.925ZM124.074 1181.11L133.074 1181.11L133.074 1180.69L133.035 1180.28L124.074 1181.11ZM755.334 269.8L670.964 1180.28L688.887 1181.94L773.257 271.461L755.334 269.8ZM133.035 1180.28L48.6647 269.8L30.7415 271.461L115.112 1181.94L133.035 1180.28ZM679.925 1181.11C670.925 1181.11 670.925 1181.1 670.925 1181.09C670.925 1181.08 670.925 1181.07 670.925 1181.07C670.926 1181.06 670.926 1181.05 670.926 1181.04C670.926 1181.02 670.926 1181.01 670.926 1181C670.926 1180.99 670.926 1181 670.925 1181.04C670.922 1181.11 670.913 1181.28 670.891 1181.53C670.847 1182.04 670.749 1182.9 670.534 1184.06C670.104 1186.38 669.204 1189.9 667.324 1194.24C663.591 1202.86 655.861 1215 639.696 1227.44C607.213 1252.44 540.06 1279.04 401.999 1279.04V1297.04C541.865 1297.04 613.675 1270.18 650.673 1241.71C669.249 1227.41 678.89 1212.82 683.841 1201.39C686.304 1195.71 687.576 1190.88 688.231 1187.35C688.559 1185.58 688.732 1184.14 688.824 1183.09C688.87 1182.56 688.895 1182.12 688.909 1181.79C688.916 1181.63 688.92 1181.49 688.922 1181.37C688.924 1181.31 688.924 1181.26 688.925 1181.22C688.925 1181.2 688.925 1181.18 688.925 1181.16C688.925 1181.15 688.925 1181.14 688.925 1181.13C688.925 1181.12 688.925 1181.11 679.925 1181.11ZM401.999 1279.04C263.939 1279.04 196.786 1252.44 164.303 1227.44C148.138 1215 140.408 1202.86 136.675 1194.24C134.795 1189.9 133.895 1186.38 133.465 1184.06C133.25 1182.9 133.152 1182.04 133.108 1181.53C133.086 1181.28 133.077 1181.11 133.074 1181.04C133.073 1181 133.072 1180.99 133.073 1181C133.073 1181.01 133.073 1181.02 133.073 1181.04C133.073 1181.05 133.073 1181.06 133.073 1181.07C133.073 1181.07 133.073 1181.08 133.073 1181.09C133.073 1181.1 133.074 1181.11 124.074 1181.11C115.074 1181.11 115.074 1181.12 115.074 1181.13C115.074 1181.14 115.074 1181.15 115.074 1181.16C115.074 1181.18 115.074 1181.2 115.074 1181.22C115.075 1181.26 115.075 1181.31 115.076 1181.37C115.079 1181.49 115.083 1181.63 115.09 1181.79C115.104 1182.12 115.129 1182.56 115.175 1183.09C115.267 1184.14 115.44 1185.58 115.768 1187.35C116.423 1190.88 117.695 1195.71 120.158 1201.39C125.109 1212.82 134.749 1227.41 153.326 1241.71C190.324 1270.18 262.134 1297.04 401.999 1297.04V1279.04ZM39.7031 270.631C30.7031 270.631 30.7031 270.65 30.7032 270.671C30.7032 270.678 30.7034 270.698 30.7035 270.712C30.7037 270.741 30.7041 270.771 30.7047 270.802C30.7058 270.865 30.7075 270.933 30.7101 271.006C30.7152 271.152 30.7237 271.319 30.737 271.506C30.7637 271.88 30.8099 272.335 30.8879 272.863C31.044 273.922 31.3262 275.27 31.8291 276.861C32.8397 280.059 34.7115 284.144 38.1203 288.767C44.9316 298.004 57.6482 309.092 81.2829 319.776C128.334 341.046 220.454 361.52 401.999 361.52V343.52C221.248 343.52 132.22 323.049 88.6975 303.374C67.045 293.586 57.1181 284.201 52.6077 278.084C50.3556 275.03 49.397 272.718 48.9924 271.437C48.7877 270.789 48.7161 270.378 48.6953 270.237C48.6848 270.166 48.6868 270.16 48.6914 270.225C48.6937 270.257 48.6966 270.307 48.699 270.374C48.7001 270.408 48.7012 270.446 48.7019 270.489C48.7023 270.51 48.7026 270.533 48.7028 270.556C48.7029 270.568 48.703 270.587 48.703 270.593C48.7031 270.611 48.7031 270.631 39.7031 270.631ZM401.999 361.52C583.545 361.52 675.665 341.046 722.716 319.776C746.351 309.092 759.067 298.004 765.878 288.767C769.287 284.144 771.159 280.059 772.17 276.861C772.673 275.27 772.955 273.922 773.111 272.863C773.189 272.335 773.235 271.88 773.262 271.506C773.275 271.319 773.284 271.152 773.289 271.006C773.291 270.933 773.293 270.865 773.294 270.802C773.295 270.771 773.295 270.741 773.295 270.712C773.295 270.698 773.296 270.678 773.296 270.671C773.296 270.65 773.296 270.631 764.296 270.631C755.296 270.631 755.296 270.611 755.296 270.593C755.296 270.587 755.296 270.568 755.296 270.556C755.296 270.533 755.297 270.51 755.297 270.489C755.298 270.446 755.299 270.408 755.3 270.374C755.302 270.307 755.305 270.257 755.307 270.225C755.312 270.16 755.314 270.166 755.304 270.237C755.283 270.378 755.211 270.789 755.006 271.437C754.602 272.718 753.643 275.03 751.391 278.084C746.881 284.201 736.954 293.586 715.301 303.374C671.778 323.049 582.751 343.52 401.999 343.52V361.52Z" fill="#5A5A5A" mask="url(#path-1-inside-1_22_637)"/>
<path d="M714.339 463.886C734.663 457.11 746.612 450.216 753.665 444.376L720.204 876.431C719.88 876.852 719.409 877.434 718.767 878.158C717.177 879.948 714.534 882.611 710.464 885.863C702.325 892.364 688.456 901.237 665.864 910.179C620.651 928.074 540.611 946.204 402.001 946.204C263.392 946.204 183.351 928.074 138.139 910.179C115.547 901.237 101.678 892.364 93.5391 885.863C89.4689 882.611 86.8256 879.948 85.2362 878.158C84.594 877.434 84.1231 876.852 83.7989 876.431L50.3378 444.376C57.3908 450.216 69.3395 457.11 89.664 463.886C135.611 479.205 225.525 494.29 402.001 494.29C578.478 494.29 668.392 479.205 714.339 463.886Z" fill="#E2D7D9" stroke="#5A5A5A" stroke-width="9"/>
<path d="M4.5 162.174V238.779C11.7522 227.541 24.7484 213.788 47.9772 200.194C99.2517 170.189 200.708 140.767 402 140.767C603.292 140.767 704.748 170.189 756.023 200.194C779.252 213.788 792.248 227.541 799.5 238.779V162.173C799.5 162.155 799.498 162.114 799.495 162.052C799.487 161.914 799.47 161.671 799.431 161.33C799.353 160.647 799.189 159.57 798.843 158.154C798.153 155.327 796.733 151.125 793.809 145.99C787.973 135.745 776.022 121.577 751.477 107.214C702.252 78.408 602.708 49.019 402 49.019C201.292 49.019 101.748 78.408 52.5228 107.214C27.9778 121.577 16.0273 135.745 10.1914 145.99C7.26659 151.125 5.84709 155.327 5.15678 158.154C4.8111 159.57 4.64698 160.647 4.56922 161.33C4.53034 161.671 4.51303 161.914 4.50545 162.052C4.50196 162.115 4.50053 162.156 4.5 162.174ZM799.5 162.178L799.5 162.18C799.5 162.186 799.5 162.186 799.5 162.178Z" fill="#F4F4F4" stroke="#5A5A5A" stroke-width="9"/>
<path d="M44.2068 207.485C44.2047 207.521 44.2036 207.546 44.2031 207.56V273.337L759.796 267.905V207.56C759.795 207.546 759.794 207.521 759.792 207.485C759.786 207.38 759.772 207.185 759.739 206.905C759.672 206.345 759.53 205.444 759.227 204.249C758.621 201.865 757.367 198.287 754.764 193.894C749.569 185.128 738.876 172.912 716.803 160.497C672.52 135.59 582.873 110.131 401.999 110.131C221.126 110.131 131.479 135.59 87.1962 160.497C65.123 172.912 54.4297 185.128 49.2352 193.894C46.6318 198.287 45.3778 201.865 44.7723 204.249C44.4689 205.444 44.3267 206.345 44.2603 206.905C44.2271 207.185 44.2128 207.38 44.2068 207.485Z" fill="url(#paint0_radial_22_637)" stroke="#5A5A5A" stroke-width="9"/>
<path d="M4.5 252.235V175.63C11.7522 186.868 24.7484 200.621 47.9772 214.215C99.2517 244.22 200.708 273.642 402 273.642C603.292 273.642 704.748 244.22 756.023 214.215C779.252 200.621 792.248 186.868 799.5 175.63V252.235C799.499 252.253 799.498 252.294 799.495 252.357C799.487 252.495 799.47 252.738 799.431 253.079C799.353 253.762 799.189 254.839 798.843 256.255C798.153 259.082 796.733 263.284 793.809 268.419C787.973 278.664 776.022 292.832 751.477 307.195C702.252 336.001 602.708 365.39 402 365.39C201.292 365.39 101.748 336.001 52.5228 307.195C27.9778 292.832 16.0273 278.664 10.1914 268.419C7.26659 263.284 5.84709 259.082 5.15678 256.255C4.8111 254.839 4.64698 253.762 4.56922 253.079C4.53034 252.738 4.51303 252.495 4.50545 252.357C4.50196 252.294 4.50053 252.253 4.5 252.235ZM4.49978 252.229L4.49988 252.231C4.49967 252.223 4.4997 252.222 4.49978 252.229Z" fill="#F4F4F4" stroke="#5A5A5A" stroke-width="9"/>
<path d="M389.996 239.38C303.335 246.686 281.133 240.992 226.433 224.876C171.733 208.761 130.44 207.686 144.92 153.967C159.399 100.249 231.259 128.72 226.433 88.4303C221.607 48.141 274.868 20.5025 299 13.519C323.132 6.5356 343.565 0.331588 350 5.70347C356.435 11.0753 364.414 5.70331 423 5.70341H423C472 5.70349 488 5.70352 515.484 24.5049C548.061 46.7907 496.714 54.0502 571.256 88.4303C645.798 122.81 622.202 160.951 623.275 207.686C624.347 254.421 498.323 230.248 389.996 239.38Z" fill="#F0F0F0"/>
<path d="M374 13.519C378.641 20.4798 397.339 24.4497 415.521 27.2793C425.631 28.8527 435.121 33.0436 443.342 39.1358C472.821 60.9817 498.971 71.6514 543.001 80.019" stroke="#D5D5D5" stroke-width="9" stroke-linecap="round"/>
<path d="M592.5 106.519C527.097 101.787 476.855 95.2517 433.298 78.0619C418.904 72.3811 404.172 67.389 388.993 64.378C333.078 53.2865 311.009 40.0787 308 19.019" stroke="#D5D5D5" stroke-width="9" stroke-linecap="round"/>
<path d="M610.5 120.519C531.083 122.819 475.979 132.235 419.463 117.018C414.815 115.767 409.999 114.813 405.208 114.348C294.345 103.578 307.109 78.1073 265.5 35.519" stroke="#D5D5D5" stroke-width="9" stroke-linecap="round"/>
<path d="M619.5 141.519C540.196 155.746 432.5 169.519 353.5 147.519C274.5 125.519 242.76 125.024 228 97.019" stroke="#D5D5D5" stroke-width="9" stroke-linecap="round"/>
<path d="M619 163.519C547.188 201.273 422.321 208.747 334.536 192.601C324.478 190.75 314.31 189.277 304.108 188.555C207.601 181.722 179.746 163.888 168 134.019" stroke="#D5D5D5" stroke-width="9" stroke-linecap="round"/>
<g opacity="0.5">
<path d="M804 154.371C804 225.636 624.018 283.408 402 283.408C179.982 283.408 0 225.636 0 154.371C0 83.1058 179.982 25.334 402 25.334C624.018 25.334 804 83.1058 804 154.371Z" fill="#F4F4F4"/>
<path d="M804 154.371C804 225.636 624.018 283.408 402 283.408C179.982 283.408 0 225.636 0 154.371C0 83.1058 179.982 25.334 402 25.334C624.018 25.334 804 83.1058 804 154.371Z" stroke="#5A5A5A"/>
</g>
<path opacity="0.5" d="M710.165 70.0005C710.165 73.3302 708.667 76.9757 705.003 80.9552C701.316 84.9589 695.662 89.0372 688.002 93.0622C672.689 101.107 650.236 108.489 622.111 114.739C565.936 127.222 488.112 134.982 401.999 134.982C315.886 134.982 238.062 127.222 181.886 114.739C153.762 108.489 131.309 101.107 115.996 93.0622C108.335 89.0372 102.681 84.9589 98.9946 80.9552C95.3302 76.9757 93.832 73.3302 93.832 70.0005C93.832 66.6709 95.3302 63.0253 98.9946 59.0458C102.681 55.0422 108.335 50.9639 115.996 46.9388C131.309 38.8937 153.762 31.5124 181.886 25.2625C238.062 12.7791 315.886 5.01904 401.999 5.01904C488.112 5.01904 565.936 12.7791 622.111 25.2625C650.236 31.5124 672.689 38.8937 688.002 46.9388C695.662 50.9639 701.316 55.0422 705.003 59.0458C708.667 63.0253 710.165 66.6709 710.165 70.0005Z" fill="#F4F4F4" stroke="#5A5A5A" stroke-width="9"/>
<path opacity="0.5" d="M93.832 136.91V77.2857C99.8849 83.9676 109.921 91.6988 126.546 99.2907C166.517 117.544 245.464 135.392 401.999 135.392C558.533 135.392 637.48 117.544 677.451 99.2907C694.077 91.6988 704.113 83.9676 710.165 77.2857V136.909C710.162 136.95 710.154 137.032 710.136 137.152C710.093 137.448 709.992 137.983 709.76 138.725C709.298 140.201 708.302 142.548 706.145 145.502C701.831 151.413 692.755 159.907 673.713 168.603C635.517 186.045 558.131 203.891 401.999 203.891C245.867 203.891 168.48 186.045 130.285 168.603C111.243 159.907 102.167 151.413 97.8521 145.502C95.6958 142.548 94.6993 140.201 94.2375 138.725C94.0053 137.983 93.9043 137.448 93.8612 137.152C93.8435 137.032 93.8354 136.95 93.832 136.91Z" fill="#F4F4F4" stroke="#5A5A5A" stroke-width="9"/>
<defs>
<radialGradient id="paint0_radial_22_637" cx="0" cy="0" r="1" gradientUnits="userSpaceOnUse" gradientTransform="translate(401.999 191.751) rotate(180) scale(362.296 86.1201)">
<stop stop-color="#EEB4B4"/>
<stop offset="1" stop-color="#E19C9C"/>
</radialGradient>
</defs>
</svg>
