<svg width="804" height="1244" viewBox="0 0 804 1244" fill="none" xmlns="http://www.w3.org/2000/svg">
<mask id="path-1-inside-1_22_641" fill="white">
<path d="M39.7031 226.15C39.7031 226.15 39.7031 308.039 401.999 308.039C764.296 308.039 764.296 226.15 764.296 226.15L679.925 1136.63C679.925 1136.63 679.925 1243.56 401.999 1243.56C124.073 1243.56 124.074 1136.63 124.074 1136.63L39.7031 226.15Z"/>
</mask>
<path d="M39.7031 226.15C39.7031 226.15 39.7031 308.039 401.999 308.039C764.296 308.039 764.296 226.15 764.296 226.15L679.925 1136.63C679.925 1136.63 679.925 1243.56 401.999 1243.56C124.073 1243.56 124.074 1136.63 124.074 1136.63L39.7031 226.15Z" fill="#F4F4F4"/>
<path d="M39.7031 226.15L48.6647 225.319L30.7031 226.15H39.7031ZM764.296 226.15H773.296L755.334 225.319L764.296 226.15ZM679.925 1136.63L670.964 1135.8L670.925 1136.21V1136.63H679.925ZM124.074 1136.63L133.074 1136.63L133.074 1136.21L133.035 1135.8L124.074 1136.63ZM755.334 225.319L670.964 1135.8L688.887 1137.46L773.257 226.98L755.334 225.319ZM133.035 1135.8L48.6647 225.319L30.7415 226.98L115.112 1137.46L133.035 1135.8ZM679.925 1136.63C670.925 1136.63 670.925 1136.62 670.925 1136.61C670.925 1136.6 670.925 1136.59 670.925 1136.59C670.926 1136.57 670.926 1136.56 670.926 1136.56C670.926 1136.54 670.926 1136.53 670.926 1136.52C670.926 1136.51 670.926 1136.52 670.925 1136.56C670.922 1136.63 670.913 1136.8 670.891 1137.05C670.847 1137.56 670.749 1138.42 670.534 1139.58C670.104 1141.9 669.204 1145.42 667.324 1149.76C663.591 1158.38 655.861 1170.52 639.696 1182.96C607.213 1207.96 540.06 1234.56 401.999 1234.56V1252.56C541.865 1252.56 613.675 1225.69 650.673 1197.23C669.249 1182.93 678.89 1168.34 683.841 1156.91C686.304 1151.23 687.576 1146.4 688.231 1142.87C688.559 1141.1 688.732 1139.66 688.824 1138.61C688.87 1138.08 688.895 1137.64 688.909 1137.31C688.916 1137.15 688.92 1137.01 688.922 1136.89C688.924 1136.83 688.924 1136.78 688.925 1136.74C688.925 1136.72 688.925 1136.7 688.925 1136.68C688.925 1136.67 688.925 1136.66 688.925 1136.65C688.925 1136.64 688.925 1136.63 679.925 1136.63ZM401.999 1234.56C263.939 1234.56 196.786 1207.96 164.303 1182.96C148.138 1170.52 140.408 1158.38 136.675 1149.76C134.795 1145.42 133.895 1141.9 133.465 1139.58C133.25 1138.42 133.152 1137.56 133.108 1137.05C133.086 1136.8 133.077 1136.63 133.074 1136.56C133.073 1136.52 133.072 1136.51 133.073 1136.52C133.073 1136.53 133.073 1136.54 133.073 1136.56C133.073 1136.56 133.073 1136.57 133.073 1136.59C133.073 1136.59 133.073 1136.6 133.073 1136.61C133.073 1136.62 133.074 1136.63 124.074 1136.63C115.074 1136.63 115.074 1136.64 115.074 1136.65C115.074 1136.66 115.074 1136.67 115.074 1136.68C115.074 1136.7 115.074 1136.72 115.074 1136.74C115.075 1136.78 115.075 1136.83 115.076 1136.89C115.079 1137.01 115.083 1137.15 115.09 1137.31C115.104 1137.64 115.129 1138.08 115.175 1138.61C115.267 1139.66 115.44 1141.1 115.768 1142.87C116.423 1146.4 117.695 1151.23 120.158 1156.91C125.109 1168.34 134.749 1182.93 153.326 1197.23C190.324 1225.69 262.134 1252.56 401.999 1252.56V1234.56ZM39.7031 226.15C30.7031 226.15 30.7031 226.17 30.7032 226.19C30.7032 226.197 30.7034 226.217 30.7035 226.232C30.7037 226.26 30.7041 226.29 30.7047 226.322C30.7058 226.384 30.7075 226.452 30.7101 226.525C30.7152 226.671 30.7237 226.838 30.737 227.025C30.7637 227.4 30.8099 227.854 30.8879 228.383C31.044 229.441 31.3262 230.789 31.8291 232.381C32.8397 235.578 34.7115 239.663 38.1203 244.286C44.9316 253.524 57.6482 264.611 81.2829 275.295C128.334 296.565 220.454 317.039 401.999 317.039V299.039C221.248 299.039 132.22 278.568 88.6975 258.893C67.045 249.105 57.1181 239.721 52.6077 233.604C50.3556 230.55 49.397 228.237 48.9924 226.957C48.7877 226.309 48.7161 225.898 48.6953 225.756C48.6848 225.685 48.6868 225.68 48.6914 225.744C48.6937 225.776 48.6966 225.826 48.699 225.893C48.7001 225.927 48.7012 225.965 48.7019 226.008C48.7023 226.029 48.7026 226.052 48.7028 226.076C48.7029 226.087 48.703 226.106 48.703 226.112C48.7031 226.131 48.7031 226.15 39.7031 226.15ZM401.999 317.039C583.545 317.039 675.665 296.565 722.716 275.295C746.351 264.611 759.067 253.524 765.878 244.286C769.287 239.663 771.159 235.578 772.17 232.381C772.673 230.789 772.955 229.441 773.111 228.383C773.189 227.854 773.235 227.4 773.262 227.025C773.275 226.838 773.284 226.671 773.289 226.525C773.291 226.452 773.293 226.384 773.294 226.322C773.295 226.29 773.295 226.26 773.295 226.232C773.295 226.217 773.296 226.197 773.296 226.19C773.296 226.17 773.296 226.15 764.296 226.15C755.296 226.15 755.296 226.131 755.296 226.112C755.296 226.106 755.296 226.087 755.296 226.076C755.296 226.052 755.297 226.029 755.297 226.008C755.298 225.965 755.299 225.927 755.3 225.893C755.302 225.826 755.305 225.776 755.307 225.744C755.312 225.68 755.314 225.685 755.304 225.756C755.283 225.898 755.211 226.309 755.006 226.957C754.602 228.237 753.643 230.55 751.391 233.604C746.881 239.721 736.954 249.105 715.301 258.893C671.778 278.568 582.751 299.039 401.999 299.039V317.039Z" fill="#5A5A5A" mask="url(#path-1-inside-1_22_641)"/>
<path d="M714.337 419.405C734.661 412.629 746.61 405.735 753.663 399.895L720.202 831.95C719.878 832.371 719.407 832.953 718.765 833.677C717.175 835.467 714.532 838.13 710.462 841.382C702.323 847.883 688.454 856.756 665.862 865.698C620.649 883.593 540.609 901.723 401.999 901.723C263.39 901.723 183.349 883.593 138.137 865.698C115.545 856.756 101.676 847.883 93.5371 841.382C89.467 838.13 86.8237 835.467 85.2342 833.677C84.5921 832.953 84.1211 832.371 83.797 831.95L50.3358 399.895C57.3889 405.735 69.3376 412.629 89.662 419.405C135.609 434.724 225.523 449.809 401.999 449.809C578.476 449.809 668.39 434.724 714.337 419.405Z" fill="#E2D7D9" stroke="#5A5A5A" stroke-width="9"/>
<path d="M4.5 117.693V194.298C11.7522 183.06 24.7484 169.307 47.9772 155.714C99.2517 125.709 200.708 96.2865 402 96.2865C603.292 96.2865 704.748 125.709 756.023 155.714C779.252 169.307 792.248 183.06 799.5 194.298V117.693C799.5 117.674 799.498 117.634 799.495 117.571C799.487 117.433 799.47 117.19 799.431 116.849C799.353 116.166 799.189 115.09 798.843 113.674C798.153 110.846 796.733 106.644 793.809 101.509C787.973 91.2642 776.022 77.0966 751.477 62.7333C702.252 33.9273 602.708 4.53831 402 4.53831C201.292 4.53831 101.748 33.9273 52.5228 62.7333C27.9778 77.0966 16.0273 91.2642 10.1914 101.509C7.26659 106.644 5.84709 110.846 5.15678 113.674C4.8111 115.09 4.64698 116.166 4.56922 116.849C4.53034 117.19 4.51303 117.433 4.50545 117.571C4.50196 117.634 4.50053 117.675 4.5 117.693ZM799.5 117.697L799.5 117.7C799.5 117.706 799.5 117.705 799.5 117.697Z" fill="#F4F4F4" stroke="#5A5A5A" stroke-width="9"/>
<path d="M44.2068 163.004C44.2047 163.04 44.2036 163.065 44.2031 163.08V228.856L759.796 223.424V163.079C759.795 163.065 759.794 163.04 759.792 163.004C759.786 162.9 759.772 162.704 759.739 162.424C759.672 161.864 759.53 160.963 759.227 159.768C758.621 157.384 757.367 153.806 754.764 149.413C749.569 140.648 738.876 128.432 716.803 116.016C672.52 91.1092 582.873 65.6498 401.999 65.6498C221.126 65.6498 131.479 91.1092 87.1962 116.016C65.123 128.432 54.4297 140.648 49.2352 149.413C46.6318 153.806 45.3778 157.384 44.7723 159.768C44.4689 160.963 44.3267 161.864 44.2603 162.424C44.2271 162.704 44.2128 162.9 44.2068 163.004Z" fill="url(#paint0_radial_22_641)" stroke="#5A5A5A" stroke-width="9"/>
<path d="M4.5 207.754V131.149C11.7522 142.387 24.7484 156.14 47.9772 169.734C99.2517 199.739 200.708 229.161 402 229.161C603.292 229.161 704.748 199.739 756.023 169.734C779.252 156.14 792.248 142.387 799.5 131.149V207.754C799.499 207.772 799.498 207.813 799.495 207.876C799.487 208.014 799.47 208.257 799.431 208.598C799.353 209.281 799.189 210.358 798.843 211.774C798.153 214.601 796.733 218.803 793.809 223.938C787.973 234.183 776.022 248.351 751.477 262.714C702.252 291.52 602.708 320.909 402 320.909C201.292 320.909 101.748 291.52 52.5228 262.714C27.9778 248.351 16.0273 234.183 10.1914 223.938C7.26659 218.803 5.84709 214.601 5.15678 211.774C4.8111 210.358 4.64698 209.281 4.56922 208.598C4.53034 208.257 4.51303 208.014 4.50545 207.876C4.50196 207.813 4.50053 207.772 4.5 207.754ZM4.49978 207.748L4.49988 207.75C4.49967 207.742 4.4997 207.742 4.49978 207.748Z" fill="#F4F4F4" stroke="#5A5A5A" stroke-width="9"/>
<path d="M150.022 148.771C150.586 140.42 153.042 131.645 161.105 129.401C165.336 128.224 171.251 127.532 179.483 128.088C187.716 128.644 193.484 130.126 197.517 131.862C205.206 135.17 206.458 144.196 205.894 152.547L204.857 167.889C204.634 171.196 201.773 173.695 198.466 173.471L154.567 170.505C151.26 170.281 148.761 167.42 148.985 164.114L150.022 148.771Z" fill="#D9D9D9"/>
<path d="M292.066 115.497C290.217 110.446 289.451 104.703 293.322 100.97C296.627 97.7829 302.623 94.0723 313.502 91.186C329.335 86.9851 337.052 89.428 340.458 91.5563C342.247 92.6743 343.222 94.6198 344.044 96.5629L362.298 139.716C363.414 142.353 361.478 145.274 358.614 145.274L305.761 145.274C304.082 145.274 302.582 144.226 302.005 142.649L292.066 115.497Z" fill="#D9D9D9"/>
<path d="M467.357 153.605C474.44 152.306 482.267 152.409 486.096 158.509C488.375 162.139 490.655 167.681 492.205 176.135C492.205 183.428 490.729 188.149 489.458 190.863C488.517 192.87 486.395 193.817 484.178 193.817L413.36 193.817C413.36 193.817 407.798 193.817 402.472 193.817C398.61 193.817 395.241 191.053 394.849 187.211C394.29 181.728 394.521 177.611 395.104 174.54C396.306 168.205 402.656 165.473 408.999 164.31L467.357 153.605Z" fill="#D9D9D9"/>
<path d="M569.142 108.421C570.57 103.19 572.986 97.8333 578.295 96.7335C581.869 95.9932 587.134 95.896 594.779 97.5871C600.337 98.8165 604.355 100.372 607.26 101.967C613.938 105.634 613.8 113.931 611.794 121.28L600.632 162.162C600.038 164.337 598.062 165.845 595.808 165.845L560.004 165.845C556.706 165.845 554.312 162.709 555.181 159.528L569.142 108.421Z" fill="#D9D9D9"/>
<defs>
<radialGradient id="paint0_radial_22_641" cx="0" cy="0" r="1" gradientUnits="userSpaceOnUse" gradientTransform="translate(401.999 147.27) rotate(180) scale(362.296 86.1201)">
<stop stop-color="#EEB4B4"/>
<stop offset="1" stop-color="#E19C9C"/>
</radialGradient>
</defs>
</svg>
