<svg width="804" height="1537" viewBox="0 0 804 1537" fill="none" xmlns="http://www.w3.org/2000/svg">
<mask id="path-1-inside-1_22_639" fill="white">
<path d="M39.7031 519.149C39.7031 519.149 39.7031 601.038 401.999 601.038C764.296 601.038 764.296 519.149 764.296 519.149L679.925 1429.63C679.925 1429.63 679.925 1536.56 401.999 1536.56C124.073 1536.56 124.074 1429.63 124.074 1429.63L39.7031 519.149Z"/>
</mask>
<path d="M39.7031 519.149C39.7031 519.149 39.7031 601.038 401.999 601.038C764.296 601.038 764.296 519.149 764.296 519.149L679.925 1429.63C679.925 1429.63 679.925 1536.56 401.999 1536.56C124.073 1536.56 124.074 1429.63 124.074 1429.63L39.7031 519.149Z" fill="#F4F4F4"/>
<path d="M39.7031 519.149L48.6647 518.319L30.7031 519.149H39.7031ZM764.296 519.149H773.296L755.334 518.319L764.296 519.149ZM679.925 1429.63L670.964 1428.8L670.925 1429.21V1429.63H679.925ZM124.074 1429.63L133.074 1429.63L133.074 1429.21L133.035 1428.8L124.074 1429.63ZM755.334 518.319L670.964 1428.8L688.887 1430.46L773.257 519.98L755.334 518.319ZM133.035 1428.8L48.6647 518.319L30.7415 519.98L115.112 1430.46L133.035 1428.8ZM679.925 1429.63C670.925 1429.63 670.925 1429.62 670.925 1429.61C670.925 1429.6 670.925 1429.59 670.925 1429.59C670.926 1429.57 670.926 1429.56 670.926 1429.55C670.926 1429.54 670.926 1429.53 670.926 1429.52C670.926 1429.51 670.926 1429.52 670.925 1429.56C670.922 1429.63 670.913 1429.8 670.891 1430.05C670.847 1430.56 670.749 1431.42 670.534 1432.58C670.104 1434.9 669.204 1438.42 667.324 1442.76C663.591 1451.38 655.861 1463.52 639.696 1475.96C607.213 1500.95 540.06 1527.56 401.999 1527.56V1545.56C541.865 1545.56 613.675 1518.69 650.673 1490.22C669.249 1475.93 678.89 1461.34 683.841 1449.91C686.304 1444.23 687.576 1439.4 688.231 1435.86C688.559 1434.1 688.732 1432.66 688.824 1431.61C688.87 1431.08 688.895 1430.64 688.909 1430.31C688.916 1430.15 688.92 1430 688.922 1429.89C688.924 1429.83 688.924 1429.78 688.925 1429.74C688.925 1429.72 688.925 1429.7 688.925 1429.68C688.925 1429.67 688.925 1429.66 688.925 1429.65C688.925 1429.64 688.925 1429.63 679.925 1429.63ZM401.999 1527.56C263.939 1527.56 196.786 1500.95 164.303 1475.96C148.138 1463.52 140.408 1451.38 136.675 1442.76C134.795 1438.42 133.895 1434.9 133.465 1432.58C133.25 1431.42 133.152 1430.56 133.108 1430.05C133.086 1429.8 133.077 1429.63 133.074 1429.56C133.073 1429.52 133.072 1429.51 133.073 1429.52C133.073 1429.53 133.073 1429.54 133.073 1429.55C133.073 1429.56 133.073 1429.57 133.073 1429.59C133.073 1429.59 133.073 1429.6 133.073 1429.61C133.073 1429.62 133.074 1429.63 124.074 1429.63C115.074 1429.63 115.074 1429.64 115.074 1429.65C115.074 1429.66 115.074 1429.67 115.074 1429.68C115.074 1429.7 115.074 1429.72 115.074 1429.74C115.075 1429.78 115.075 1429.83 115.076 1429.89C115.079 1430 115.083 1430.15 115.09 1430.31C115.104 1430.64 115.129 1431.08 115.175 1431.61C115.267 1432.66 115.44 1434.1 115.768 1435.86C116.423 1439.4 117.695 1444.23 120.158 1449.91C125.109 1461.34 134.749 1475.93 153.326 1490.22C190.324 1518.69 262.134 1545.56 401.999 1545.56V1527.56ZM39.7031 519.149C30.7031 519.149 30.7031 519.169 30.7032 519.189C30.7032 519.196 30.7034 519.217 30.7035 519.231C30.7037 519.26 30.7041 519.29 30.7047 519.321C30.7058 519.384 30.7075 519.452 30.7101 519.525C30.7152 519.671 30.7237 519.838 30.737 520.025C30.7637 520.399 30.8099 520.854 30.8879 521.382C31.044 522.441 31.3262 523.789 31.8291 525.38C32.8397 528.578 34.7115 532.663 38.1203 537.286C44.9316 546.523 57.6482 557.611 81.2829 568.295C128.334 589.565 220.454 610.038 401.999 610.038V592.038C221.248 592.038 132.22 571.568 88.6975 551.893C67.045 542.105 57.1181 532.72 52.6077 526.603C50.3556 523.549 49.397 521.236 48.9924 519.956C48.7877 519.308 48.7161 518.897 48.6953 518.756C48.6848 518.685 48.6868 518.679 48.6914 518.744C48.6937 518.776 48.6966 518.825 48.699 518.893C48.7001 518.927 48.7012 518.965 48.7019 519.008C48.7023 519.029 48.7026 519.051 48.7028 519.075C48.7029 519.087 48.703 519.106 48.703 519.111C48.7031 519.13 48.7031 519.149 39.7031 519.149ZM401.999 610.038C583.545 610.038 675.665 589.565 722.716 568.295C746.351 557.611 759.067 546.523 765.878 537.286C769.287 532.663 771.159 528.578 772.17 525.38C772.673 523.789 772.955 522.441 773.111 521.382C773.189 520.854 773.235 520.399 773.262 520.025C773.275 519.838 773.284 519.671 773.289 519.525C773.291 519.452 773.293 519.384 773.294 519.321C773.295 519.29 773.295 519.26 773.295 519.231C773.295 519.217 773.296 519.196 773.296 519.189C773.296 519.169 773.296 519.149 764.296 519.149C755.296 519.149 755.296 519.13 755.296 519.111C755.296 519.106 755.296 519.087 755.296 519.075C755.296 519.051 755.297 519.029 755.297 519.008C755.298 518.965 755.299 518.927 755.3 518.893C755.302 518.825 755.305 518.776 755.307 518.744C755.312 518.679 755.314 518.685 755.304 518.756C755.283 518.897 755.211 519.308 755.006 519.956C754.602 521.236 753.643 523.549 751.391 526.603C746.881 532.72 736.954 542.105 715.301 551.893C671.778 571.568 582.751 592.038 401.999 592.038V610.038Z" fill="#5A5A5A" mask="url(#path-1-inside-1_22_639)"/>
<path d="M714.339 712.405C734.663 705.629 746.612 698.735 753.665 692.895L720.204 1124.95C719.88 1125.37 719.409 1125.95 718.767 1126.68C717.177 1128.47 714.534 1131.13 710.464 1134.38C702.325 1140.88 688.456 1149.76 665.864 1158.7C620.651 1176.59 540.611 1194.72 402.001 1194.72C263.392 1194.72 183.351 1176.59 138.139 1158.7C115.547 1149.76 101.678 1140.88 93.5391 1134.38C89.4689 1131.13 86.8256 1128.47 85.2362 1126.68C84.594 1125.95 84.1231 1125.37 83.7989 1124.95L50.3378 692.895C57.3908 698.735 69.3395 705.629 89.664 712.405C135.611 727.724 225.525 742.809 402.001 742.809C578.478 742.809 668.392 727.724 714.339 712.405Z" fill="#E2D7D9" stroke="#5A5A5A" stroke-width="9"/>
<path d="M4.5 410.693V487.298C11.7522 476.06 24.7484 462.307 47.9772 448.714C99.2517 418.709 200.708 389.286 402 389.286C603.292 389.286 704.748 418.709 756.023 448.714C779.252 462.307 792.248 476.06 799.5 487.298V410.693C799.5 410.674 799.498 410.634 799.495 410.571C799.487 410.433 799.47 410.19 799.431 409.849C799.353 409.166 799.189 408.09 798.843 406.674C798.153 403.846 796.733 399.644 793.809 394.509C787.973 384.264 776.022 370.097 751.477 355.733C702.252 326.927 602.708 297.538 402 297.538C201.292 297.538 101.748 326.927 52.5228 355.733C27.9778 370.097 16.0273 384.264 10.1914 394.509C7.26659 399.644 5.84709 403.846 5.15678 406.674C4.8111 408.09 4.64698 409.166 4.56922 409.849C4.53034 410.19 4.51303 410.433 4.50545 410.571C4.50196 410.634 4.50053 410.675 4.5 410.693ZM799.5 410.697L799.5 410.7C799.5 410.706 799.5 410.705 799.5 410.697Z" fill="#F4F4F4" stroke="#5A5A5A" stroke-width="9"/>
<path d="M44.2068 456.004C44.2047 456.04 44.2036 456.065 44.2031 456.079V521.855L759.796 516.424V456.079C759.795 456.065 759.794 456.04 759.792 456.004C759.786 455.899 759.772 455.704 759.739 455.424C759.672 454.863 759.53 453.962 759.227 452.768C758.621 450.384 757.367 446.805 754.764 442.412C749.569 433.647 738.876 421.431 716.803 409.016C672.52 384.109 582.873 358.649 401.999 358.649C221.126 358.649 131.479 384.109 87.1962 409.016C65.123 421.431 54.4297 433.647 49.2352 442.412C46.6318 446.805 45.3778 450.384 44.7723 452.768C44.4689 453.962 44.3267 454.863 44.2603 455.424C44.2271 455.704 44.2128 455.899 44.2068 456.004Z" fill="url(#paint0_radial_22_639)" stroke="#5A5A5A" stroke-width="9"/>
<path d="M4.5 500.754V424.149C11.7522 435.387 24.7484 449.14 47.9772 462.734C99.2517 492.739 200.708 522.161 402 522.161C603.292 522.161 704.748 492.739 756.023 462.734C779.252 449.14 792.248 435.387 799.5 424.149V500.754C799.499 500.772 799.498 500.813 799.495 500.876C799.487 501.014 799.47 501.257 799.431 501.598C799.353 502.281 799.189 503.358 798.843 504.774C798.153 507.601 796.733 511.803 793.809 516.938C787.973 527.183 776.022 541.351 751.477 555.714C702.252 584.52 602.708 613.909 402 613.909C201.292 613.909 101.748 584.52 52.5228 555.714C27.9778 541.351 16.0273 527.183 10.1914 516.938C7.26659 511.803 5.84709 507.601 5.15678 504.774C4.8111 503.358 4.64698 502.281 4.56922 501.598C4.53034 501.257 4.51303 501.014 4.50545 500.876C4.50196 500.813 4.50053 500.772 4.5 500.754ZM4.49978 500.748L4.49988 500.75C4.49967 500.742 4.4997 500.742 4.49978 500.748Z" fill="#F4F4F4" stroke="#5A5A5A" stroke-width="9"/>
<path d="M150.022 441.771C150.586 433.42 153.042 424.645 161.105 422.401C165.336 421.224 171.251 420.532 179.483 421.088C187.716 421.644 193.484 423.126 197.517 424.862C205.206 428.17 206.458 437.196 205.894 445.547L204.857 460.889C204.634 464.196 201.773 466.695 198.466 466.471L154.567 463.505C151.26 463.281 148.761 460.42 148.985 457.114L150.022 441.771Z" fill="#D9D9D9"/>
<path d="M292.066 408.497C290.217 403.446 289.451 397.703 293.322 393.97C296.627 390.783 302.623 387.072 313.502 384.186C329.335 379.985 337.052 382.428 340.458 384.556C342.247 385.674 343.222 387.62 344.044 389.563L362.298 432.716C363.414 435.353 361.478 438.274 358.614 438.274L305.761 438.274C304.082 438.274 302.582 437.226 302.005 435.649L292.066 408.497Z" fill="#D9D9D9"/>
<path d="M467.357 446.605C474.44 445.306 482.267 445.409 486.096 451.509C488.375 455.139 490.655 460.681 492.205 469.135C492.205 476.428 490.729 481.149 489.458 483.863C488.517 485.87 486.395 486.817 484.178 486.817L413.36 486.817C413.36 486.817 407.798 486.817 402.472 486.817C398.61 486.817 395.241 484.053 394.849 480.211C394.29 474.728 394.521 470.611 395.104 467.54C396.306 461.205 402.656 458.473 408.999 457.31L467.357 446.605Z" fill="#D9D9D9"/>
<path d="M569.142 401.421C570.57 396.19 572.986 390.833 578.295 389.733C581.869 388.993 587.134 388.896 594.779 390.587C600.337 391.816 604.355 393.372 607.26 394.967C613.938 398.634 613.8 406.931 611.794 414.28L600.632 455.162C600.038 457.337 598.062 458.845 595.808 458.845L560.004 458.845C556.706 458.845 554.312 455.709 555.181 452.528L569.142 401.421Z" fill="#D9D9D9"/>
<path d="M680 449.788H643L710 0.0380859H748L680 449.788Z" fill="#242424"/>
<defs>
<radialGradient id="paint0_radial_22_639" cx="0" cy="0" r="1" gradientUnits="userSpaceOnUse" gradientTransform="translate(401.999 440.27) rotate(180) scale(362.296 86.1201)">
<stop stop-color="#EEB4B4"/>
<stop offset="1" stop-color="#E19C9C"/>
</radialGradient>
</defs>
</svg>
