<svg width="804" height="1280" viewBox="0 0 804 1280" fill="none" xmlns="http://www.w3.org/2000/svg">
<mask id="path-1-inside-1_22_640" fill="white">
<path d="M39.7031 262.149C39.7031 262.149 39.7031 344.038 401.999 344.038C764.296 344.038 764.296 262.149 764.296 262.149L679.925 1172.63C679.925 1172.63 679.925 1279.56 401.999 1279.56C124.073 1279.56 124.074 1172.63 124.074 1172.63L39.7031 262.149Z"/>
</mask>
<path d="M39.7031 262.149C39.7031 262.149 39.7031 344.038 401.999 344.038C764.296 344.038 764.296 262.149 764.296 262.149L679.925 1172.63C679.925 1172.63 679.925 1279.56 401.999 1279.56C124.073 1279.56 124.074 1172.63 124.074 1172.63L39.7031 262.149Z" fill="#F4F4F4"/>
<path d="M39.7031 262.149L48.6647 261.319L30.7031 262.149H39.7031ZM764.296 262.149H773.296L755.334 261.319L764.296 262.149ZM679.925 1172.63L670.964 1171.8L670.925 1172.21V1172.63H679.925ZM124.074 1172.63L133.074 1172.63L133.074 1172.21L133.035 1171.8L124.074 1172.63ZM755.334 261.319L670.964 1171.8L688.887 1173.46L773.257 262.98L755.334 261.319ZM133.035 1171.8L48.6647 261.319L30.7415 262.98L115.112 1173.46L133.035 1171.8ZM679.925 1172.63C670.925 1172.63 670.925 1172.62 670.925 1172.61C670.925 1172.6 670.925 1172.59 670.925 1172.59C670.926 1172.57 670.926 1172.56 670.926 1172.55C670.926 1172.54 670.926 1172.53 670.926 1172.52C670.926 1172.51 670.926 1172.52 670.925 1172.56C670.922 1172.63 670.913 1172.8 670.891 1173.05C670.847 1173.56 670.749 1174.42 670.534 1175.58C670.104 1177.9 669.204 1181.42 667.324 1185.76C663.591 1194.38 655.861 1206.52 639.696 1218.96C607.213 1243.95 540.06 1270.56 401.999 1270.56V1288.56C541.865 1288.56 613.675 1261.69 650.673 1233.22C669.249 1218.93 678.89 1204.34 683.841 1192.91C686.304 1187.23 687.576 1182.4 688.231 1178.86C688.559 1177.1 688.732 1175.66 688.824 1174.61C688.87 1174.08 688.895 1173.64 688.909 1173.31C688.916 1173.15 688.92 1173 688.922 1172.89C688.924 1172.83 688.924 1172.78 688.925 1172.74C688.925 1172.72 688.925 1172.7 688.925 1172.68C688.925 1172.67 688.925 1172.66 688.925 1172.65C688.925 1172.64 688.925 1172.63 679.925 1172.63ZM401.999 1270.56C263.939 1270.56 196.786 1243.95 164.303 1218.96C148.138 1206.52 140.408 1194.38 136.675 1185.76C134.795 1181.42 133.895 1177.9 133.465 1175.58C133.25 1174.42 133.152 1173.56 133.108 1173.05C133.086 1172.8 133.077 1172.63 133.074 1172.56C133.073 1172.52 133.072 1172.51 133.073 1172.52C133.073 1172.53 133.073 1172.54 133.073 1172.55C133.073 1172.56 133.073 1172.57 133.073 1172.59C133.073 1172.59 133.073 1172.6 133.073 1172.61C133.073 1172.62 133.074 1172.63 124.074 1172.63C115.074 1172.63 115.074 1172.64 115.074 1172.65C115.074 1172.66 115.074 1172.67 115.074 1172.68C115.074 1172.7 115.074 1172.72 115.074 1172.74C115.075 1172.78 115.075 1172.83 115.076 1172.89C115.079 1173 115.083 1173.15 115.09 1173.31C115.104 1173.64 115.129 1174.08 115.175 1174.61C115.267 1175.66 115.44 1177.1 115.768 1178.86C116.423 1182.4 117.695 1187.23 120.158 1192.91C125.109 1204.34 134.749 1218.93 153.326 1233.22C190.324 1261.69 262.134 1288.56 401.999 1288.56V1270.56ZM39.7031 262.149C30.7031 262.149 30.7031 262.169 30.7032 262.189C30.7032 262.196 30.7034 262.217 30.7035 262.231C30.7037 262.26 30.7041 262.29 30.7047 262.321C30.7058 262.384 30.7075 262.452 30.7101 262.525C30.7152 262.671 30.7237 262.838 30.737 263.025C30.7637 263.399 30.8099 263.854 30.8879 264.382C31.044 265.441 31.3262 266.789 31.8291 268.38C32.8397 271.578 34.7115 275.663 38.1203 280.286C44.9316 289.523 57.6482 300.611 81.2829 311.295C128.334 332.565 220.454 353.038 401.999 353.038V335.038C221.248 335.038 132.22 314.568 88.6975 294.893C67.045 285.105 57.1181 275.72 52.6077 269.603C50.3556 266.549 49.397 264.236 48.9924 262.956C48.7877 262.308 48.7161 261.897 48.6953 261.756C48.6848 261.685 48.6868 261.679 48.6914 261.744C48.6937 261.776 48.6966 261.825 48.699 261.893C48.7001 261.927 48.7012 261.965 48.7019 262.008C48.7023 262.029 48.7026 262.051 48.7028 262.075C48.7029 262.087 48.703 262.106 48.703 262.111C48.7031 262.13 48.7031 262.149 39.7031 262.149ZM401.999 353.038C583.545 353.038 675.665 332.565 722.716 311.295C746.351 300.611 759.067 289.523 765.878 280.286C769.287 275.663 771.159 271.578 772.17 268.38C772.673 266.789 772.955 265.441 773.111 264.382C773.189 263.854 773.235 263.399 773.262 263.025C773.275 262.838 773.284 262.671 773.289 262.525C773.291 262.452 773.293 262.384 773.294 262.321C773.295 262.29 773.295 262.26 773.295 262.231C773.295 262.217 773.296 262.196 773.296 262.189C773.296 262.169 773.296 262.149 764.296 262.149C755.296 262.149 755.296 262.13 755.296 262.111C755.296 262.106 755.296 262.087 755.296 262.075C755.296 262.051 755.297 262.029 755.297 262.008C755.298 261.965 755.299 261.927 755.3 261.893C755.302 261.825 755.305 261.776 755.307 261.744C755.312 261.679 755.314 261.685 755.304 261.756C755.283 261.897 755.211 262.308 755.006 262.956C754.602 264.236 753.643 266.549 751.391 269.603C746.881 275.72 736.954 285.105 715.301 294.893C671.778 314.568 582.751 335.038 401.999 335.038V353.038Z" fill="#5A5A5A" mask="url(#path-1-inside-1_22_640)"/>
<path d="M714.339 455.405C734.663 448.629 746.612 441.735 753.665 435.895L720.204 867.95C719.88 868.371 719.409 868.953 718.767 869.677C717.177 871.467 714.534 874.13 710.464 877.382C702.325 883.883 688.456 892.756 665.864 901.698C620.651 919.593 540.611 937.723 402.001 937.723C263.392 937.723 183.351 919.593 138.139 901.698C115.547 892.756 101.678 883.883 93.5391 877.382C89.4689 874.13 86.8256 871.467 85.2362 869.677C84.594 868.953 84.1231 868.371 83.7989 867.95L50.3378 435.895C57.3908 441.735 69.3395 448.629 89.664 455.405C135.611 470.724 225.525 485.809 402.001 485.809C578.478 485.809 668.392 470.724 714.339 455.405Z" fill="#E2D7D9" stroke="#5A5A5A" stroke-width="9"/>
<path d="M4.5 153.693V230.298C11.7522 219.06 24.7484 205.307 47.9772 191.714C99.2517 161.709 200.708 132.286 402 132.286C603.292 132.286 704.748 161.709 756.023 191.714C779.252 205.307 792.248 219.06 799.5 230.298V153.693C799.5 153.674 799.498 153.634 799.495 153.571C799.487 153.433 799.47 153.19 799.431 152.849C799.353 152.166 799.189 151.09 798.843 149.674C798.153 146.846 796.733 142.644 793.809 137.509C787.973 127.264 776.022 113.097 751.477 98.7333C702.252 69.9273 602.708 40.5383 402 40.5383C201.292 40.5383 101.748 69.9273 52.5228 98.7333C27.9778 113.097 16.0273 127.264 10.1914 137.509C7.26659 142.644 5.84709 146.846 5.15678 149.674C4.8111 151.09 4.64698 152.166 4.56922 152.849C4.53034 153.19 4.51303 153.433 4.50545 153.571C4.50196 153.634 4.50053 153.675 4.5 153.693ZM799.5 153.697L799.5 153.7C799.5 153.706 799.5 153.705 799.5 153.697Z" fill="#F4F4F4" stroke="#5A5A5A" stroke-width="9"/>
<path d="M44.2068 199.004C44.2047 199.04 44.2036 199.065 44.2031 199.079V264.855L759.796 259.424V199.079C759.795 199.065 759.794 199.04 759.792 199.004C759.786 198.899 759.772 198.704 759.739 198.424C759.672 197.863 759.53 196.962 759.227 195.768C758.621 193.384 757.367 189.805 754.764 185.412C749.569 176.647 738.876 164.431 716.803 152.016C672.52 127.109 582.873 101.649 401.999 101.649C221.126 101.649 131.479 127.109 87.1962 152.016C65.123 164.431 54.4297 176.647 49.2352 185.412C46.6318 189.805 45.3778 193.384 44.7723 195.768C44.4689 196.962 44.3267 197.863 44.2603 198.424C44.2271 198.704 44.2128 198.899 44.2068 199.004Z" fill="url(#paint0_radial_22_640)" stroke="#5A5A5A" stroke-width="9"/>
<path d="M4.5 243.754V167.149C11.7522 178.387 24.7484 192.14 47.9772 205.734C99.2517 235.739 200.708 265.161 402 265.161C603.292 265.161 704.748 235.739 756.023 205.734C779.252 192.14 792.248 178.387 799.5 167.149V243.754C799.499 243.772 799.498 243.813 799.495 243.876C799.487 244.014 799.47 244.257 799.431 244.598C799.353 245.281 799.189 246.358 798.843 247.774C798.153 250.601 796.733 254.803 793.809 259.938C787.973 270.183 776.022 284.351 751.477 298.714C702.252 327.52 602.708 356.909 402 356.909C201.292 356.909 101.748 327.52 52.5228 298.714C27.9778 284.351 16.0273 270.183 10.1914 259.938C7.26659 254.803 5.84709 250.601 5.15678 247.774C4.8111 246.358 4.64698 245.281 4.56922 244.598C4.53034 244.257 4.51303 244.014 4.50545 243.876C4.50196 243.813 4.50053 243.772 4.5 243.754ZM4.49978 243.748L4.49988 243.75C4.49967 243.742 4.4997 243.742 4.49978 243.748Z" fill="#F4F4F4" stroke="#5A5A5A" stroke-width="9"/>
<path d="M150.022 184.771C150.586 176.42 153.042 167.645 161.105 165.401C165.336 164.224 171.251 163.532 179.483 164.088C187.716 164.644 193.484 166.126 197.517 167.862C205.206 171.17 206.458 180.196 205.894 188.547L204.857 203.889C204.634 207.196 201.773 209.695 198.466 209.471L154.567 206.505C151.26 206.281 148.761 203.42 148.985 200.114L150.022 184.771Z" fill="#D9D9D9"/>
<path d="M292.066 151.497C290.217 146.446 289.451 140.703 293.322 136.97C296.627 133.783 302.623 130.072 313.502 127.186C329.335 122.985 337.052 125.428 340.458 127.556C342.247 128.674 343.222 130.62 344.044 132.563L362.298 175.716C363.414 178.353 361.478 181.274 358.614 181.274L305.761 181.274C304.082 181.274 302.582 180.226 302.005 178.649L292.066 151.497Z" fill="#D9D9D9"/>
<path d="M467.357 189.605C474.44 188.306 482.267 188.409 486.096 194.509C488.375 198.139 490.655 203.681 492.205 212.135C492.205 219.428 490.729 224.149 489.458 226.863C488.517 228.87 486.395 229.817 484.178 229.817L413.36 229.817C413.36 229.817 407.798 229.817 402.472 229.817C398.61 229.817 395.241 227.053 394.849 223.211C394.29 217.728 394.521 213.611 395.104 210.54C396.306 204.205 402.656 201.473 408.999 200.31L467.357 189.605Z" fill="#D9D9D9"/>
<path d="M569.142 144.421C570.57 139.19 572.986 133.833 578.295 132.733C581.869 131.993 587.134 131.896 594.779 133.587C600.337 134.816 604.355 136.372 607.26 137.967C613.938 141.634 613.8 149.931 611.794 157.28L600.632 198.162C600.038 200.337 598.062 201.845 595.808 201.845L560.004 201.845C556.706 201.845 554.312 198.709 555.181 195.528L569.142 144.421Z" fill="#D9D9D9"/>
<g opacity="0.5">
<path d="M804 153.89C804 225.155 624.018 282.927 402 282.927C179.982 282.927 0 225.155 0 153.89C0 82.6249 179.982 24.853 402 24.853C624.018 24.853 804 82.6249 804 153.89Z" fill="#F4F4F4"/>
<path d="M804 153.89C804 225.155 624.018 282.927 402 282.927C179.982 282.927 0 225.155 0 153.89C0 82.6249 179.982 24.853 402 24.853C624.018 24.853 804 82.6249 804 153.89Z" stroke="#5A5A5A"/>
</g>
<path opacity="0.5" d="M710.165 69.5196C710.165 72.8492 708.667 76.4948 705.003 80.4743C701.316 84.4779 695.662 88.5562 688.002 92.5813C672.689 100.626 650.236 108.008 622.111 114.258C565.936 126.741 488.112 134.501 401.999 134.501C315.886 134.501 238.062 126.741 181.886 114.258C153.762 108.008 131.309 100.626 115.996 92.5813C108.335 88.5562 102.681 84.4779 98.9946 80.4743C95.3302 76.4948 93.832 72.8492 93.832 69.5196C93.832 66.1899 95.3302 62.5444 98.9946 58.5649C102.681 54.5612 108.335 50.4829 115.996 46.4579C131.309 38.4127 153.762 31.0314 181.886 24.7816C238.062 12.2981 315.886 4.53809 401.999 4.53809C488.112 4.53809 565.936 12.2981 622.111 24.7816C650.236 31.0314 672.689 38.4127 688.002 46.4579C695.662 50.4829 701.316 54.5612 705.003 58.5649C708.667 62.5444 710.165 66.1899 710.165 69.5196Z" fill="#F4F4F4" stroke="#5A5A5A" stroke-width="9"/>
<path opacity="0.5" d="M93.832 136.429V76.805C99.8849 83.4869 109.921 91.2181 126.546 98.81C166.517 117.063 245.464 134.912 401.999 134.912C558.533 134.912 637.48 117.063 677.451 98.81C694.077 91.218 704.113 83.4869 710.165 76.805V136.429C710.162 136.469 710.154 136.551 710.136 136.672C710.093 136.967 709.992 137.502 709.76 138.244C709.298 139.72 708.302 142.068 706.145 145.022C701.831 150.933 692.755 159.426 673.713 168.122C635.517 185.564 558.131 203.41 401.999 203.41C245.867 203.41 168.48 185.564 130.285 168.122C111.243 159.426 102.167 150.933 97.8521 145.022C95.6958 142.068 94.6993 139.72 94.2375 138.244C94.0053 137.502 93.9043 136.967 93.8612 136.672C93.8435 136.551 93.8354 136.469 93.832 136.429Z" fill="#F4F4F4" stroke="#5A5A5A" stroke-width="9"/>
<defs>
<radialGradient id="paint0_radial_22_640" cx="0" cy="0" r="1" gradientUnits="userSpaceOnUse" gradientTransform="translate(401.999 183.27) rotate(180) scale(362.296 86.1201)">
<stop stop-color="#EEB4B4"/>
<stop offset="1" stop-color="#E19C9C"/>
</radialGradient>
</defs>
</svg>
