<svg width="78" height="78" viewBox="0 0 78 78" fill="none" xmlns="http://www.w3.org/2000/svg">
<path opacity="0.5" d="M4.25 35.7427C4.25 35.7427 4.25 46.7747 39 46.7747C73.75 46.7747 73.75 35.7427 73.75 35.7427V44.4516C73.75 44.4516 73.75 54.6192 39 54.6192C4.25 54.6192 4.25 44.4516 4.25 44.4516V35.7427Z" fill="#F4F4F4"/>
<path opacity="0.5" fill-rule="evenodd" clip-rule="evenodd" d="M73.75 35.7427C73.75 35.7427 73.75 36.619 72.972 37.8777C70.9896 41.0849 63.956 46.7747 39 46.7747C14.044 46.7747 7.01036 41.0849 5.02799 37.8777C4.25 36.619 4.25 35.7427 4.25 35.7427V44.4516C4.25 44.4516 4.25 54.6192 39 54.6192C73.75 54.6192 73.75 44.4516 73.75 44.4516V35.7427ZM72.972 39.2116C72.2738 40.0674 71.2684 40.9979 69.8233 41.9155C65.2958 44.7901 56.4323 47.5527 39 47.5527C21.5677 47.5527 12.7042 44.7901 8.17674 41.9155C6.73163 40.9979 5.72619 40.0674 5.02799 39.2116V44.44C5.02835 44.4459 5.02929 44.4586 5.03147 44.4778C5.03643 44.5213 5.04783 44.5982 5.07366 44.704C5.12513 44.9149 5.2348 45.2441 5.46897 45.6552C5.93494 46.4733 6.91509 47.6517 8.98668 48.864C13.1533 51.3022 21.6754 53.8412 39 53.8412C56.3246 53.8412 64.8467 51.3022 69.0133 48.864C71.0849 47.6517 72.0651 46.4733 72.531 45.6552C72.7652 45.2441 72.8749 44.9149 72.9263 44.704C72.9522 44.5982 72.9636 44.5213 72.9685 44.4778C72.9697 44.4675 72.9705 44.4591 72.9711 44.4526C72.9716 44.447 72.9718 44.4428 72.972 44.44V39.2116Z" fill="#5A5A5A"/>
<path opacity="0.5" d="M73.75 36.6802C73.75 42.8406 58.1919 47.8345 39 47.8345C19.8081 47.8345 4.25 42.8406 4.25 36.6802C4.25 30.5198 19.8081 25.5259 39 25.5259C58.1919 25.5259 73.75 30.5198 73.75 36.6802Z" fill="#F4F4F4"/>
<path opacity="0.5" fill-rule="evenodd" clip-rule="evenodd" d="M70.5489 40.4022C72.2223 39.1322 72.972 37.8669 72.972 36.6802C72.972 35.4935 72.2223 34.2282 70.5489 32.9582C68.8877 31.6975 66.4349 30.529 63.3342 29.5337C57.1415 27.5459 48.538 26.3039 39 26.3039C29.462 26.3039 20.8585 27.5459 14.6658 29.5337C11.5651 30.529 9.11226 31.6975 7.45114 32.9582C5.77768 34.2282 5.02799 35.4935 5.02799 36.6802C5.02799 37.8669 5.77768 39.1322 7.45114 40.4022C9.11226 41.6629 11.5651 42.8314 14.6658 43.8267C20.8585 45.8145 29.462 47.0565 39 47.0565C48.538 47.0565 57.1415 45.8145 63.3342 43.8267C66.4349 42.8314 68.8877 41.6629 70.5489 40.4022ZM39 47.8345C58.1919 47.8345 73.75 42.8406 73.75 36.6802C73.75 30.5198 58.1919 25.5259 39 25.5259C19.8081 25.5259 4.25 30.5198 4.25 36.6802C4.25 42.8406 19.8081 47.8345 39 47.8345Z" fill="#5A5A5A"/>
<path opacity="0.5" d="M66.0282 29.387C66.0282 32.7042 53.9275 35.3932 39.0004 35.3932C24.0734 35.3932 11.9727 32.7042 11.9727 29.387C11.9727 26.0699 24.0734 23.3809 39.0004 23.3809C53.9275 23.3809 66.0282 26.0699 66.0282 29.387Z" fill="#F4F4F4"/>
<path opacity="0.5" fill-rule="evenodd" clip-rule="evenodd" d="M64.9068 30.0705C65.1803 29.7735 65.2502 29.548 65.2502 29.387C65.2502 29.226 65.1803 29.0006 64.9068 28.7036C64.6295 28.4024 64.183 28.0745 63.5424 27.7379C62.2627 27.0656 60.3599 26.4365 57.9432 25.8995C53.1223 24.8282 46.4246 24.1588 39.0004 24.1588C31.5762 24.1588 24.8786 24.8282 20.0577 25.8995C17.6409 26.4365 15.7381 27.0656 14.4585 27.7379C13.8178 28.0745 13.3714 28.4024 13.0941 28.7036C12.8206 29.0006 12.7506 29.226 12.7506 29.387C12.7506 29.548 12.8206 29.7735 13.0941 30.0705C13.3714 30.3717 13.8178 30.6996 14.4585 31.0362C15.7381 31.7085 17.6409 32.3375 20.0577 32.8746C24.8786 33.9459 31.5762 34.6152 39.0004 34.6152C46.4246 34.6152 53.1223 33.9459 57.9432 32.8746C60.3599 32.3375 62.2627 31.7085 63.5424 31.0362C64.183 30.6996 64.6295 30.3717 64.9068 30.0705ZM39.0004 35.3932C53.9275 35.3932 66.0282 32.7042 66.0282 29.387C66.0282 26.0699 53.9275 23.3809 39.0004 23.3809C24.0734 23.3809 11.9727 26.0699 11.9727 29.387C11.9727 32.7042 24.0734 35.3932 39.0004 35.3932Z" fill="#5A5A5A"/>
<path opacity="0.5" d="M11.9727 28.4795C11.9727 28.4795 11.9727 34.6507 39.0004 34.6507C66.0282 34.6507 66.0282 28.4795 66.0282 28.4795V35.1787C66.0282 35.1787 66.0282 41.3499 39.0004 41.3499C11.9727 41.3499 11.9727 35.1787 11.9727 35.1787V28.4795Z" fill="#F4F4F4"/>
<path opacity="0.5" fill-rule="evenodd" clip-rule="evenodd" d="M66.0282 28.4795C66.0282 28.4795 66.0282 29.0591 65.2502 29.8631C63.4897 31.6824 57.745 34.6507 39.0004 34.6507C20.2558 34.6507 14.5112 31.6824 12.7506 29.8631C11.9727 29.0591 11.9727 28.4795 11.9727 28.4795V35.1787C11.9727 35.1787 11.9727 41.3499 39.0004 41.3499C66.0282 41.3499 66.0282 35.1787 66.0282 35.1787V28.4795ZM65.2502 30.913C64.7007 31.3578 63.9628 31.8207 62.9729 32.2728C59.4409 33.8857 52.5491 35.4287 39.0004 35.4287C25.4517 35.4287 18.5599 33.8857 15.028 32.2728C14.038 31.8207 13.3001 31.3578 12.7506 30.913V35.1448C12.7529 35.1569 12.7579 35.1795 12.7679 35.2116C12.795 35.2981 12.8617 35.4628 13.0233 35.6842C13.347 36.1276 14.0714 36.8246 15.6743 37.5566C18.8993 39.0293 25.5214 40.5719 39.0004 40.5719C52.4795 40.5719 59.1016 39.0293 62.3266 37.5566C63.9294 36.8246 64.6539 36.1276 64.9775 35.6842C65.1392 35.4628 65.2059 35.2981 65.2329 35.2116C65.2429 35.1795 65.2479 35.1569 65.2502 35.1448V30.913Z" fill="#5A5A5A"/>
</svg>
