<svg width="78" height="78" viewBox="0 0 78 78" fill="none" xmlns="http://www.w3.org/2000/svg">
<path d="M20.5234 19.7422C20.5234 19.7422 20.5234 23.9181 38.9987 23.9181C57.4741 23.9181 57.4741 19.7422 57.4741 19.7422L53.1716 66.172C53.1716 66.172 53.1716 71.6249 38.9987 71.6249C24.8259 71.6249 24.8259 66.172 24.8259 66.172L20.5234 19.7422Z" fill="url(#paint0_radial_36_2679)"/>
<path d="M20.5234 19.7422C20.5234 19.7422 20.5234 23.9181 38.9987 23.9181C57.4741 23.9181 57.4741 19.7422 57.4741 19.7422L53.1716 66.172C53.1716 66.172 53.1716 71.6249 38.9987 71.6249C24.8259 71.6249 24.8259 66.172 24.8259 66.172L20.5234 19.7422Z" fill="#F4F4F4" fill-opacity="0.2"/>
<path fill-rule="evenodd" clip-rule="evenodd" d="M20.5234 19.7422C20.5234 19.7422 20.5234 19.7574 20.5275 19.7859L24.8259 66.172C24.8259 66.172 24.8259 71.6249 38.9987 71.6249C53.1716 71.6249 53.1716 66.172 53.1716 66.172L57.47 19.7859C57.4741 19.7574 57.4741 19.7422 57.4741 19.7422L57.47 19.7859C57.4532 19.904 57.3671 20.2507 56.9247 20.6962C55.7009 21.9288 51.7504 23.9181 38.9987 23.9181C26.2471 23.9181 22.2966 21.9288 21.0728 20.6962C20.6304 20.2507 20.5443 19.904 20.5275 19.7859L20.5234 19.7422ZM21.1346 21.363L25.2849 66.1508V66.1677C25.2849 66.1679 25.2849 66.1682 25.2849 66.1685C25.285 66.1722 25.2855 66.1807 25.2866 66.1937C25.2889 66.2196 25.2939 66.2634 25.3048 66.3226C25.3268 66.4407 25.3726 66.6203 25.4685 66.8416C25.6589 67.2812 26.0531 67.9005 26.8774 68.5347C28.5339 69.8094 31.9583 71.1659 38.9987 71.1659C46.0392 71.1659 49.4636 69.8094 51.1201 68.5347C51.9444 67.9005 52.3386 67.2812 52.529 66.8416C52.6249 66.6203 52.6707 66.4407 52.6927 66.3226C52.7036 66.2634 52.7086 66.2196 52.7109 66.1937C52.712 66.1807 52.7124 66.1722 52.7126 66.1685C52.7126 66.1682 52.7126 66.1679 52.7126 66.1677V66.1508L56.8629 21.363C56.4962 21.652 56.0066 21.9532 55.3537 22.2484C52.9543 23.333 48.2566 24.3771 38.9987 24.3771C29.7408 24.3771 25.0432 23.333 22.6438 22.2484C21.9909 21.9532 21.5013 21.652 21.1346 21.363Z" fill="#5A5A5A" fill-opacity="0.5"/>
<path fill-rule="evenodd" clip-rule="evenodd" d="M59.5 19.3472C59.5 19.3472 59.5 18.8707 59.041 18.1864C57.8716 16.4426 53.7222 13.349 39 13.349C24.2778 13.349 20.1284 16.4426 18.959 18.1864C18.5 18.8707 18.5 19.3472 18.5 19.3472V14.2095C18.5 14.2095 18.5 8.21136 39 8.21136C59.5 8.21136 59.5 14.2095 59.5 14.2095V19.3472ZM59.041 17.4378C58.6266 16.9664 58.029 16.4551 57.1693 15.952C54.5023 14.3913 49.2797 12.8901 39 12.8901C28.7203 12.8901 23.4977 14.3913 20.8307 15.952C19.971 16.4551 19.3734 16.9664 18.959 17.4378V14.2164C18.9592 14.2129 18.9597 14.2054 18.961 14.1941C18.9639 14.1684 18.9707 14.123 18.9859 14.0606C19.0163 13.9362 19.081 13.742 19.2191 13.4995C19.494 13.0169 20.0722 12.3217 21.2943 11.6066C23.7523 10.1682 28.7797 8.67032 39 8.67032C49.2203 8.67032 54.2477 10.1682 56.7057 11.6066C57.9278 12.3217 58.506 13.0169 58.7809 13.4995C58.919 13.742 58.9837 13.9362 59.0141 14.0606C59.0293 14.123 59.0361 14.1684 59.039 14.1941C59.0397 14.2002 59.0402 14.2051 59.0405 14.209C59.0408 14.2123 59.0409 14.2147 59.041 14.2163V17.4378Z" fill="#5A5A5A"/>
<path d="M38.9987 11.3277C20.5234 11.3277 20.5234 16.5235 20.5234 16.5235V20.1111C20.5234 20.1111 20.5234 24.5552 38.9987 24.5552C57.4741 24.5552 57.4741 19.8306 57.4741 19.8306V16.5235C57.4741 16.5235 57.4741 11.3277 38.9987 11.3277Z" fill="url(#paint1_radial_36_2679)"/>
<path fill-rule="evenodd" clip-rule="evenodd" d="M20.5234 16.5235C20.5234 16.5235 20.5234 11.3277 38.9987 11.3277C57.4741 11.3277 57.4741 16.5235 57.4741 16.5235V19.8306C57.4741 19.8306 57.4741 24.5552 38.9987 24.5552C20.5234 24.5552 20.5234 20.1111 20.5234 20.1111V16.5235ZM20.9824 20.0967V16.5322C20.9826 16.5296 20.983 16.5252 20.9837 16.5192C20.986 16.5001 20.9915 16.464 21.0044 16.4132C21.03 16.3121 21.0858 16.1501 21.2069 15.9456C21.4481 15.5388 21.9613 14.9424 23.0578 14.3256C25.2648 13.0843 29.7891 11.7866 38.9987 11.7866C48.2084 11.7866 52.7327 13.0843 54.9396 14.3256C56.0362 14.9424 56.5494 15.5388 56.7905 15.9456C56.9117 16.1501 56.9675 16.3121 56.9931 16.4132C57.006 16.464 57.0115 16.5001 57.0138 16.5192C57.0145 16.5252 57.0149 16.5296 57.0151 16.5322V19.8188C57.0149 19.8203 57.0147 19.8221 57.0144 19.8243C57.0126 19.8381 57.0079 19.8674 56.9959 19.9101C56.9722 19.9949 56.9193 20.1365 56.8009 20.3182C56.5648 20.6804 56.0551 21.222 54.9557 21.7843C52.7434 22.9157 48.2122 24.0962 38.9987 24.0962C29.7832 24.0962 25.2476 22.9855 23.0318 21.9195C21.9301 21.3895 21.4223 20.8803 21.1894 20.5441C21.0727 20.3757 21.0217 20.2463 20.9995 20.1714C20.9883 20.1336 20.984 20.1085 20.9826 20.098C20.9825 20.0975 20.9824 20.0971 20.9824 20.0967Z" fill="#5A5A5A"/>
<path d="M18.5 13.6167C18.5 13.6167 18.5 19.6148 39 19.6148C59.5 19.6148 59.5 13.6167 59.5 13.6167V18.7544C59.5 18.7544 59.5 24.7525 39 24.7525C18.5 24.7525 18.5 18.7544 18.5 18.7544V13.6167Z" fill="#F4F4F4" fill-opacity="0.5"/>
<path fill-rule="evenodd" clip-rule="evenodd" d="M59.5 13.6167C59.5 13.6167 59.5 14.0932 59.041 14.7775C57.8716 16.5213 53.7222 19.6148 39 19.6148C24.2778 19.6148 20.1284 16.5213 18.959 14.7775C18.5 14.0932 18.5 13.6167 18.5 13.6167V18.7544C18.5 18.7544 18.5 24.7525 39 24.7525C59.5 24.7525 59.5 18.7544 59.5 18.7544V13.6167ZM59.041 15.526C58.6266 15.9975 58.029 16.5088 57.1693 17.0119C54.5023 18.5726 49.2797 20.0738 39 20.0738C28.7203 20.0738 23.4977 18.5726 20.8307 17.0119C19.971 16.5088 19.3734 15.9975 18.959 15.526V18.7475C18.9592 18.751 18.9597 18.7585 18.961 18.7698C18.9639 18.7954 18.9707 18.8408 18.9859 18.9032C19.0163 19.0276 19.081 19.2219 19.2191 19.4644C19.494 19.947 20.0722 20.6422 21.2943 21.3573C23.7523 22.7957 28.7797 24.2935 39 24.2935C49.2203 24.2935 54.2477 22.7957 56.7057 21.3573C57.9278 20.6422 58.506 19.947 58.7809 19.4644C58.919 19.2219 58.9837 19.0276 59.0141 18.9032C59.0293 18.8408 59.0361 18.7954 59.039 18.7698C59.0397 18.7637 59.0402 18.7587 59.0405 18.7549C59.0408 18.7516 59.0409 18.7491 59.041 18.7475V15.526Z" fill="#5A5A5A" fill-opacity="0.5"/>
<path opacity="0.5" d="M59.5 14.2209C59.5 17.855 50.3218 20.8011 39 20.8011C27.6782 20.8011 18.5 17.855 18.5 14.2209C18.5 10.5867 27.6782 7.64062 39 7.64062C50.3218 7.64062 59.5 10.5867 59.5 14.2209Z" fill="#F4F4F4"/>
<path opacity="0.5" d="M54.9436 9.9187C54.9436 11.8756 47.805 13.4619 38.9991 13.4619C30.1933 13.4619 23.0547 11.8756 23.0547 9.9187C23.0547 7.96184 30.1933 6.37549 38.9991 6.37549C47.805 6.37549 54.9436 7.96184 54.9436 9.9187Z" fill="#F4F4F4"/>
<path opacity="0.5" fill-rule="evenodd" clip-rule="evenodd" d="M54.282 10.3219C54.4434 10.1467 54.4846 10.0137 54.4846 9.9187C54.4846 9.82372 54.4434 9.69072 54.282 9.51551C54.1184 9.33783 53.855 9.14437 53.4771 8.94581C52.7222 8.54919 51.5997 8.17812 50.174 7.8613C47.33 7.2293 43.3789 6.83444 38.9991 6.83444C34.6194 6.83444 30.6682 7.2293 27.8243 7.8613C26.3986 8.17812 25.276 8.54919 24.5211 8.94581C24.1432 9.14437 23.8799 9.33783 23.7162 9.51551C23.5549 9.69072 23.5136 9.82372 23.5136 9.9187C23.5136 10.0137 23.5549 10.1467 23.7162 10.3219C23.8799 10.4996 24.1432 10.693 24.5211 10.8916C25.276 11.2882 26.3986 11.6593 27.8243 11.9761C30.6682 12.6081 34.6194 13.003 38.9991 13.003C43.3789 13.003 47.33 12.6081 50.174 11.9761C51.5997 11.6593 52.7222 11.2882 53.4771 10.8916C53.855 10.693 54.1184 10.4996 54.282 10.3219ZM38.9991 13.4619C47.805 13.4619 54.9436 11.8756 54.9436 9.9187C54.9436 7.96184 47.805 6.37549 38.9991 6.37549C30.1933 6.37549 23.0547 7.96184 23.0547 9.9187C23.0547 11.8756 30.1933 13.4619 38.9991 13.4619Z" fill="#5A5A5A"/>
<path opacity="0.5" d="M23.0547 9.3833C23.0547 9.3833 23.0547 13.0239 38.9991 13.0239C54.9436 13.0239 54.9436 9.3833 54.9436 9.3833V13.3353C54.9436 13.3353 54.9436 16.9759 38.9991 16.9759C23.0547 16.9759 23.0547 13.3353 23.0547 13.3353V9.3833Z" fill="#F4F4F4"/>
<path opacity="0.5" fill-rule="evenodd" clip-rule="evenodd" d="M54.9436 9.3833C54.9436 9.3833 54.9436 9.72523 54.4846 10.1995C53.446 11.2728 50.0571 13.0239 38.9991 13.0239C27.9412 13.0239 24.5522 11.2728 23.5136 10.1995C23.0547 9.72523 23.0547 9.3833 23.0547 9.3833V13.3353C23.0547 13.3353 23.0547 16.9759 38.9991 16.9759C54.9436 16.9759 54.9436 13.3353 54.9436 13.3353V9.3833ZM54.4846 10.8189C54.1605 11.0813 53.7252 11.3544 53.1412 11.6211C51.0575 12.5726 46.9919 13.4828 38.9991 13.4828C31.0064 13.4828 26.9407 12.5726 24.8571 11.6211C24.2731 11.3544 23.8378 11.0813 23.5136 10.8189V13.3153C23.515 13.3225 23.5179 13.3358 23.5239 13.3547C23.5398 13.4058 23.5792 13.5029 23.6745 13.6336C23.8655 13.8952 24.2928 14.3063 25.2384 14.7381C27.1409 15.6069 31.0475 16.5169 38.9991 16.5169C46.9508 16.5169 50.8574 15.6069 52.7599 14.7381C53.7054 14.3063 54.1328 13.8952 54.3237 13.6336C54.4191 13.5029 54.4585 13.4058 54.4744 13.3547C54.4803 13.3358 54.4833 13.3225 54.4846 13.3153V10.8189Z" fill="#5A5A5A"/>
<defs>
<radialGradient id="paint0_radial_36_2679" cx="0" cy="0" r="1" gradientUnits="userSpaceOnUse" gradientTransform="translate(38.9987 45.6835) rotate(-180) scale(18.4753 25.9414)">
<stop stop-color="#8E5A44"/>
<stop offset="1" stop-color="#775A4E"/>
</radialGradient>
<radialGradient id="paint1_radial_36_2679" cx="0" cy="0" r="1" gradientUnits="userSpaceOnUse" gradientTransform="translate(38.9987 17.9414) rotate(180) scale(18.4753 6.61375)">
<stop stop-color="#8E5A44"/>
<stop offset="1" stop-color="#775A4E"/>
</radialGradient>
</defs>
</svg>
