<svg width="78" height="78" viewBox="0 0 78 78" fill="none" xmlns="http://www.w3.org/2000/svg">
<path d="M68 42.5294C68 48.8784 55.0163 51 39 51C22.9837 51 10 48.8784 10 42.5294C10 36.1805 22.9837 27 39 27C55.0163 27 68 36.1805 68 42.5294Z" fill="#C29B8A"/>
<path d="M23.1632 40.1221C23.2815 41.1993 21.9374 41.6336 20.2539 41.9363C18.5704 42.2391 17.1848 42.2957 17.0665 41.2185C16.9482 40.1414 18.142 38.3384 19.8255 38.0356C21.509 37.7329 23.0449 39.045 23.1632 40.1221Z" fill="#5B473F"/>
<path d="M26.5069 35.6051C26.4538 36.3819 25.4603 36.4079 24.2463 36.272C23.0324 36.1361 22.0575 35.8897 22.1106 35.113C22.1637 34.3362 23.2247 33.3233 24.4387 33.4592C25.6526 33.5951 26.56 34.8284 26.5069 35.6051Z" fill="#5B473F"/>
<path d="M30.353 42.2217C30.3955 42.9995 29.4175 43.224 28.2018 43.3328C26.9862 43.4416 25.9932 43.3934 25.9507 42.6156C25.9082 41.8378 26.8322 40.6249 28.0479 40.5161C29.2636 40.4074 30.3105 41.4439 30.353 42.2217Z" fill="#5B473F"/>
<path d="M34.777 32.1396C34.8618 32.9117 33.8984 33.223 32.6916 33.4401C31.4848 33.6571 30.4917 33.6976 30.4069 32.9255C30.3221 32.1534 31.1777 30.861 32.3845 30.644C33.5913 30.427 34.6922 31.3675 34.777 32.1396Z" fill="#5B473F"/>
<path d="M35.9963 38.716C35.9282 39.713 34.6464 39.7457 33.08 39.5703C31.5136 39.395 30.2558 39.078 30.3239 38.081C30.3921 37.084 31.7605 35.7845 33.3269 35.9599C34.8933 36.1352 36.0645 37.719 35.9963 38.716Z" fill="#5B473F"/>
<path d="M42.027 43.4337C42.1118 44.2058 41.1484 44.5171 39.9416 44.7342C38.7348 44.9512 37.7417 44.9917 37.6569 44.2196C37.5721 43.4475 38.4277 42.1551 39.6345 41.9381C40.8413 41.7211 41.9422 42.6616 42.027 43.4337Z" fill="#5B473F"/>
<path d="M41.8439 33.2562C41.8696 34.1977 40.8868 34.4069 39.6689 34.4614C38.451 34.5158 37.4592 34.3948 37.4335 33.4532C37.4078 32.5117 38.358 31.1061 39.5758 31.0517C40.7937 30.9972 41.8182 32.3146 41.8439 33.2562Z" fill="#5B473F"/>
<path d="M42.908 37.9769C42.8655 38.7547 41.8726 38.8029 40.6569 38.6942C39.4412 38.5854 38.4632 38.3608 38.5057 37.583C38.5482 36.8052 39.5952 35.7687 40.8108 35.8775C42.0265 35.9863 42.9505 37.1991 42.908 37.9769Z" fill="#5B473F"/>
<path d="M48.8971 32.9349C48.8546 33.7127 47.8617 33.7609 46.646 33.6521C45.4304 33.5434 44.4523 33.3188 44.4948 32.541C44.5373 31.7632 45.5843 30.7267 46.8 30.8355C48.0156 30.9443 48.9396 32.1571 48.8971 32.9349Z" fill="#5B473F"/>
<path d="M52.2464 37.9072C52.2718 38.8382 51.0537 39.0561 49.5456 39.1235C48.0374 39.1908 46.8104 39.0822 46.785 38.1512C46.7596 37.2202 47.9454 35.8193 49.4535 35.7519C50.9617 35.6845 52.221 36.9761 52.2464 37.9072Z" fill="#5B473F"/>
<path d="M50.065 42.4253C50.1498 43.1974 49.1864 43.5087 47.9796 43.7258C46.7729 43.9428 45.7797 43.9833 45.6949 43.2112C45.6101 42.4391 46.4658 41.1467 47.6726 40.9297C48.8793 40.7127 49.9802 41.6532 50.065 42.4253Z" fill="#5B473F"/>
<path d="M58.4183 35.9715C58.5031 36.7436 57.5397 37.055 56.3329 37.272C55.1261 37.489 54.133 37.5296 54.0482 36.7575C53.9634 35.9853 54.819 34.693 56.0258 34.4759C57.2326 34.2589 58.3335 35.1994 58.4183 35.9715Z" fill="#5B473F"/>
<path d="M58.6147 42.8423C58.5542 43.9489 57.4899 44.0487 56.19 43.9324C54.8901 43.8161 53.8469 43.5277 53.9074 42.4211C53.9679 41.3144 55.1091 39.8084 56.409 39.9248C57.7089 40.0411 58.6752 41.7356 58.6147 42.8423Z" fill="#5B473F"/>
<path d="M63.7566 39.9008C63.7779 40.68 62.7943 40.8607 61.5765 40.9152C60.3586 40.9696 59.3676 40.8771 59.3463 40.0979C59.325 39.3186 60.2816 38.1478 61.4995 38.0934C62.7173 38.0389 63.7354 39.1216 63.7566 39.9008Z" fill="#5B473F"/>
</svg>
