<svg width="78" height="78" viewBox="0 0 78 78" fill="none" xmlns="http://www.w3.org/2000/svg">
<path d="M34.5725 6.2333C34.5885 5.99367 34.9126 5.93184 35.0157 6.14874L36.6656 9.6191C36.7639 9.82585 37.0702 9.78193 37.1064 9.55589L37.5366 6.87092C37.5738 6.63906 37.8917 6.60134 37.9821 6.81808L39.4575 10.3564C39.5486 10.5749 39.8695 10.5343 39.9034 10.3001L40.511 6.10429C40.5391 5.91035 40.7794 5.83546 40.9127 5.97913L43.122 8.36032C43.157 8.3981 43.1786 8.44644 43.1832 8.49777L44.8297 26.5849C44.8421 26.7215 44.7346 26.8392 44.5975 26.8392H33.4441C33.3092 26.8392 33.2025 26.7251 33.2115 26.5905L34.5725 6.2333Z" fill="#C8C8C8"/>
<path d="M25.5 26.9795C25.5 26.9795 25.5 30.1038 39 30.1038C52.5 30.1038 52.5 26.9795 52.5 26.9795V68.9717C52.5 68.9717 52.5 72.0961 39 72.0961C25.5 72.0961 25.5 68.9717 25.5 68.9717V26.9795Z" fill="#AED8F0"/>
<path d="M52.5002 27.3988C52.5002 29.1243 46.4665 30.5231 39.0236 30.5231C31.5806 30.5231 25.5469 29.1243 25.5469 27.3988C25.5469 25.6732 31.5806 24.2744 39.0236 24.2744C46.4665 24.2744 52.5002 25.6732 52.5002 27.3988Z" fill="#A4CBE1"/>
<path d="M33.007 19.9385C33.007 19.9385 33.007 21.5739 39.0225 21.5739C45.038 21.5739 45.038 19.9385 45.038 19.9385L46.3232 21.3518C47.3253 22.4537 48.145 23.7087 48.7512 25.0692L49.7013 27.201C49.7013 27.201 49.7013 28.8918 39.0225 28.8918C28.3438 28.8918 28.3438 27.201 28.3438 27.201L29.2938 25.0692C29.9001 23.7087 30.7197 22.4537 31.7218 21.3518L33.007 19.9385Z" fill="#F3F3F3"/>
</svg>
