<svg width="78" height="78" viewBox="0 0 78 78" fill="none" xmlns="http://www.w3.org/2000/svg">
<path fill-rule="evenodd" clip-rule="evenodd" d="M39.8117 15.75C40.1918 15.75 40.4999 16.1023 40.4999 16.5369C40.4999 19.2141 40.4677 22.1334 40.4362 24.999C40.3749 30.5582 40.3159 35.9149 40.4983 38.9084C40.5247 39.3419 40.2388 39.7179 39.8596 39.7481C39.4804 39.7783 39.1516 39.4513 39.1252 39.0178C38.9389 35.9608 38.9991 30.4755 39.0607 24.8649C39.0919 22.0211 39.1235 19.1451 39.1235 16.5369C39.1235 16.1023 39.4316 15.75 39.8117 15.75Z" fill="#A4BECF"/>
<path fill-rule="evenodd" clip-rule="evenodd" d="M39.1121 38.6198C39.332 38.2559 39.8024 38.1411 40.1626 38.3632C43.0598 40.1492 48.3524 42.9117 53.5777 45.6392C55.6434 46.7174 57.6986 47.7901 59.5912 48.7949C59.9648 48.9932 60.1085 49.4599 59.9121 49.8372C59.7156 50.2145 59.2535 50.3595 58.8799 50.1612C57.0228 49.1753 54.9926 48.1156 52.9422 47.0454C47.6936 44.3058 42.313 41.4973 39.3662 39.6807C39.0059 39.4586 38.8921 38.9836 39.1121 38.6198Z" fill="#A4BECF"/>
<path fill-rule="evenodd" clip-rule="evenodd" d="M40.4604 38.7648C40.5945 39.1591 40.377 39.5852 39.9745 39.7167C37.1184 40.6491 33.6958 42.2362 30.1758 43.8684C29.8409 44.0237 29.5051 44.1794 29.1688 44.335C25.335 46.1089 21.4345 47.8697 18.2195 48.7236C17.81 48.8323 17.388 48.5953 17.277 48.1942C17.1659 47.7931 17.4079 47.3797 17.8174 47.271C20.8766 46.4585 24.6498 44.7613 28.5125 42.9741C28.853 42.8165 29.1942 42.6583 29.5356 42.5C33.0295 40.8795 36.5388 39.2519 39.4886 38.2888C39.8911 38.1574 40.3262 38.3705 40.4604 38.7648Z" fill="#A4BECF"/>
<path d="M41.2567 16.7591C45.4314 18.5038 58.3226 23.9664 60.75 25.8947C60.75 34.8611 60.5322 43.8823 60.4308 47.5978C60.4004 48.71 59.8376 49.7247 58.9089 50.3293C55.2407 52.7173 45.5792 58.8998 39.9509 61.5C34.1614 58.9505 23.0593 51.9255 19.0603 49.3552C18.1285 48.7562 17.5536 47.7376 17.5163 46.6259C17.3546 41.8045 16.9766 28.6689 17.579 26.6392C22.344 23.8872 34.6296 18.5153 38.6536 16.775C39.4887 16.4138 40.4173 16.4083 41.2567 16.7591Z" fill="#DAF6FF" fill-opacity="0.7"/>
<path fill-rule="evenodd" clip-rule="evenodd" d="M38.3474 16.0875C39.3743 15.6442 40.5198 15.6375 41.5518 16.068C43.6389 16.9387 47.9079 18.7384 51.9608 20.5621C53.9866 21.4737 55.9647 22.3941 57.5917 23.2091C59.1935 24.0116 60.5256 24.746 61.2049 25.2846L61.5 25.5186V25.8962C61.5 34.8466 61.2823 43.8493 61.1809 47.5563C61.1436 48.92 60.4505 50.1693 59.3067 50.9126C55.6561 53.2849 45.9564 59.4834 40.2738 62.1041L39.9574 62.25L39.6385 62.1098C33.7879 59.5379 22.6416 52.4944 18.6664 49.9438C17.5194 49.2079 16.8122 47.956 16.7664 46.5922C16.6856 44.1867 16.5506 39.7033 16.5112 35.5659C16.4914 33.498 16.4955 31.5093 16.5426 29.9069C16.5662 29.1062 16.6007 28.3943 16.6493 27.8134C16.6962 27.2516 16.7605 26.7535 16.861 26.4156L16.9496 26.1175L17.2183 25.9626C22.0261 23.1908 34.348 17.8142 38.3474 16.0875ZM40.9561 17.5075C40.3113 17.2385 39.6019 17.2427 38.9607 17.5196C35.218 19.1354 24.4514 23.8349 19.1435 26.6767C19.4898 26.89 19.9079 27.1465 20.3866 27.4382C21.8601 28.3362 23.9069 29.5674 26.1998 30.9002C30.668 33.4972 36.03 36.4558 39.9092 38.0991C40.6483 37.7044 41.3697 37.3229 42.0791 36.9477C47.6632 33.9944 52.5056 31.4334 59.4091 25.9525C58.7859 25.5789 57.9306 25.121 56.8986 24.6039C55.2992 23.8027 53.3432 22.8923 51.3258 21.9846C47.2923 20.1696 43.0387 18.3763 40.9561 17.5075ZM59.9452 27.5124C53.1486 32.8562 48.2826 35.4293 42.7994 38.3287C42.1302 38.6826 41.4519 39.0413 40.7597 39.4105C41.2436 46.4058 41.241 51.869 41.1137 55.6117C41.0486 57.528 40.9508 58.9934 40.8689 59.9825C40.8658 60.0204 40.8627 60.0576 40.8596 60.0941C46.5114 57.2769 55.0455 51.8249 58.4631 49.604C59.1743 49.1418 59.6056 48.3677 59.629 47.5135C59.7241 44.035 59.9217 35.8909 59.9452 27.5124ZM39.2888 60.2364C39.2994 60.1184 39.3104 59.9907 39.3218 59.8534C39.4016 58.8888 39.4979 57.4488 39.5621 55.5586C39.6878 51.8624 39.6909 46.4449 39.2093 39.4943C35.2361 37.7998 29.8506 34.8233 25.422 32.2492C23.1175 30.9097 21.0612 29.6728 19.5811 28.7708C19.0369 28.4392 18.5705 28.1527 18.1981 27.923C18.1975 27.9299 18.1969 27.9369 18.1963 27.9438C18.151 28.4853 18.1176 29.1661 18.0944 29.9529C18.0482 31.5255 18.0439 33.4908 18.0636 35.5509C18.1029 39.6695 18.2374 44.138 18.3181 46.5396C18.3467 47.3925 18.7879 48.1719 19.5024 48.6303C23.2983 51.0658 33.3735 57.429 39.2888 60.2364Z" fill="#A4BECF"/>
<path fill-rule="evenodd" clip-rule="evenodd" d="M23.0417 33.2619C23.3527 33.5764 23.3107 34.0499 22.9478 34.3194L20.9286 35.8194C20.5657 36.089 20.0194 36.0526 19.7083 35.7381C19.3973 35.4236 19.4393 34.9501 19.8022 34.6806L21.8214 33.1806C22.1843 32.911 22.7306 32.9474 23.0417 33.2619Z" fill="#C2E1F5"/>
<path fill-rule="evenodd" clip-rule="evenodd" d="M45.5417 50.5119C45.8527 50.8264 45.8107 51.2999 45.4478 51.5694L43.4286 53.0694C43.0657 53.339 42.5194 53.3026 42.2083 52.9881C41.8973 52.6736 41.9393 52.2001 42.3022 51.9306L44.3214 50.4306C44.6843 50.161 45.2306 50.1974 45.5417 50.5119Z" fill="#C2E1F5"/>
<path fill-rule="evenodd" clip-rule="evenodd" d="M52.4923 35.9595C52.8789 35.7743 53.3425 35.9375 53.5278 36.3241L54.5586 38.4755C54.7438 38.8621 54.5806 39.3257 54.194 39.511C53.8073 39.6962 53.3437 39.533 53.1585 39.1463L52.1277 36.995C51.9424 36.6084 52.1057 36.1448 52.4923 35.9595Z" fill="#C2E1F5"/>
<path fill-rule="evenodd" clip-rule="evenodd" d="M36.8045 24.7643C36.5623 25.118 36.0792 25.2085 35.7255 24.9663L33.7571 23.6185C33.4034 23.3763 33.3129 22.8932 33.5551 22.5395C33.7973 22.1857 34.2804 22.0953 34.6342 22.3375L36.6026 23.6852C36.9563 23.9274 37.0467 24.4106 36.8045 24.7643Z" fill="#C2E1F5"/>
<path fill-rule="evenodd" clip-rule="evenodd" d="M25.3369 34.7687C25.5936 35.0774 25.5416 35.528 25.2207 35.7749L22.2089 38.0931C21.888 38.3401 21.4198 38.29 21.1631 37.9813C20.9064 37.6726 20.9584 37.222 21.2793 36.9751L24.2911 34.6569C24.612 34.4099 25.0802 34.46 25.3369 34.7687Z" fill="#C2E1F5"/>
<path fill-rule="evenodd" clip-rule="evenodd" d="M47.8097 52.0724C48.1092 52.4429 48.0485 52.9835 47.6742 53.2799L44.1604 56.0617C43.7861 56.3581 43.2398 56.298 42.9403 55.9276C42.6408 55.5571 42.7015 55.0165 43.0758 54.7201L46.5896 51.9383C46.9639 51.6419 47.5102 51.702 47.8097 52.0724Z" fill="#C2E1F5"/>
<path fill-rule="evenodd" clip-rule="evenodd" d="M54.6126 34.1954C55.0053 34.0234 55.4631 34.2022 55.6351 34.5949L57.2498 38.2804C57.4219 38.673 57.243 39.1308 56.8503 39.3029C56.4577 39.4749 55.9999 39.2961 55.8278 38.9034L54.2131 35.2179C54.0411 34.8252 54.2199 34.3675 54.6126 34.1954Z" fill="#C2E1F5"/>
<path fill-rule="evenodd" clip-rule="evenodd" d="M35.8505 27.3519C35.5965 27.6972 35.1106 27.7712 34.7652 27.5172L31.5241 25.1328C31.1788 24.8788 31.1048 24.3929 31.3588 24.0476C31.6129 23.7022 32.0988 23.6282 32.4441 23.8823L35.6852 26.2666C36.0305 26.5207 36.1046 27.0066 35.8505 27.3519Z" fill="#C2E1F5"/>
</svg>
