<svg width="78" height="78" viewBox="0 0 78 78" fill="none" xmlns="http://www.w3.org/2000/svg">
<path d="M19.0296 62.5604C17.7238 44.8105 17.6333 34.4094 18.9117 16.2324C19.3377 16.6822 19.9641 17.1708 20.8837 17.6489C23.5719 19.0467 28.8312 20.3896 39.1833 20.3896C49.5355 20.3896 54.7948 19.0467 57.483 17.6489C58.367 17.1893 58.9802 16.7199 59.4046 16.2848C60.1311 34.4026 60.2882 44.926 59.3343 62.6004L59.3336 62.6139V62.6155C59.3334 62.6175 59.3331 62.6204 59.3326 62.624C59.3304 62.6411 59.3248 62.6757 59.3111 62.7256C59.2839 62.8247 59.2236 62.9879 59.09 63.1963C58.8237 63.6117 58.2515 64.2286 57.0216 64.868C54.5473 66.1546 49.4814 67.496 39.1833 67.496H39.1648L39.1462 67.4974C29.3955 68.2231 24.3468 66.8785 21.7556 65.4226C20.4648 64.6975 19.7813 63.9436 19.4224 63.3969C19.2421 63.1223 19.1412 62.8961 19.0864 62.7463C19.059 62.6712 19.0431 62.6151 19.0346 62.5814C19.0325 62.573 19.0308 62.5659 19.0296 62.5604Z" fill="#F1F1F1" stroke="#C6C6C6"/>
<path d="M39.1549 20.1933L39.1414 20.1941L39.128 20.1956C33.7453 20.7995 28.7959 20.5271 25.1379 19.5872C23.3074 19.1168 21.8263 18.4858 20.7776 17.7349C19.7299 16.9847 19.1532 16.1455 19.0287 15.2547L19.0238 15.2198L19.0141 15.186C18.8316 14.5501 19.0516 13.9068 19.8435 13.2488C20.649 12.5796 21.9797 11.9652 23.7937 11.4724C27.4092 10.4904 32.7681 10.0385 39.1512 10.4542L39.1739 10.4557L39.1966 10.4551C45.1465 10.301 50.3885 10.8288 54.0616 11.7878C55.9033 12.2687 57.3144 12.8488 58.2217 13.4801C59.093 14.0863 59.3939 14.656 59.35 15.165C59.2355 15.3524 59.0325 15.57 58.7156 15.8093C58.3628 16.0758 57.8951 16.3496 57.3172 16.6244C56.1613 17.174 54.6089 17.7066 52.7593 18.1888C49.0628 19.1525 44.2372 19.9002 39.1549 20.1933Z" fill="#E9E9E9" stroke="#C6C6C6"/>
<path d="M47.5539 66.6218C52.1024 65.1 57.5796 32.0709 59.7496 15.7466V62.162C59.7496 65.9454 41.8682 68.5241 47.5539 66.6218Z" fill="#E9E9E9" stroke="#C6C6C6" stroke-linecap="round"/>
</svg>
