<svg width="78" height="78" viewBox="0 0 78 78" fill="none" xmlns="http://www.w3.org/2000/svg">
<path d="M20.5254 19.7422C20.5254 19.7422 20.5254 23.9181 39.0007 23.9181C57.476 23.9181 57.476 19.7422 57.476 19.7422L53.1735 66.172C53.1735 66.172 53.1735 71.6249 39.0007 71.6249C24.8279 71.6249 24.8279 66.172 24.8279 66.172L20.5254 19.7422Z" fill="url(#paint0_radial_36_2694)"/>
<path d="M20.5254 19.7422C20.5254 19.7422 20.5254 23.9181 39.0007 23.9181C57.476 23.9181 57.476 19.7422 57.476 19.7422L53.1735 66.172C53.1735 66.172 53.1735 71.6249 39.0007 71.6249C24.8279 71.6249 24.8279 66.172 24.8279 66.172L20.5254 19.7422Z" fill="#F4F4F4" fill-opacity="0.2"/>
<path fill-rule="evenodd" clip-rule="evenodd" d="M20.5254 19.7422C20.5254 19.7422 20.5254 19.7574 20.5294 19.7859L24.8279 66.172C24.8279 66.172 24.8279 71.6249 39.0007 71.6249C53.1735 71.6249 53.1735 66.172 53.1735 66.172L57.472 19.7859C57.476 19.7574 57.476 19.7422 57.476 19.7422L57.472 19.7859C57.4552 19.904 57.3691 20.2507 56.9267 20.6962C55.7028 21.9288 51.7524 23.9181 39.0007 23.9181C26.249 23.9181 22.2986 21.9288 21.0747 20.6962C20.6323 20.2507 20.5462 19.904 20.5294 19.7859L20.5254 19.7422ZM21.1365 21.363L25.2868 66.1508V66.1677C25.2868 66.168 25.2868 66.1682 25.2868 66.1685C25.287 66.1722 25.2874 66.1807 25.2886 66.1937C25.2908 66.2196 25.2958 66.2634 25.3068 66.3226C25.3287 66.4407 25.3746 66.6203 25.4704 66.8416C25.6609 67.2812 26.055 67.9005 26.8794 68.5347C28.5358 69.8094 31.9603 71.166 39.0007 71.166C46.0411 71.166 49.4656 69.8094 51.122 68.5347C51.9464 67.9005 52.3405 67.2812 52.5309 66.8416C52.6268 66.6203 52.6727 66.4407 52.6946 66.3226C52.7056 66.2634 52.7106 66.2196 52.7128 66.1937C52.714 66.1807 52.7144 66.1722 52.7146 66.1685C52.7146 66.1682 52.7146 66.1679 52.7146 66.1677V66.1508L56.8649 21.363C56.4981 21.652 56.0086 21.9532 55.3556 22.2484C52.9563 23.333 48.2586 24.3771 39.0007 24.3771C29.7428 24.3771 25.0451 23.333 22.6458 22.2484C21.9928 21.9532 21.5033 21.652 21.1365 21.363Z" fill="#5A5A5A" fill-opacity="0.5"/>
<path fill-rule="evenodd" clip-rule="evenodd" d="M59.5 19.3467C59.5 19.3467 59.5 18.8702 59.041 18.1859C57.8716 16.4421 53.7222 13.3485 39 13.3485C24.2778 13.3485 20.1284 16.4421 18.959 18.1859C18.5 18.8702 18.5 19.3467 18.5 19.3467V14.209C18.5 14.209 18.5 8.21088 39 8.21088C59.5 8.21088 59.5 14.209 59.5 14.209V19.3467ZM59.041 17.4373C58.6266 16.9659 58.029 16.4546 57.1693 15.9515C54.5023 14.3908 49.2797 12.8896 39 12.8896C28.7203 12.8896 23.4977 14.3908 20.8307 15.9515C19.971 16.4546 19.3734 16.9659 18.959 17.4373V14.2159C18.9592 14.2124 18.9597 14.2049 18.961 14.1936C18.9639 14.1679 18.9707 14.1225 18.9859 14.0601C19.0163 13.9358 19.081 13.7415 19.2191 13.499C19.494 13.0164 20.0722 12.3212 21.2943 11.6061C23.7523 10.1677 28.7797 8.66983 39 8.66983C49.2203 8.66983 54.2477 10.1677 56.7057 11.6061C57.9278 12.3212 58.506 13.0164 58.7809 13.499C58.919 13.7415 58.9837 13.9358 59.0141 14.0601C59.0293 14.1225 59.0361 14.1679 59.039 14.1936C59.0397 14.1997 59.0402 14.2046 59.0405 14.2085C59.0408 14.2118 59.0409 14.2143 59.041 14.2159V17.4373Z" fill="#5A5A5A"/>
<path d="M39.0007 11.3277C20.5254 11.3277 20.5254 16.5235 20.5254 16.5235V20.1111C20.5254 20.1111 20.5254 24.5552 39.0007 24.5552C57.476 24.5552 57.476 19.8306 57.476 19.8306V16.5235C57.476 16.5235 57.476 11.3277 39.0007 11.3277Z" fill="url(#paint1_radial_36_2694)"/>
<path fill-rule="evenodd" clip-rule="evenodd" d="M20.5254 16.5235C20.5254 16.5235 20.5254 11.3277 39.0007 11.3277C57.476 11.3277 57.476 16.5235 57.476 16.5235V19.8306C57.476 19.8306 57.476 24.5552 39.0007 24.5552C20.5254 24.5552 20.5254 20.1111 20.5254 20.1111V16.5235ZM20.9843 20.0967V16.5322C20.9846 16.5296 20.9849 16.5252 20.9857 16.5192C20.9879 16.5001 20.9934 16.464 21.0063 16.4132C21.032 16.3121 21.0877 16.1501 21.2089 15.9456C21.45 15.5388 21.9633 14.9424 23.0598 14.3256C25.2668 13.0843 29.791 11.7866 39.0007 11.7866C48.2104 11.7866 52.7346 13.0843 54.9416 14.3256C56.0381 14.9424 56.5514 15.5388 56.7925 15.9456C56.9137 16.1501 56.9694 16.3121 56.9951 16.4132C57.008 16.464 57.0135 16.5001 57.0157 16.5192C57.0164 16.5252 57.0168 16.5296 57.0171 16.5322V19.8188C57.0169 19.8203 57.0167 19.8221 57.0164 19.8243C57.0146 19.8381 57.0098 19.8674 56.9979 19.9101C56.9742 19.9949 56.9212 20.1365 56.8028 20.3182C56.5668 20.6804 56.0571 21.2219 54.9576 21.7843C52.7454 22.9157 48.2141 24.0962 39.0007 24.0962C29.7852 24.0962 25.2495 22.9855 23.0338 21.9195C21.9321 21.3895 21.4243 20.8803 21.1913 20.5441C21.0747 20.3757 21.0237 20.2463 21.0014 20.1714C20.9902 20.1336 20.986 20.1085 20.9845 20.098C20.9845 20.0975 20.9844 20.0971 20.9843 20.0967Z" fill="#5A5A5A"/>
<path d="M18.5 13.6167C18.5 13.6167 18.5 19.6148 39 19.6148C59.5 19.6148 59.5 13.6167 59.5 13.6167V18.7544C59.5 18.7544 59.5 24.7525 39 24.7525C18.5 24.7525 18.5 18.7544 18.5 18.7544V13.6167Z" fill="#F4F4F4" fill-opacity="0.5"/>
<path fill-rule="evenodd" clip-rule="evenodd" d="M59.5 13.6167C59.5 13.6167 59.5 14.0932 59.041 14.7775C57.8716 16.5213 53.7222 19.6148 39 19.6148C24.2778 19.6148 20.1284 16.5213 18.959 14.7775C18.5 14.0932 18.5 13.6167 18.5 13.6167V18.7544C18.5 18.7544 18.5 24.7525 39 24.7525C59.5 24.7525 59.5 18.7544 59.5 18.7544V13.6167ZM59.041 15.526C58.6266 15.9975 58.029 16.5088 57.1693 17.0119C54.5023 18.5726 49.2797 20.0738 39 20.0738C28.7203 20.0738 23.4977 18.5726 20.8307 17.0119C19.971 16.5088 19.3734 15.9975 18.959 15.526V18.7475C18.9592 18.751 18.9597 18.7585 18.961 18.7698C18.9639 18.7954 18.9707 18.8408 18.9859 18.9032C19.0163 19.0276 19.081 19.2219 19.2191 19.4644C19.494 19.947 20.0722 20.6422 21.2943 21.3573C23.7523 22.7957 28.7797 24.2935 39 24.2935C49.2203 24.2935 54.2477 22.7957 56.7057 21.3573C57.9278 20.6422 58.506 19.947 58.7809 19.4644C58.919 19.2219 58.9837 19.0276 59.0141 18.9032C59.0293 18.8408 59.0361 18.7954 59.039 18.7698C59.0397 18.7637 59.0402 18.7587 59.0405 18.7549C59.0408 18.7516 59.0409 18.7491 59.041 18.7475V15.526Z" fill="#5A5A5A" fill-opacity="0.5"/>
<path opacity="0.5" d="M59.5 14.2214C59.5 17.8555 50.3218 20.8016 39 20.8016C27.6782 20.8016 18.5 17.8555 18.5 14.2214C18.5 10.5872 27.6782 7.64111 39 7.64111C50.3218 7.64111 59.5 10.5872 59.5 14.2214Z" fill="#F4F4F4"/>
<path opacity="0.5" d="M54.9455 9.9187C54.9455 11.8756 47.807 13.4619 39.0011 13.4619C30.1952 13.4619 23.0566 11.8756 23.0566 9.9187C23.0566 7.96184 30.1952 6.37549 39.0011 6.37549C47.807 6.37549 54.9455 7.96184 54.9455 9.9187Z" fill="#F4F4F4"/>
<path opacity="0.5" fill-rule="evenodd" clip-rule="evenodd" d="M54.284 10.3219C54.4453 10.1467 54.4866 10.0137 54.4866 9.9187C54.4866 9.82372 54.4453 9.69073 54.284 9.51551C54.1204 9.33783 53.857 9.14437 53.4791 8.94581C52.7242 8.54919 51.6017 8.17812 50.176 7.8613C47.332 7.2293 43.3808 6.83444 39.0011 6.83444C34.6213 6.83444 30.6702 7.2293 27.8262 7.8613C26.4005 8.17812 25.278 8.54919 24.5231 8.94581C24.1452 9.14437 23.8818 9.33783 23.7182 9.51551C23.5568 9.69073 23.5156 9.82372 23.5156 9.9187C23.5156 10.0137 23.5568 10.1467 23.7182 10.3219C23.8818 10.4996 24.1452 10.693 24.5231 10.8916C25.278 11.2882 26.4005 11.6593 27.8262 11.9761C30.6702 12.6081 34.6213 13.003 39.0011 13.003C43.3808 13.003 47.332 12.6081 50.176 11.9761C51.6017 11.6593 52.7242 11.2882 53.4791 10.8916C53.857 10.693 54.1204 10.4996 54.284 10.3219ZM39.0011 13.4619C47.807 13.4619 54.9455 11.8756 54.9455 9.9187C54.9455 7.96184 47.807 6.37549 39.0011 6.37549C30.1952 6.37549 23.0566 7.96184 23.0566 9.9187C23.0566 11.8756 30.1952 13.4619 39.0011 13.4619Z" fill="#5A5A5A"/>
<path opacity="0.5" d="M23.0566 9.38379C23.0566 9.38379 23.0566 13.0243 39.0011 13.0243C54.9455 13.0243 54.9455 9.38379 54.9455 9.38379V13.3358C54.9455 13.3358 54.9455 16.9764 39.0011 16.9764C23.0566 16.9764 23.0566 13.3358 23.0566 13.3358V9.38379Z" fill="#F4F4F4"/>
<path opacity="0.5" fill-rule="evenodd" clip-rule="evenodd" d="M54.9455 9.38379C54.9455 9.38379 54.9455 9.72572 54.4866 10.2C53.448 11.2733 50.059 13.0243 39.0011 13.0243C27.9431 13.0243 24.5542 11.2733 23.5156 10.2C23.0566 9.72572 23.0566 9.38379 23.0566 9.38379V13.3358C23.0566 13.3358 23.0566 16.9764 39.0011 16.9764C54.9455 16.9764 54.9455 13.3358 54.9455 13.3358V9.38379ZM54.4866 10.8194C54.1624 11.0818 53.7271 11.3549 53.1431 11.6215C51.0595 12.573 46.9939 13.4833 39.0011 13.4833C31.0083 13.4833 26.9427 12.573 24.859 11.6215C24.2751 11.3549 23.8398 11.0818 23.5156 10.8194V13.3158C23.5169 13.323 23.5199 13.3363 23.5258 13.3552C23.5418 13.4063 23.5811 13.5034 23.6765 13.6341C23.8674 13.8956 24.2948 14.3068 25.2403 14.7386C27.1428 15.6074 31.0494 16.5174 39.0011 16.5174C46.9528 16.5174 50.8593 15.6074 52.7618 14.7386C53.7074 14.3068 54.1348 13.8956 54.3257 13.6341C54.4211 13.5034 54.4604 13.4063 54.4764 13.3552C54.4823 13.3363 54.4852 13.323 54.4866 13.3158V10.8194Z" fill="#5A5A5A"/>
<defs>
<radialGradient id="paint0_radial_36_2694" cx="0" cy="0" r="1" gradientUnits="userSpaceOnUse" gradientTransform="translate(39.0007 45.6835) rotate(-180) scale(18.4753 25.9414)">
<stop stop-color="#7D9577"/>
<stop offset="1" stop-color="#AEC9A7"/>
</radialGradient>
<radialGradient id="paint1_radial_36_2694" cx="0" cy="0" r="1" gradientUnits="userSpaceOnUse" gradientTransform="translate(39.0007 15.7194) rotate(180) scale(18.4753 4.3917)">
<stop stop-color="#7D9577"/>
<stop offset="1" stop-color="#AEC9A7"/>
</radialGradient>
</defs>
</svg>
