<svg width="78" height="78" viewBox="0 0 78 78" fill="none" xmlns="http://www.w3.org/2000/svg">
<path d="M20.5254 19.7417C20.5254 19.7417 20.5254 23.9176 39.0007 23.9176C57.476 23.9176 57.476 19.7417 57.476 19.7417L53.1735 66.1716C53.1735 66.1716 53.1735 71.6244 39.0007 71.6244C24.8279 71.6244 24.8279 66.1716 24.8279 66.1716L20.5254 19.7417Z" fill="url(#paint0_radial_36_2709)"/>
<path d="M20.5254 19.7417C20.5254 19.7417 20.5254 23.9176 39.0007 23.9176C57.476 23.9176 57.476 19.7417 57.476 19.7417L53.1735 66.1716C53.1735 66.1716 53.1735 71.6244 39.0007 71.6244C24.8279 71.6244 24.8279 66.1716 24.8279 66.1716L20.5254 19.7417Z" fill="#F4F4F4" fill-opacity="0.2"/>
<path fill-rule="evenodd" clip-rule="evenodd" d="M20.5254 19.7417C20.5254 19.7417 20.5254 19.7569 20.5294 19.7854L24.8279 66.1716C24.8279 66.1716 24.8279 71.6244 39.0007 71.6244C53.1735 71.6244 53.1735 66.1716 53.1735 66.1716L57.472 19.7854C57.476 19.7569 57.476 19.7417 57.476 19.7417L57.472 19.7854C57.4552 19.9035 57.3691 20.2502 56.9267 20.6957C55.7028 21.9283 51.7524 23.9176 39.0007 23.9176C26.249 23.9176 22.2986 21.9283 21.0747 20.6957C20.6323 20.2502 20.5462 19.9035 20.5294 19.7854L20.5254 19.7417ZM21.1365 21.3625L25.2868 66.1503V66.1672C25.2868 66.1675 25.2868 66.1677 25.2868 66.168C25.287 66.1717 25.2874 66.1802 25.2886 66.1932C25.2908 66.2191 25.2958 66.263 25.3068 66.3221C25.3287 66.4402 25.3746 66.6198 25.4704 66.8411C25.6609 67.2807 26.055 67.9 26.8794 68.5342C28.5358 69.8089 31.9603 71.1655 39.0007 71.1655C46.0411 71.1655 49.4656 69.8089 51.122 68.5342C51.9464 67.9 52.3405 67.2807 52.531 66.8411C52.6268 66.6198 52.6727 66.4402 52.6946 66.3221C52.7056 66.263 52.7106 66.2191 52.7128 66.1932C52.714 66.1802 52.7144 66.1717 52.7146 66.168C52.7146 66.1677 52.7146 66.1674 52.7146 66.1672V66.1503L56.8649 21.3625C56.4981 21.6515 56.0086 21.9527 55.3556 22.2479C52.9563 23.3325 48.2586 24.3766 39.0007 24.3766C29.7428 24.3766 25.0451 23.3325 22.6458 22.2479C21.9928 21.9527 21.5033 21.6515 21.1365 21.3625Z" fill="#5A5A5A" fill-opacity="0.5"/>
<path fill-rule="evenodd" clip-rule="evenodd" d="M59.5 19.3472C59.5 19.3472 59.5 18.8707 59.041 18.1864C57.8716 16.4426 53.7222 13.349 39 13.349C24.2778 13.349 20.1284 16.4426 18.959 18.1864C18.5 18.8707 18.5 19.3472 18.5 19.3472V14.2095C18.5 14.2095 18.5 8.21137 39 8.21137C59.5 8.21137 59.5 14.2095 59.5 14.2095V19.3472ZM59.041 17.4378C58.6266 16.9664 58.029 16.4551 57.1693 15.952C54.5023 14.3913 49.2797 12.8901 39 12.8901C28.7203 12.8901 23.4977 14.3913 20.8307 15.952C19.971 16.4551 19.3734 16.9664 18.959 17.4378V14.2164C18.9592 14.2129 18.9597 14.2054 18.961 14.1941C18.9639 14.1684 18.9707 14.123 18.9859 14.0606C19.0163 13.9362 19.081 13.742 19.2191 13.4995C19.494 13.0169 20.0722 12.3217 21.2943 11.6066C23.7523 10.1682 28.7797 8.67032 39 8.67032C49.2203 8.67032 54.2477 10.1682 56.7057 11.6066C57.9278 12.3217 58.506 13.0169 58.7809 13.4995C58.919 13.742 58.9837 13.9362 59.0141 14.0606C59.0293 14.123 59.0361 14.1684 59.039 14.1941C59.0397 14.2002 59.0402 14.2051 59.0405 14.209C59.0408 14.2123 59.0409 14.2147 59.041 14.2163V17.4378Z" fill="#5A5A5A"/>
<path d="M39.0007 11.3277C20.5254 11.3277 20.5254 16.5235 20.5254 16.5235V20.1111C20.5254 20.1111 20.5254 24.5552 39.0007 24.5552C57.476 24.5552 57.476 19.8306 57.476 19.8306V16.5235C57.476 16.5235 57.476 11.3277 39.0007 11.3277Z" fill="url(#paint1_radial_36_2709)"/>
<path fill-rule="evenodd" clip-rule="evenodd" d="M20.5254 16.5235C20.5254 16.5235 20.5254 11.3277 39.0007 11.3277C57.476 11.3277 57.476 16.5235 57.476 16.5235V19.8306C57.476 19.8306 57.476 24.5552 39.0007 24.5552C20.5254 24.5552 20.5254 20.1111 20.5254 20.1111V16.5235ZM20.9843 20.0967V16.5322C20.9846 16.5296 20.9849 16.5252 20.9857 16.5192C20.9879 16.5001 20.9934 16.464 21.0063 16.4132C21.032 16.3121 21.0877 16.1501 21.2089 15.9456C21.45 15.5388 21.9633 14.9424 23.0598 14.3256C25.2668 13.0843 29.791 11.7866 39.0007 11.7866C48.2104 11.7866 52.7346 13.0843 54.9416 14.3256C56.0381 14.9424 56.5514 15.5388 56.7925 15.9456C56.9137 16.1501 56.9694 16.3121 56.9951 16.4132C57.008 16.464 57.0135 16.5001 57.0157 16.5192C57.0165 16.5252 57.0168 16.5296 57.0171 16.5322V19.8188C57.0169 19.8203 57.0167 19.8221 57.0164 19.8243C57.0146 19.8381 57.0098 19.8674 56.9979 19.9101C56.9742 19.9949 56.9212 20.1365 56.8028 20.3182C56.5668 20.6804 56.0571 21.222 54.9576 21.7843C52.7454 22.9157 48.2141 24.0962 39.0007 24.0962C29.7852 24.0962 25.2495 22.9855 23.0338 21.9195C21.9321 21.3895 21.4243 20.8803 21.1913 20.5441C21.0747 20.3757 21.0237 20.2463 21.0014 20.1714C20.9902 20.1336 20.986 20.1085 20.9845 20.098C20.9845 20.0975 20.9844 20.0971 20.9843 20.0967Z" fill="#5A5A5A"/>
<path d="M18.5 13.6167C18.5 13.6167 18.5 19.6148 39 19.6148C59.5 19.6148 59.5 13.6167 59.5 13.6167V18.7544C59.5 18.7544 59.5 24.7525 39 24.7525C18.5 24.7525 18.5 18.7544 18.5 18.7544V13.6167Z" fill="#F4F4F4" fill-opacity="0.5"/>
<path fill-rule="evenodd" clip-rule="evenodd" d="M59.5 13.6167C59.5 13.6167 59.5 14.0932 59.041 14.7775C57.8716 16.5213 53.7222 19.6148 39 19.6148C24.2778 19.6148 20.1284 16.5213 18.959 14.7775C18.5 14.0932 18.5 13.6167 18.5 13.6167V18.7544C18.5 18.7544 18.5 24.7525 39 24.7525C59.5 24.7525 59.5 18.7544 59.5 18.7544V13.6167ZM59.041 15.526C58.6266 15.9975 58.029 16.5088 57.1693 17.0119C54.5023 18.5726 49.2797 20.0738 39 20.0738C28.7203 20.0738 23.4977 18.5726 20.8307 17.0119C19.971 16.5088 19.3734 15.9975 18.959 15.526V18.7475C18.9592 18.751 18.9597 18.7585 18.961 18.7698C18.9639 18.7954 18.9707 18.8408 18.9859 18.9032C19.0163 19.0276 19.081 19.2219 19.2191 19.4644C19.494 19.947 20.0722 20.6422 21.2943 21.3573C23.7523 22.7957 28.7797 24.2935 39 24.2935C49.2203 24.2935 54.2477 22.7957 56.7057 21.3573C57.9278 20.6422 58.506 19.947 58.7809 19.4644C58.919 19.2219 58.9837 19.0276 59.0141 18.9032C59.0293 18.8408 59.0361 18.7954 59.039 18.7698C59.0397 18.7637 59.0402 18.7587 59.0405 18.7549C59.0408 18.7516 59.0409 18.7491 59.041 18.7475V15.526Z" fill="#5A5A5A" fill-opacity="0.5"/>
<path opacity="0.5" d="M59.5 14.2214C59.5 17.8555 50.3218 20.8016 39 20.8016C27.6782 20.8016 18.5 17.8555 18.5 14.2214C18.5 10.5872 27.6782 7.64111 39 7.64111C50.3218 7.64111 59.5 10.5872 59.5 14.2214Z" fill="#F4F4F4"/>
<path opacity="0.5" d="M54.9436 9.9187C54.9436 11.8756 47.805 13.4619 38.9991 13.4619C30.1933 13.4619 23.0547 11.8756 23.0547 9.9187C23.0547 7.96184 30.1933 6.37549 38.9991 6.37549C47.805 6.37549 54.9436 7.96184 54.9436 9.9187Z" fill="#F4F4F4"/>
<path opacity="0.5" fill-rule="evenodd" clip-rule="evenodd" d="M54.282 10.3219C54.4434 10.1467 54.4846 10.0137 54.4846 9.9187C54.4846 9.82372 54.4434 9.69073 54.282 9.51551C54.1184 9.33783 53.855 9.14437 53.4771 8.94581C52.7222 8.54919 51.5997 8.17812 50.174 7.8613C47.33 7.2293 43.3789 6.83444 38.9991 6.83444C34.6194 6.83444 30.6682 7.2293 27.8243 7.8613C26.3986 8.17812 25.276 8.54919 24.5211 8.94581C24.1432 9.14437 23.8799 9.33783 23.7162 9.51551C23.5549 9.69073 23.5136 9.82372 23.5136 9.9187C23.5136 10.0137 23.5549 10.1467 23.7162 10.3219C23.8799 10.4996 24.1432 10.693 24.5211 10.8916C25.276 11.2882 26.3986 11.6593 27.8243 11.9761C30.6682 12.6081 34.6194 13.003 38.9991 13.003C43.3789 13.003 47.33 12.6081 50.174 11.9761C51.5997 11.6593 52.7222 11.2882 53.4771 10.8916C53.855 10.693 54.1184 10.4996 54.282 10.3219ZM38.9991 13.4619C47.805 13.4619 54.9436 11.8756 54.9436 9.9187C54.9436 7.96184 47.805 6.37549 38.9991 6.37549C30.1933 6.37549 23.0547 7.96184 23.0547 9.9187C23.0547 11.8756 30.1933 13.4619 38.9991 13.4619Z" fill="#5A5A5A"/>
<path opacity="0.5" d="M23.0547 9.3833C23.0547 9.3833 23.0547 13.0239 38.9991 13.0239C54.9436 13.0239 54.9436 9.3833 54.9436 9.3833V13.3353C54.9436 13.3353 54.9436 16.9759 38.9991 16.9759C23.0547 16.9759 23.0547 13.3353 23.0547 13.3353V9.3833Z" fill="#F4F4F4"/>
<path opacity="0.5" fill-rule="evenodd" clip-rule="evenodd" d="M54.9436 9.3833C54.9436 9.3833 54.9436 9.72523 54.4846 10.1995C53.446 11.2728 50.0571 13.0239 38.9991 13.0239C27.9412 13.0239 24.5522 11.2728 23.5136 10.1995C23.0547 9.72523 23.0547 9.3833 23.0547 9.3833V13.3353C23.0547 13.3353 23.0547 16.9759 38.9991 16.9759C54.9436 16.9759 54.9436 13.3353 54.9436 13.3353V9.3833ZM54.4846 10.8189C54.1605 11.0813 53.7252 11.3544 53.1412 11.6211C51.0575 12.5726 46.9919 13.4828 38.9991 13.4828C31.0064 13.4828 26.9407 12.5726 24.8571 11.6211C24.2731 11.3544 23.8378 11.0813 23.5136 10.8189V13.3153C23.515 13.3225 23.5179 13.3358 23.5239 13.3547C23.5398 13.4058 23.5792 13.5029 23.6745 13.6336C23.8655 13.8952 24.2928 14.3063 25.2384 14.7381C27.1409 15.6069 31.0475 16.5169 38.9991 16.5169C46.9508 16.5169 50.8574 15.6069 52.7599 14.7381C53.7054 14.3063 54.1328 13.8952 54.3237 13.6336C54.4191 13.5029 54.4585 13.4058 54.4744 13.3547C54.4803 13.3358 54.4833 13.3225 54.4846 13.3153V10.8189Z" fill="#5A5A5A"/>
<defs>
<radialGradient id="paint0_radial_36_2709" cx="0" cy="0" r="1" gradientUnits="userSpaceOnUse" gradientTransform="translate(39.0007 45.6831) rotate(-180) scale(18.4753 25.9414)">
<stop stop-color="#EEB4B4"/>
<stop offset="1" stop-color="#E19C9C"/>
</radialGradient>
<radialGradient id="paint1_radial_36_2709" cx="0" cy="0" r="1" gradientUnits="userSpaceOnUse" gradientTransform="translate(39.0007 17.9414) rotate(180) scale(18.4753 6.61375)">
<stop stop-color="#EEB4B4"/>
<stop offset="1" stop-color="#E19C9C"/>
</radialGradient>
</defs>
</svg>
